G04 (created by PCBNEW (2013-03-31 BZR 4008)-stable) date 21.10.2013 14:27:09*
%MOIN*%
G04 Gerber Fmt 3.4, Leading zero omitted, Abs format*
%FSLAX34Y34*%
G01*
G70*
G90*
G04 APERTURE LIST*
%ADD10C,0.006*%
%ADD11R,0.0118X0.0276*%
%ADD12R,0.0256X0.0531*%
%ADD13R,0.055X0.035*%
%ADD14R,0.035X0.055*%
%ADD15R,0.045X0.025*%
%ADD16R,0.025X0.045*%
%ADD17R,0.06X0.06*%
%ADD18C,0.06*%
%ADD19R,0.0747X0.0747*%
%ADD20R,0.0747X0.0748*%
%ADD21R,0.0747X0.0707*%
%ADD22R,0.0629X0.0825*%
%ADD23R,0.053X0.0157*%
%ADD24R,0.0098X0.0315*%
%ADD25R,0.0099X0.0315*%
%ADD26R,0.0315X0.0098*%
%ADD27R,0.0315X0.0099*%
%ADD28R,0.0472X0.0472*%
%ADD29C,0.056*%
%ADD30C,0.0275591*%
%ADD31R,0.11811X0.11811*%
%ADD32C,0.00629921*%
G04 APERTURE END LIST*
G54D10*
G54D11*
X64000Y-47815D03*
X64256Y-47815D03*
X64256Y-47185D03*
X64000Y-47185D03*
X63744Y-47185D03*
X63744Y-47815D03*
G54D12*
X63000Y-47972D03*
X63000Y-47028D03*
G54D13*
X85000Y-44825D03*
X85000Y-45575D03*
X62800Y-44625D03*
X62800Y-45375D03*
X63600Y-44625D03*
X63600Y-45375D03*
G54D14*
X80825Y-45000D03*
X81575Y-45000D03*
X79975Y-45000D03*
X79225Y-45000D03*
G54D13*
X77200Y-48775D03*
X77200Y-48025D03*
X77200Y-46625D03*
X77200Y-47375D03*
G54D14*
X65425Y-46600D03*
X66175Y-46600D03*
G54D13*
X85000Y-47375D03*
X85000Y-46625D03*
X64000Y-49825D03*
X64000Y-50575D03*
G54D14*
X76175Y-48200D03*
X75425Y-48200D03*
G54D13*
X65000Y-49825D03*
X65000Y-50575D03*
X62000Y-49825D03*
X62000Y-50575D03*
X63000Y-49825D03*
X63000Y-50575D03*
X68000Y-47225D03*
X68000Y-47975D03*
X67200Y-47225D03*
X67200Y-47975D03*
X66000Y-49825D03*
X66000Y-50575D03*
G54D15*
X69400Y-47300D03*
X69400Y-47900D03*
X69400Y-49100D03*
X69400Y-48500D03*
G54D16*
X71100Y-45200D03*
X71700Y-45200D03*
G54D15*
X75400Y-47500D03*
X75400Y-46900D03*
G54D16*
X71100Y-44600D03*
X71700Y-44600D03*
G54D15*
X74600Y-47900D03*
X74600Y-47300D03*
G54D17*
X84000Y-49500D03*
G54D18*
X83000Y-49500D03*
X84000Y-48500D03*
X83000Y-48500D03*
X84000Y-47500D03*
X83000Y-47500D03*
X84000Y-46500D03*
X83000Y-46500D03*
X84000Y-45500D03*
X83000Y-45500D03*
G54D17*
X65000Y-49000D03*
G54D18*
X64000Y-49000D03*
X63000Y-49000D03*
G54D17*
X68000Y-46000D03*
G54D18*
X67000Y-46000D03*
G54D17*
X61000Y-43000D03*
G54D18*
X62000Y-43000D03*
X71000Y-43000D03*
X64000Y-43000D03*
X73000Y-43000D03*
X66000Y-43000D03*
X75000Y-43000D03*
X68000Y-43000D03*
X77000Y-43000D03*
X70000Y-43000D03*
X79000Y-43000D03*
X72000Y-43000D03*
X81000Y-43000D03*
X74000Y-43000D03*
X83000Y-43000D03*
X76000Y-43000D03*
X85000Y-43000D03*
X78000Y-43000D03*
X80000Y-43000D03*
X82000Y-43000D03*
X84000Y-43000D03*
X63000Y-43000D03*
X65000Y-43000D03*
X67000Y-43000D03*
X69000Y-43000D03*
G54D17*
X61000Y-52000D03*
G54D18*
X62000Y-52000D03*
X71000Y-52000D03*
X64000Y-52000D03*
X73000Y-52000D03*
X66000Y-52000D03*
X75000Y-52000D03*
X68000Y-52000D03*
X77000Y-52000D03*
X70000Y-52000D03*
X79000Y-52000D03*
X72000Y-52000D03*
X81000Y-52000D03*
X74000Y-52000D03*
X83000Y-52000D03*
X76000Y-52000D03*
X85000Y-52000D03*
X78000Y-52000D03*
X80000Y-52000D03*
X82000Y-52000D03*
X84000Y-52000D03*
X63000Y-52000D03*
X65000Y-52000D03*
X67000Y-52000D03*
X69000Y-52000D03*
G54D19*
X61070Y-47028D03*
G54D20*
X61070Y-47972D03*
G54D21*
X61070Y-48996D03*
G54D22*
X62074Y-46280D03*
G54D23*
X62124Y-46989D03*
X62124Y-47245D03*
X62124Y-47500D03*
X62124Y-47755D03*
X62124Y-48011D03*
G54D22*
X62074Y-48720D03*
G54D21*
X61070Y-46004D03*
G54D24*
X73082Y-49113D03*
G54D25*
X72885Y-49113D03*
X72688Y-49113D03*
X72491Y-49113D03*
G54D24*
X72295Y-49113D03*
X72098Y-49113D03*
X71902Y-49113D03*
X71705Y-49113D03*
G54D25*
X71509Y-49113D03*
X71312Y-49113D03*
X71115Y-49113D03*
G54D24*
X70918Y-49113D03*
G54D26*
X70387Y-48582D03*
G54D27*
X70387Y-48385D03*
X70387Y-48188D03*
X70387Y-47991D03*
G54D26*
X70387Y-47795D03*
X70387Y-47598D03*
X70387Y-47402D03*
X70387Y-47205D03*
G54D27*
X70387Y-47009D03*
X70387Y-46812D03*
X70387Y-46615D03*
G54D26*
X70387Y-46418D03*
G54D24*
X73082Y-45887D03*
G54D25*
X72885Y-45887D03*
X72688Y-45887D03*
X72491Y-45887D03*
G54D24*
X72295Y-45887D03*
X72098Y-45887D03*
X71902Y-45887D03*
X71705Y-45887D03*
G54D25*
X71509Y-45887D03*
X71312Y-45887D03*
X71115Y-45887D03*
G54D24*
X70918Y-45887D03*
G54D26*
X73613Y-48582D03*
G54D27*
X73613Y-48385D03*
X73613Y-48188D03*
X73613Y-47991D03*
G54D26*
X73613Y-47795D03*
X73613Y-47598D03*
X73613Y-47402D03*
X73613Y-47205D03*
G54D27*
X73613Y-47009D03*
X73613Y-46812D03*
X73613Y-46615D03*
G54D26*
X73613Y-46418D03*
G54D28*
X85000Y-48187D03*
X85000Y-49013D03*
X65387Y-47400D03*
X66213Y-47400D03*
X64400Y-44587D03*
X64400Y-45413D03*
X62000Y-44587D03*
X62000Y-45413D03*
G54D29*
X78800Y-48800D03*
X78800Y-46800D03*
G54D30*
X80383Y-45667D03*
X80816Y-45667D03*
G54D31*
X80600Y-49211D03*
G54D30*
X62595Y-46989D03*
X70837Y-47599D03*
X71000Y-46700D03*
X74150Y-46050D03*
X72550Y-51150D03*
X75245Y-49944D03*
X71500Y-51350D03*
X72914Y-47955D03*
X70500Y-51400D03*
X72562Y-47973D03*
X70400Y-50700D03*
X69400Y-50550D03*
X67500Y-50500D03*
X74605Y-48378D03*
X64878Y-47758D03*
X64550Y-47450D03*
X74125Y-48257D03*
X70600Y-44800D03*
X78250Y-49150D03*
X80588Y-43588D03*
X83950Y-44200D03*
X82450Y-43600D03*
X81500Y-48400D03*
X81500Y-43600D03*
X79450Y-48700D03*
X83400Y-43800D03*
X73978Y-49100D03*
X63600Y-44200D03*
X73310Y-45614D03*
X63700Y-45900D03*
X71306Y-47542D03*
X77500Y-49550D03*
X65614Y-43785D03*
X66900Y-45100D03*
X76850Y-49850D03*
X61100Y-44900D03*
X72329Y-49654D03*
X75500Y-43950D03*
X76599Y-49000D03*
X76600Y-46800D03*
X74500Y-43700D03*
X71398Y-48014D03*
X71058Y-49601D03*
X66600Y-43800D03*
X67400Y-43700D03*
X78550Y-45050D03*
X69900Y-48200D03*
X72732Y-45411D03*
X72732Y-43597D03*
X73400Y-43500D03*
X70746Y-48132D03*
X68550Y-44100D03*
X79350Y-44000D03*
X70050Y-43850D03*
X74043Y-47597D03*
X67200Y-49015D03*
X76350Y-50800D03*
X74191Y-46771D03*
X73650Y-44350D03*
X70281Y-44457D03*
X76066Y-47722D03*
X72075Y-48375D03*
X74550Y-51550D03*
X75620Y-50307D03*
X73850Y-45150D03*
X74400Y-51000D03*
X72420Y-47256D03*
X73450Y-51100D03*
X75882Y-49980D03*
X74200Y-45000D03*
X68800Y-47200D03*
X68800Y-48200D03*
G54D32*
X65000Y-52000D02*
X65000Y-50575D01*
X63000Y-52000D02*
X63000Y-50575D01*
X63200Y-47027D02*
X63472Y-47027D01*
X63472Y-47027D02*
X63547Y-46952D01*
X64256Y-47185D02*
X64256Y-47044D01*
X64550Y-46950D02*
X64550Y-46952D01*
X64350Y-46950D02*
X64550Y-46950D01*
X64256Y-47044D02*
X64350Y-46950D01*
X64000Y-47185D02*
X64000Y-47050D01*
X64000Y-47050D02*
X63902Y-46952D01*
X64800Y-46952D02*
X64550Y-46952D01*
X65425Y-46600D02*
X65155Y-46600D01*
X65155Y-46600D02*
X64802Y-46952D01*
X64802Y-46952D02*
X64800Y-46952D01*
X64000Y-47185D02*
X64256Y-47185D01*
X63547Y-46952D02*
X63902Y-46952D01*
X62595Y-46989D02*
X62738Y-46989D01*
X62738Y-46989D02*
X62777Y-47027D01*
X63000Y-47027D02*
X62777Y-47027D01*
X63000Y-47027D02*
X63200Y-47027D01*
X62124Y-46989D02*
X62595Y-46989D01*
X74600Y-47300D02*
X75000Y-47300D01*
X75000Y-47300D02*
X75400Y-46900D01*
X73360Y-47536D02*
X73360Y-47439D01*
X71128Y-47891D02*
X71237Y-47781D01*
X71237Y-47781D02*
X72042Y-47781D01*
X72042Y-47781D02*
X72466Y-48206D01*
X72466Y-48206D02*
X72991Y-48206D01*
X72991Y-48206D02*
X73146Y-48051D01*
X73146Y-48051D02*
X73146Y-47750D01*
X73146Y-47750D02*
X73360Y-47536D01*
X73398Y-47402D02*
X73613Y-47402D01*
X73360Y-47439D02*
X73398Y-47402D01*
X70200Y-47990D02*
X70140Y-47990D01*
X70140Y-47990D02*
X70050Y-47900D01*
X69700Y-47900D02*
X70050Y-47900D01*
X70639Y-47597D02*
X70640Y-47599D01*
X70050Y-47900D02*
X70134Y-47815D01*
X70134Y-47815D02*
X70134Y-47650D01*
X70200Y-47600D02*
X70184Y-47600D01*
X70184Y-47600D02*
X70134Y-47650D01*
X70200Y-47600D02*
X70200Y-47597D01*
X70387Y-47597D02*
X70200Y-47597D01*
X70387Y-47597D02*
X70639Y-47597D01*
X70640Y-47599D02*
X70837Y-47599D01*
X70387Y-47990D02*
X70200Y-47990D01*
X70200Y-47990D02*
X70190Y-47990D01*
X79225Y-45000D02*
X79350Y-45000D01*
X79550Y-44800D02*
X79550Y-44809D01*
X79350Y-45000D02*
X79550Y-44800D01*
X81575Y-45000D02*
X81450Y-45000D01*
X81250Y-44800D02*
X81250Y-44809D01*
X81450Y-45000D02*
X81250Y-44800D01*
X74300Y-44737D02*
X74337Y-44737D01*
X74337Y-44737D02*
X74700Y-45100D01*
X78755Y-44800D02*
X78955Y-45000D01*
X78000Y-44800D02*
X78755Y-44800D01*
X77600Y-45200D02*
X78000Y-44800D01*
X74800Y-45200D02*
X77600Y-45200D01*
X74700Y-45100D02*
X74800Y-45200D01*
X71509Y-45887D02*
X71509Y-46191D01*
X71509Y-46191D02*
X71000Y-46700D01*
X64400Y-45413D02*
X65713Y-45413D01*
X66300Y-47400D02*
X66213Y-47400D01*
X66600Y-47100D02*
X66300Y-47400D01*
X66600Y-46300D02*
X66600Y-47100D01*
X65713Y-45413D02*
X66600Y-46300D01*
X67200Y-47975D02*
X66825Y-47975D01*
X66825Y-47975D02*
X66250Y-47400D01*
X66250Y-47400D02*
X66213Y-47400D01*
X66213Y-47400D02*
X66000Y-47400D01*
X65800Y-47606D02*
X65358Y-48047D01*
X65358Y-48047D02*
X64000Y-48047D01*
X65800Y-47600D02*
X65800Y-47606D01*
X66000Y-47400D02*
X65800Y-47600D01*
X62000Y-45413D02*
X62113Y-45413D01*
X64400Y-45800D02*
X64400Y-45413D01*
X64000Y-46200D02*
X64400Y-45800D01*
X62900Y-46200D02*
X64000Y-46200D01*
X62113Y-45413D02*
X62900Y-46200D01*
X72497Y-44702D02*
X71802Y-44702D01*
X71802Y-44702D02*
X71700Y-44600D01*
X71700Y-45200D02*
X71700Y-44600D01*
X71509Y-45887D02*
X71509Y-45691D01*
X71700Y-45500D02*
X71700Y-45200D01*
X71509Y-45691D02*
X71700Y-45500D01*
X71800Y-45300D02*
X71800Y-45400D01*
X81575Y-45000D02*
X81844Y-45000D01*
X81067Y-44627D02*
X81250Y-44809D01*
X79550Y-44809D02*
X79732Y-44627D01*
X79732Y-44627D02*
X81067Y-44627D01*
X82344Y-45500D02*
X81844Y-45000D01*
X83000Y-45500D02*
X82344Y-45500D01*
X62522Y-47972D02*
X62483Y-48010D01*
X63000Y-47972D02*
X62522Y-47972D01*
X62124Y-48010D02*
X62483Y-48010D01*
X69400Y-48280D02*
X69400Y-48119D01*
X69400Y-47900D02*
X69400Y-48119D01*
X66000Y-50575D02*
X66000Y-50305D01*
X79225Y-45000D02*
X78955Y-45000D01*
X85000Y-49012D02*
X84669Y-49012D01*
X83000Y-49012D02*
X84669Y-49012D01*
X83000Y-49012D02*
X83000Y-49500D01*
X70917Y-49112D02*
X70917Y-48860D01*
X71128Y-47891D02*
X70837Y-47599D01*
X71128Y-48650D02*
X71128Y-47891D01*
X70917Y-48860D02*
X71128Y-48650D01*
X73967Y-47300D02*
X73865Y-47402D01*
X74600Y-47300D02*
X73967Y-47300D01*
X73612Y-47402D02*
X73865Y-47402D01*
X70917Y-49112D02*
X70917Y-49365D01*
X81525Y-48025D02*
X77200Y-48025D01*
X82513Y-49012D02*
X81525Y-48025D01*
X83000Y-49012D02*
X82513Y-49012D01*
X77200Y-48025D02*
X77200Y-47755D01*
X77200Y-47375D02*
X77200Y-47755D01*
X72532Y-44737D02*
X74300Y-44737D01*
X72497Y-44702D02*
X72532Y-44737D01*
X69400Y-47900D02*
X69700Y-47900D01*
X69700Y-47900D02*
X69719Y-47900D01*
X71150Y-49365D02*
X70917Y-49365D01*
X71300Y-49514D02*
X71150Y-49365D01*
X71300Y-49688D02*
X71300Y-49514D01*
X71154Y-49833D02*
X71300Y-49688D01*
X67238Y-49833D02*
X71154Y-49833D01*
X66767Y-50305D02*
X67238Y-49833D01*
X66000Y-50305D02*
X66767Y-50305D01*
X62000Y-52000D02*
X62000Y-50575D01*
X62000Y-50575D02*
X62000Y-50305D01*
X69400Y-48500D02*
X69400Y-48280D01*
X67200Y-47975D02*
X68000Y-47975D01*
X62000Y-50305D02*
X63601Y-50305D01*
X63601Y-50305D02*
X66000Y-50305D01*
X63000Y-47972D02*
X63222Y-47972D01*
X63266Y-47928D02*
X63222Y-47972D01*
X63744Y-47928D02*
X63266Y-47928D01*
X63744Y-47815D02*
X63744Y-47856D01*
X64000Y-47815D02*
X64000Y-48047D01*
X63744Y-47856D02*
X63744Y-47928D01*
X63601Y-48309D02*
X63863Y-48047D01*
X63601Y-50305D02*
X63601Y-48309D01*
X63744Y-47928D02*
X63863Y-48047D01*
X63863Y-48047D02*
X64000Y-48047D01*
X71800Y-44455D02*
X71800Y-44700D01*
X73340Y-45990D02*
X74090Y-45990D01*
X74090Y-45990D02*
X74150Y-46050D01*
X73150Y-50850D02*
X72850Y-50850D01*
X72850Y-50850D02*
X72550Y-51150D01*
X72097Y-46100D02*
X72100Y-46100D01*
X72100Y-46100D02*
X72139Y-46139D01*
X73191Y-46139D02*
X73340Y-45990D01*
X72139Y-46139D02*
X73191Y-46139D01*
X72097Y-45887D02*
X72097Y-46100D01*
X74055Y-49944D02*
X75245Y-49944D01*
X73150Y-50850D02*
X74055Y-49944D01*
X71000Y-51850D02*
X71000Y-52000D01*
X71500Y-51350D02*
X71000Y-51850D01*
X73612Y-47205D02*
X73360Y-47205D01*
X72914Y-47955D02*
X72914Y-47955D01*
X72914Y-47804D02*
X72914Y-47955D01*
X73212Y-47506D02*
X72914Y-47804D01*
X73212Y-47353D02*
X73212Y-47506D01*
X73360Y-47205D02*
X73212Y-47353D01*
X73612Y-47009D02*
X73360Y-47009D01*
X73086Y-47283D02*
X73360Y-47009D01*
X73086Y-47453D02*
X73086Y-47283D01*
X72566Y-47973D02*
X73086Y-47453D01*
X72562Y-47973D02*
X72566Y-47973D01*
X70000Y-51900D02*
X70000Y-52000D01*
X70500Y-51400D02*
X70000Y-51900D01*
X71002Y-50652D02*
X70447Y-50652D01*
X70447Y-50652D02*
X70400Y-50700D01*
X72295Y-49112D02*
X72295Y-49365D01*
X72290Y-49365D02*
X71002Y-50652D01*
X72295Y-49365D02*
X72290Y-49365D01*
X69600Y-50350D02*
X69400Y-50550D01*
X69750Y-50350D02*
X69750Y-50357D01*
X69600Y-50350D02*
X69750Y-50350D01*
X72097Y-49112D02*
X72097Y-49365D01*
X71105Y-50357D02*
X72097Y-49365D01*
X69750Y-50357D02*
X71105Y-50357D01*
X67874Y-50125D02*
X67500Y-50500D01*
X71142Y-50125D02*
X67874Y-50125D01*
X71902Y-49365D02*
X71142Y-50125D01*
X71902Y-49112D02*
X71902Y-49365D01*
X85000Y-48187D02*
X85000Y-47375D01*
X85000Y-43000D02*
X85000Y-44825D01*
X62800Y-45375D02*
X62788Y-45375D01*
X62788Y-45375D02*
X62000Y-44587D01*
X63600Y-45375D02*
X63612Y-45375D01*
X63612Y-45375D02*
X64400Y-44587D01*
X64878Y-47758D02*
X64255Y-47758D01*
X62124Y-47500D02*
X62483Y-47500D01*
X62565Y-47581D02*
X62483Y-47500D01*
X64117Y-47581D02*
X62565Y-47581D01*
X64255Y-47720D02*
X64117Y-47581D01*
X73612Y-47990D02*
X73865Y-47990D01*
X64255Y-47815D02*
X64255Y-47758D01*
X64255Y-47758D02*
X64255Y-47720D01*
X73884Y-48010D02*
X73865Y-47990D01*
X74207Y-48010D02*
X73884Y-48010D01*
X74574Y-48378D02*
X74207Y-48010D01*
X74605Y-48378D02*
X74574Y-48378D01*
X63300Y-47388D02*
X63361Y-47388D01*
X63565Y-47185D02*
X63744Y-47185D01*
X63361Y-47388D02*
X63565Y-47185D01*
X63744Y-47185D02*
X63744Y-47394D01*
X63744Y-47394D02*
X63800Y-47450D01*
X63800Y-47450D02*
X64550Y-47450D01*
X63250Y-47388D02*
X63300Y-47388D01*
X74055Y-48187D02*
X74125Y-48257D01*
X73612Y-48187D02*
X74055Y-48187D01*
X62626Y-47388D02*
X63250Y-47388D01*
X62483Y-47245D02*
X62626Y-47388D01*
X62124Y-47245D02*
X62483Y-47245D01*
X65387Y-47400D02*
X65387Y-47388D01*
X65387Y-47388D02*
X66175Y-46600D01*
X74700Y-44600D02*
X74800Y-44600D01*
X76600Y-44900D02*
X76900Y-44600D01*
X75100Y-44900D02*
X76600Y-44900D01*
X74800Y-44600D02*
X75100Y-44900D01*
X74000Y-44600D02*
X74700Y-44600D01*
X76900Y-44600D02*
X77600Y-44600D01*
X77600Y-44600D02*
X77800Y-44400D01*
X85000Y-45575D02*
X85000Y-45800D01*
X85000Y-45800D02*
X84800Y-46000D01*
X84800Y-46000D02*
X83800Y-46000D01*
X83800Y-46000D02*
X83400Y-45600D01*
X83400Y-45600D02*
X83400Y-45200D01*
X83400Y-45200D02*
X82600Y-44400D01*
X82600Y-44400D02*
X77800Y-44400D01*
X71500Y-44200D02*
X71100Y-44600D01*
X72200Y-44200D02*
X71500Y-44200D01*
X72600Y-44600D02*
X72200Y-44200D01*
X74000Y-44600D02*
X72600Y-44600D01*
X70800Y-44600D02*
X71100Y-44600D01*
X70600Y-44800D02*
X70800Y-44600D01*
X71312Y-45887D02*
X71312Y-45688D01*
X71400Y-44900D02*
X71100Y-44600D01*
X71400Y-45600D02*
X71400Y-44900D01*
X71312Y-45688D02*
X71400Y-45600D01*
X77828Y-49271D02*
X77750Y-49271D01*
X76421Y-49271D02*
X76400Y-49250D01*
X76300Y-49208D02*
X76358Y-49208D01*
X76300Y-49208D02*
X74415Y-49208D01*
X74415Y-49208D02*
X74075Y-48868D01*
X74075Y-48868D02*
X73359Y-48868D01*
X73359Y-48868D02*
X73225Y-48734D01*
X73225Y-48734D02*
X71635Y-48734D01*
X71635Y-48734D02*
X71509Y-48860D01*
X71509Y-49112D02*
X71509Y-48860D01*
X76358Y-49208D02*
X76400Y-49250D01*
X77750Y-49271D02*
X76421Y-49271D01*
X78250Y-49150D02*
X77950Y-49150D01*
X77950Y-49150D02*
X77828Y-49271D01*
X82700Y-44200D02*
X81200Y-44200D01*
X84000Y-45500D02*
X82700Y-44200D01*
X81200Y-44200D02*
X80588Y-43588D01*
X80600Y-43600D02*
X80588Y-43588D01*
X84000Y-44150D02*
X84000Y-43000D01*
X83950Y-44200D02*
X84000Y-44150D01*
X74565Y-46815D02*
X74565Y-46384D01*
X74734Y-46215D02*
X75184Y-46215D01*
X74565Y-46384D02*
X74734Y-46215D01*
X77750Y-46215D02*
X79165Y-46215D01*
X75184Y-46215D02*
X77750Y-46215D01*
X82050Y-46550D02*
X83000Y-47500D01*
X79165Y-46215D02*
X79500Y-46550D01*
X79500Y-46550D02*
X82050Y-46550D01*
X73612Y-46812D02*
X73865Y-46812D01*
X74368Y-47013D02*
X74565Y-46815D01*
X74066Y-47013D02*
X74368Y-47013D01*
X73865Y-46812D02*
X74066Y-47013D01*
X82000Y-43150D02*
X82000Y-43000D01*
X82450Y-43600D02*
X82000Y-43150D01*
X80750Y-48300D02*
X80750Y-48294D01*
X80755Y-48294D02*
X80750Y-48300D01*
X81394Y-48294D02*
X80755Y-48294D01*
X81500Y-48400D02*
X81394Y-48294D01*
X81334Y-48294D02*
X80750Y-48294D01*
X81334Y-48294D02*
X81334Y-48294D01*
X80750Y-48294D02*
X76760Y-48294D01*
X73913Y-48385D02*
X73612Y-48385D01*
X74019Y-48490D02*
X73913Y-48385D01*
X74231Y-48490D02*
X74019Y-48490D01*
X74352Y-48610D02*
X74231Y-48490D01*
X76444Y-48610D02*
X74352Y-48610D01*
X76760Y-48294D02*
X76444Y-48610D01*
X81000Y-43100D02*
X81000Y-43000D01*
X81500Y-43600D02*
X81000Y-43100D01*
X79050Y-48420D02*
X76812Y-48420D01*
X76812Y-48420D02*
X76496Y-48737D01*
X76496Y-48737D02*
X74300Y-48737D01*
X74300Y-48737D02*
X74179Y-48616D01*
X74179Y-48616D02*
X73899Y-48616D01*
X73899Y-48616D02*
X73865Y-48582D01*
X73612Y-48582D02*
X73865Y-48582D01*
X79330Y-48700D02*
X79050Y-48420D01*
X79450Y-48700D02*
X79330Y-48700D01*
X79450Y-50150D02*
X81300Y-50150D01*
X81300Y-50150D02*
X81547Y-49902D01*
X83200Y-43600D02*
X83000Y-43600D01*
X83400Y-43800D02*
X83200Y-43600D01*
X83000Y-43600D02*
X83000Y-43000D01*
X76300Y-49550D02*
X77050Y-49550D01*
X77050Y-49550D02*
X77650Y-50150D01*
X76200Y-49483D02*
X76233Y-49483D01*
X76200Y-49483D02*
X76100Y-49483D01*
X73003Y-49483D02*
X73000Y-49480D01*
X76100Y-49483D02*
X73003Y-49483D01*
X76233Y-49483D02*
X76300Y-49550D01*
X73000Y-49480D02*
X73000Y-49450D01*
X73000Y-49450D02*
X73000Y-49480D01*
X83605Y-49500D02*
X83202Y-49902D01*
X84000Y-49500D02*
X83605Y-49500D01*
X83202Y-49902D02*
X81547Y-49902D01*
X77650Y-50150D02*
X79450Y-50150D01*
X72885Y-49112D02*
X72885Y-49365D01*
X73000Y-49480D02*
X72885Y-49365D01*
X71705Y-49112D02*
X71705Y-48860D01*
X73413Y-49100D02*
X73978Y-49100D01*
X73173Y-48860D02*
X73413Y-49100D01*
X71705Y-48860D02*
X73173Y-48860D01*
X73310Y-45614D02*
X73310Y-45658D01*
X73310Y-45658D02*
X73082Y-45887D01*
X63600Y-44625D02*
X63600Y-44200D01*
X63600Y-44200D02*
X63600Y-43600D01*
X63600Y-43600D02*
X63000Y-43000D01*
X63700Y-45900D02*
X63600Y-45800D01*
X63600Y-45800D02*
X63300Y-45800D01*
X63300Y-45800D02*
X63200Y-45700D01*
X63200Y-45700D02*
X63200Y-45025D01*
X63200Y-45025D02*
X62800Y-44625D01*
X62800Y-43800D02*
X62800Y-44625D01*
X62000Y-43000D02*
X62800Y-43800D01*
X73449Y-46417D02*
X73612Y-46417D01*
X72960Y-46906D02*
X73449Y-46417D01*
X72960Y-47401D02*
X72960Y-46906D01*
X72621Y-47741D02*
X72960Y-47401D01*
X72219Y-47741D02*
X72621Y-47741D01*
X72020Y-47542D02*
X72219Y-47741D01*
X71306Y-47542D02*
X72020Y-47542D01*
X76350Y-49400D02*
X77350Y-49400D01*
X77350Y-49400D02*
X77500Y-49550D01*
X73319Y-49350D02*
X73082Y-49113D01*
X76300Y-49350D02*
X73319Y-49350D01*
X76350Y-49400D02*
X76300Y-49350D01*
X67345Y-45516D02*
X66116Y-45516D01*
X65614Y-45014D02*
X65614Y-43785D01*
X66116Y-45516D02*
X65614Y-45014D01*
X67345Y-45516D02*
X68446Y-45516D01*
X68446Y-45516D02*
X70134Y-47205D01*
X70387Y-47205D02*
X70134Y-47205D01*
X74800Y-45750D02*
X74250Y-46300D01*
X74250Y-46300D02*
X74150Y-46300D01*
X73808Y-46132D02*
X73808Y-46132D01*
X73882Y-46132D02*
X73808Y-46132D01*
X74050Y-46300D02*
X73882Y-46132D01*
X74150Y-46300D02*
X74050Y-46300D01*
X66900Y-45100D02*
X68225Y-45100D01*
X68225Y-45100D02*
X68300Y-45174D01*
X70481Y-47009D02*
X70639Y-47009D01*
X70481Y-47009D02*
X70387Y-47009D01*
X70134Y-47009D02*
X68300Y-45174D01*
X70387Y-47009D02*
X70134Y-47009D01*
X73378Y-46132D02*
X73808Y-46132D01*
X72708Y-46802D02*
X73378Y-46132D01*
X72708Y-47297D02*
X72708Y-46802D01*
X72516Y-47489D02*
X72708Y-47297D01*
X72324Y-47489D02*
X72516Y-47489D01*
X71844Y-47009D02*
X72324Y-47489D01*
X70639Y-47009D02*
X71844Y-47009D01*
X78800Y-45750D02*
X79900Y-45750D01*
X80200Y-45950D02*
X80200Y-45963D01*
X80100Y-45950D02*
X80200Y-45950D01*
X79900Y-45750D02*
X80100Y-45950D01*
X74800Y-45750D02*
X78800Y-45750D01*
X80521Y-45963D02*
X80816Y-45667D01*
X80200Y-45963D02*
X80521Y-45963D01*
X80825Y-45000D02*
X80825Y-45369D01*
X80816Y-45378D02*
X80825Y-45369D01*
X80816Y-45667D02*
X80816Y-45378D01*
X72687Y-49365D02*
X72687Y-49112D01*
X72687Y-49365D02*
X72961Y-49638D01*
X72961Y-49638D02*
X76052Y-49638D01*
X76052Y-49638D02*
X76129Y-49716D01*
X76716Y-49716D02*
X76129Y-49716D01*
X76850Y-49850D02*
X76716Y-49716D01*
X61000Y-44800D02*
X61100Y-44900D01*
X61000Y-43000D02*
X61000Y-44800D01*
X72490Y-49493D02*
X72329Y-49654D01*
X72490Y-49493D02*
X72490Y-49112D01*
X75350Y-43350D02*
X75000Y-43000D01*
X75350Y-43800D02*
X75350Y-43350D01*
X75500Y-43950D02*
X75350Y-43800D01*
X77200Y-48775D02*
X76825Y-48775D01*
X76825Y-48775D02*
X76599Y-49000D01*
X74384Y-49000D02*
X74384Y-49000D01*
X71564Y-48608D02*
X71312Y-48860D01*
X73277Y-48608D02*
X71564Y-48608D01*
X73411Y-48742D02*
X73277Y-48608D01*
X74127Y-48742D02*
X73411Y-48742D01*
X74384Y-49000D02*
X74127Y-48742D01*
X71312Y-49112D02*
X71312Y-48860D01*
X76599Y-49000D02*
X74385Y-49000D01*
X74385Y-49000D02*
X74384Y-49000D01*
X77200Y-48775D02*
X77569Y-48775D01*
X77594Y-48800D02*
X78800Y-48800D01*
X77569Y-48775D02*
X77594Y-48800D01*
X76775Y-46625D02*
X76600Y-46800D01*
X76775Y-46625D02*
X77200Y-46625D01*
X74000Y-43200D02*
X74000Y-43000D01*
X74500Y-43700D02*
X74000Y-43200D01*
X71115Y-49112D02*
X71115Y-48860D01*
X71398Y-48577D02*
X71115Y-48860D01*
X71398Y-48014D02*
X71398Y-48577D01*
X71398Y-48014D02*
X71398Y-48014D01*
X77744Y-46800D02*
X77569Y-46625D01*
X78800Y-46800D02*
X77744Y-46800D01*
X77200Y-46625D02*
X77569Y-46625D01*
X70971Y-49601D02*
X71058Y-49601D01*
X70773Y-49403D02*
X70971Y-49601D01*
X70773Y-48766D02*
X70773Y-49403D01*
X71002Y-48537D02*
X70773Y-48766D01*
X71002Y-48041D02*
X71002Y-48537D01*
X70792Y-47832D02*
X71002Y-48041D01*
X70676Y-47832D02*
X70792Y-47832D01*
X70639Y-47795D02*
X70676Y-47832D01*
X70387Y-47795D02*
X70639Y-47795D01*
X67361Y-44038D02*
X66838Y-44038D01*
X66838Y-44038D02*
X66600Y-43800D01*
X70134Y-46812D02*
X67361Y-44038D01*
X70387Y-46812D02*
X70134Y-46812D01*
X67550Y-44049D02*
X67550Y-43850D01*
X67550Y-43850D02*
X67400Y-43700D01*
X70387Y-46615D02*
X70116Y-46615D01*
X70116Y-46615D02*
X67550Y-44049D01*
X77850Y-45384D02*
X78215Y-45384D01*
X78215Y-45384D02*
X78550Y-45050D01*
X72490Y-45887D02*
X72490Y-45634D01*
X73640Y-45384D02*
X77850Y-45384D01*
X73434Y-45178D02*
X73640Y-45384D01*
X72637Y-45178D02*
X73434Y-45178D01*
X72490Y-45324D02*
X72637Y-45178D01*
X72490Y-45634D02*
X72490Y-45324D01*
X70387Y-48385D02*
X70085Y-48385D01*
X70085Y-48385D02*
X69900Y-48200D01*
X70387Y-46418D02*
X70097Y-46418D01*
X68000Y-44320D02*
X68000Y-43600D01*
X70097Y-46418D02*
X68000Y-44320D01*
X68000Y-43000D02*
X68000Y-43600D01*
X72732Y-45590D02*
X72732Y-45411D01*
X72687Y-45634D02*
X72732Y-45590D01*
X72687Y-45887D02*
X72687Y-45634D01*
X72597Y-43597D02*
X72732Y-43597D01*
X72000Y-43000D02*
X72597Y-43597D01*
X73000Y-43100D02*
X73000Y-43000D01*
X73400Y-43500D02*
X73000Y-43100D01*
X70387Y-48187D02*
X70639Y-48187D01*
X70691Y-48187D02*
X70746Y-48132D01*
X70639Y-48187D02*
X70691Y-48187D01*
X69300Y-44500D02*
X68950Y-44500D01*
X68950Y-44500D02*
X68550Y-44100D01*
X70918Y-45887D02*
X70687Y-45887D01*
X70687Y-45887D02*
X69300Y-44500D01*
X79350Y-44000D02*
X78500Y-44000D01*
X71200Y-43578D02*
X70321Y-43578D01*
X77800Y-44000D02*
X78500Y-44000D01*
X73000Y-44000D02*
X73200Y-44000D01*
X72600Y-44000D02*
X73000Y-44000D01*
X72178Y-43578D02*
X72600Y-44000D01*
X71200Y-43578D02*
X72178Y-43578D01*
X73500Y-44000D02*
X73200Y-44000D01*
X74000Y-43900D02*
X73800Y-43900D01*
X74100Y-44000D02*
X74000Y-43900D01*
X73600Y-43900D02*
X73800Y-43900D01*
X73500Y-44000D02*
X73600Y-43900D01*
X76800Y-44200D02*
X77600Y-44200D01*
X74300Y-44200D02*
X74800Y-44200D01*
X77600Y-44200D02*
X77800Y-44000D01*
X74100Y-44000D02*
X74300Y-44200D01*
X74900Y-44200D02*
X75300Y-44600D01*
X75300Y-44600D02*
X76400Y-44600D01*
X76400Y-44600D02*
X76800Y-44200D01*
X74800Y-44200D02*
X74900Y-44200D01*
X70321Y-43578D02*
X70050Y-43850D01*
X80085Y-45369D02*
X79975Y-45369D01*
X80383Y-45667D02*
X80085Y-45369D01*
X79975Y-45000D02*
X79975Y-45369D01*
X72885Y-45887D02*
X72885Y-45634D01*
X79750Y-45593D02*
X79975Y-45369D01*
X73671Y-45593D02*
X79750Y-45593D01*
X73447Y-45369D02*
X73671Y-45593D01*
X73150Y-45369D02*
X73447Y-45369D01*
X72885Y-45634D02*
X73150Y-45369D01*
X75400Y-47500D02*
X75150Y-47500D01*
X75052Y-47597D02*
X74043Y-47597D01*
X75150Y-47500D02*
X75052Y-47597D01*
X75425Y-48200D02*
X75425Y-47525D01*
X75425Y-47525D02*
X75400Y-47500D01*
X67184Y-49000D02*
X67200Y-49015D01*
X65000Y-49000D02*
X67184Y-49000D01*
X75619Y-47280D02*
X75400Y-47500D01*
X75619Y-47280D02*
X75794Y-47105D01*
X75794Y-47105D02*
X77569Y-47105D01*
X77569Y-47105D02*
X78358Y-47894D01*
X78358Y-47894D02*
X83188Y-47894D01*
X83188Y-47894D02*
X83605Y-47478D01*
X83605Y-47478D02*
X83605Y-47311D01*
X83605Y-47311D02*
X84022Y-46894D01*
X84022Y-46894D02*
X84400Y-46894D01*
X84730Y-46894D02*
X85000Y-46625D01*
X84400Y-46894D02*
X84730Y-46894D01*
X65000Y-49000D02*
X65000Y-49825D01*
X65000Y-49825D02*
X66000Y-49825D01*
X73612Y-47597D02*
X74043Y-47597D01*
X76000Y-51500D02*
X76000Y-51150D01*
X76000Y-51150D02*
X76350Y-50800D01*
X73612Y-46615D02*
X74035Y-46615D01*
X74035Y-46615D02*
X74191Y-46771D01*
X76000Y-52000D02*
X76000Y-51500D01*
X71100Y-45200D02*
X71100Y-45872D01*
X71100Y-45872D02*
X71115Y-45887D01*
X70281Y-44457D02*
X70281Y-44881D01*
X70600Y-45200D02*
X71100Y-45200D01*
X70281Y-44881D02*
X70600Y-45200D01*
X70281Y-44457D02*
X70342Y-44457D01*
X72200Y-44000D02*
X71000Y-44000D01*
X72526Y-44326D02*
X72200Y-44000D01*
X73628Y-44328D02*
X72800Y-44326D01*
X73650Y-44350D02*
X73628Y-44328D01*
X72800Y-44326D02*
X72526Y-44326D01*
X70342Y-44457D02*
X70800Y-44000D01*
X70800Y-44000D02*
X71000Y-44000D01*
X76066Y-47722D02*
X76175Y-47830D01*
X76175Y-48200D02*
X76175Y-47830D01*
X67200Y-47225D02*
X67200Y-46955D01*
X67000Y-46755D02*
X67000Y-46000D01*
X67200Y-46955D02*
X67000Y-46755D01*
X73360Y-47850D02*
X73360Y-47834D01*
X73360Y-47834D02*
X73400Y-47795D01*
X73400Y-47795D02*
X73613Y-47795D01*
X73865Y-47795D02*
X73954Y-47884D01*
X74600Y-47900D02*
X74280Y-47900D01*
X73612Y-47795D02*
X73400Y-47795D01*
X73612Y-47795D02*
X73865Y-47795D01*
X74264Y-47884D02*
X74280Y-47900D01*
X73954Y-47884D02*
X74264Y-47884D01*
X72075Y-48375D02*
X73000Y-48375D01*
X73000Y-48375D02*
X73360Y-48015D01*
X73360Y-48015D02*
X73360Y-47850D01*
X73360Y-47850D02*
X73360Y-47839D01*
X73400Y-47800D02*
X73360Y-47839D01*
X63000Y-49000D02*
X63000Y-49825D01*
X62000Y-49825D02*
X62369Y-49825D01*
X62369Y-49825D02*
X63000Y-49825D01*
X74950Y-51150D02*
X74950Y-50978D01*
X74950Y-50978D02*
X74989Y-50939D01*
X74950Y-51150D02*
X74550Y-51550D01*
X72295Y-45887D02*
X72295Y-45342D01*
X75620Y-50307D02*
X74989Y-50939D01*
X73750Y-45050D02*
X73850Y-45150D01*
X72587Y-45050D02*
X73750Y-45050D01*
X72295Y-45342D02*
X72587Y-45050D01*
X74000Y-51400D02*
X74000Y-52000D01*
X74400Y-51000D02*
X74000Y-51400D01*
X71705Y-45887D02*
X71705Y-46139D01*
X72420Y-46854D02*
X72420Y-47256D01*
X71705Y-46139D02*
X72420Y-46854D01*
X75350Y-50200D02*
X75300Y-50250D01*
X75300Y-50250D02*
X75250Y-50250D01*
X75569Y-49980D02*
X75882Y-49980D01*
X75350Y-50200D02*
X75569Y-49980D01*
X73850Y-50700D02*
X73450Y-51100D01*
X74300Y-50250D02*
X75250Y-50250D01*
X73850Y-50700D02*
X74300Y-50250D01*
X73983Y-44895D02*
X74095Y-44895D01*
X72650Y-44895D02*
X73983Y-44895D01*
X72650Y-44895D02*
X72564Y-44895D01*
X74095Y-44895D02*
X74200Y-45000D01*
X71902Y-45550D02*
X71909Y-45550D01*
X71909Y-45550D02*
X72564Y-44895D01*
X72564Y-44895D02*
X72554Y-44895D01*
X71902Y-45548D02*
X71902Y-45550D01*
X71902Y-45550D02*
X71902Y-45887D01*
X74650Y-46089D02*
X74650Y-46100D01*
X74000Y-46450D02*
X73808Y-46258D01*
X74300Y-46450D02*
X74000Y-46450D01*
X74650Y-46100D02*
X74300Y-46450D01*
X68200Y-48352D02*
X68647Y-48352D01*
X68647Y-48352D02*
X68800Y-48200D01*
X69400Y-49100D02*
X69200Y-49100D01*
X69200Y-49100D02*
X68800Y-48700D01*
X68800Y-48700D02*
X68800Y-48200D01*
X70387Y-48582D02*
X70387Y-48613D01*
X69900Y-49100D02*
X69400Y-49100D01*
X70387Y-48613D02*
X69900Y-49100D01*
X69400Y-47300D02*
X68900Y-47300D01*
X68900Y-47300D02*
X68800Y-47200D01*
X79260Y-46089D02*
X79260Y-46110D01*
X82350Y-46300D02*
X82650Y-46000D01*
X79450Y-46300D02*
X82350Y-46300D01*
X79260Y-46110D02*
X79450Y-46300D01*
X83650Y-46150D02*
X83500Y-46000D01*
X83650Y-46150D02*
X84000Y-46500D01*
X83500Y-46000D02*
X82650Y-46000D01*
X70387Y-47402D02*
X69821Y-47402D01*
X70513Y-47402D02*
X70639Y-47402D01*
X73431Y-46258D02*
X73808Y-46258D01*
X72834Y-46854D02*
X73431Y-46258D01*
X72834Y-47349D02*
X72834Y-46854D01*
X72568Y-47615D02*
X72834Y-47349D01*
X72272Y-47615D02*
X72568Y-47615D01*
X71964Y-47307D02*
X72272Y-47615D01*
X70733Y-47307D02*
X71964Y-47307D01*
X70639Y-47402D02*
X70733Y-47307D01*
X70513Y-47402D02*
X70387Y-47402D01*
X69400Y-47300D02*
X69719Y-47300D01*
X69821Y-47402D02*
X69719Y-47300D01*
X74650Y-46089D02*
X77850Y-46089D01*
X77850Y-46089D02*
X79260Y-46089D01*
X68800Y-47200D02*
X68025Y-47200D01*
X68025Y-47200D02*
X68000Y-47225D01*
X64000Y-49825D02*
X64000Y-49000D01*
X64647Y-48352D02*
X68200Y-48352D01*
X64000Y-49000D02*
X64647Y-48352D01*
X64000Y-52000D02*
X64000Y-50575D01*
G54D10*
G36*
X85385Y-51900D02*
X85369Y-51861D01*
X85369Y-47531D01*
X85369Y-47181D01*
X85355Y-47146D01*
X85328Y-47119D01*
X85293Y-47105D01*
X85256Y-47105D01*
X84706Y-47105D01*
X84671Y-47119D01*
X84644Y-47146D01*
X84630Y-47181D01*
X84630Y-47218D01*
X84630Y-47568D01*
X84644Y-47603D01*
X84671Y-47630D01*
X84706Y-47644D01*
X84743Y-47644D01*
X84874Y-47644D01*
X84874Y-47856D01*
X84745Y-47856D01*
X84710Y-47870D01*
X84683Y-47897D01*
X84669Y-47932D01*
X84669Y-47969D01*
X84669Y-48441D01*
X84683Y-48476D01*
X84710Y-48503D01*
X84745Y-48517D01*
X84782Y-48517D01*
X85254Y-48517D01*
X85289Y-48503D01*
X85316Y-48476D01*
X85330Y-48441D01*
X85330Y-48404D01*
X85330Y-47932D01*
X85316Y-47897D01*
X85289Y-47870D01*
X85254Y-47856D01*
X85217Y-47856D01*
X85125Y-47856D01*
X85125Y-47644D01*
X85293Y-47644D01*
X85328Y-47630D01*
X85355Y-47603D01*
X85369Y-47568D01*
X85369Y-47531D01*
X85369Y-51861D01*
X85334Y-51776D01*
X85223Y-51665D01*
X85078Y-51605D01*
X84921Y-51605D01*
X84776Y-51665D01*
X84665Y-51776D01*
X84605Y-51921D01*
X84605Y-52078D01*
X84665Y-52223D01*
X84776Y-52334D01*
X84900Y-52385D01*
X84099Y-52385D01*
X84223Y-52334D01*
X84334Y-52223D01*
X84394Y-52078D01*
X84394Y-51921D01*
X84394Y-48421D01*
X84334Y-48276D01*
X84223Y-48165D01*
X84078Y-48105D01*
X83921Y-48105D01*
X83776Y-48165D01*
X83665Y-48276D01*
X83605Y-48421D01*
X83605Y-48578D01*
X83665Y-48723D01*
X83776Y-48834D01*
X83921Y-48894D01*
X84078Y-48894D01*
X84223Y-48834D01*
X84334Y-48723D01*
X84394Y-48578D01*
X84394Y-48421D01*
X84394Y-51921D01*
X84334Y-51776D01*
X84223Y-51665D01*
X84078Y-51605D01*
X83921Y-51605D01*
X83776Y-51665D01*
X83665Y-51776D01*
X83605Y-51921D01*
X83605Y-52078D01*
X83665Y-52223D01*
X83776Y-52334D01*
X83900Y-52385D01*
X83099Y-52385D01*
X83223Y-52334D01*
X83334Y-52223D01*
X83394Y-52078D01*
X83394Y-51921D01*
X83334Y-51776D01*
X83223Y-51665D01*
X83078Y-51605D01*
X82921Y-51605D01*
X82776Y-51665D01*
X82665Y-51776D01*
X82605Y-51921D01*
X82605Y-52078D01*
X82665Y-52223D01*
X82776Y-52334D01*
X82900Y-52385D01*
X82099Y-52385D01*
X82223Y-52334D01*
X82334Y-52223D01*
X82394Y-52078D01*
X82394Y-51921D01*
X82334Y-51776D01*
X82223Y-51665D01*
X82078Y-51605D01*
X81921Y-51605D01*
X81776Y-51665D01*
X81665Y-51776D01*
X81605Y-51921D01*
X81605Y-52078D01*
X81665Y-52223D01*
X81776Y-52334D01*
X81900Y-52385D01*
X81099Y-52385D01*
X81223Y-52334D01*
X81334Y-52223D01*
X81394Y-52078D01*
X81394Y-51921D01*
X81334Y-51776D01*
X81223Y-51665D01*
X81078Y-51605D01*
X80921Y-51605D01*
X80776Y-51665D01*
X80665Y-51776D01*
X80605Y-51921D01*
X80605Y-52078D01*
X80665Y-52223D01*
X80776Y-52334D01*
X80900Y-52385D01*
X80099Y-52385D01*
X80223Y-52334D01*
X80334Y-52223D01*
X80394Y-52078D01*
X80394Y-51921D01*
X80334Y-51776D01*
X80223Y-51665D01*
X80078Y-51605D01*
X79921Y-51605D01*
X79776Y-51665D01*
X79665Y-51776D01*
X79605Y-51921D01*
X79605Y-52078D01*
X79665Y-52223D01*
X79776Y-52334D01*
X79900Y-52385D01*
X79099Y-52385D01*
X79223Y-52334D01*
X79334Y-52223D01*
X79394Y-52078D01*
X79394Y-51921D01*
X79334Y-51776D01*
X79223Y-51665D01*
X79078Y-51605D01*
X78921Y-51605D01*
X78776Y-51665D01*
X78665Y-51776D01*
X78605Y-51921D01*
X78605Y-52078D01*
X78665Y-52223D01*
X78776Y-52334D01*
X78900Y-52385D01*
X78099Y-52385D01*
X78223Y-52334D01*
X78334Y-52223D01*
X78394Y-52078D01*
X78394Y-51921D01*
X78334Y-51776D01*
X78223Y-51665D01*
X78078Y-51605D01*
X77921Y-51605D01*
X77776Y-51665D01*
X77665Y-51776D01*
X77605Y-51921D01*
X77605Y-52078D01*
X77665Y-52223D01*
X77776Y-52334D01*
X77900Y-52385D01*
X77099Y-52385D01*
X77223Y-52334D01*
X77334Y-52223D01*
X77394Y-52078D01*
X77394Y-51921D01*
X77334Y-51776D01*
X77223Y-51665D01*
X77078Y-51605D01*
X76921Y-51605D01*
X76776Y-51665D01*
X76665Y-51776D01*
X76605Y-51921D01*
X76605Y-52078D01*
X76665Y-52223D01*
X76776Y-52334D01*
X76900Y-52385D01*
X76099Y-52385D01*
X76223Y-52334D01*
X76334Y-52223D01*
X76394Y-52078D01*
X76394Y-51921D01*
X76334Y-51776D01*
X76223Y-51665D01*
X76125Y-51625D01*
X76125Y-51500D01*
X76125Y-51202D01*
X76298Y-51029D01*
X76303Y-51032D01*
X76396Y-51032D01*
X76481Y-50997D01*
X76546Y-50931D01*
X76582Y-50846D01*
X76582Y-50753D01*
X76547Y-50668D01*
X76481Y-50603D01*
X76396Y-50567D01*
X76303Y-50567D01*
X76218Y-50602D01*
X76153Y-50668D01*
X76117Y-50753D01*
X76117Y-50846D01*
X76120Y-50851D01*
X75910Y-51060D01*
X75883Y-51101D01*
X75874Y-51150D01*
X75874Y-51500D01*
X75874Y-51625D01*
X75776Y-51665D01*
X75665Y-51776D01*
X75605Y-51921D01*
X75605Y-52078D01*
X75665Y-52223D01*
X75776Y-52334D01*
X75900Y-52385D01*
X75099Y-52385D01*
X75223Y-52334D01*
X75334Y-52223D01*
X75394Y-52078D01*
X75394Y-51921D01*
X75334Y-51776D01*
X75223Y-51665D01*
X75078Y-51605D01*
X74921Y-51605D01*
X74776Y-51665D01*
X74665Y-51776D01*
X74605Y-51921D01*
X74605Y-52078D01*
X74665Y-52223D01*
X74776Y-52334D01*
X74900Y-52385D01*
X74099Y-52385D01*
X74223Y-52334D01*
X74334Y-52223D01*
X74394Y-52078D01*
X74394Y-51921D01*
X74334Y-51776D01*
X74223Y-51665D01*
X74125Y-51625D01*
X74125Y-51452D01*
X74348Y-51229D01*
X74353Y-51232D01*
X74446Y-51232D01*
X74531Y-51197D01*
X74596Y-51131D01*
X74632Y-51046D01*
X74632Y-50953D01*
X74597Y-50868D01*
X74531Y-50803D01*
X74446Y-50767D01*
X74353Y-50767D01*
X74268Y-50802D01*
X74203Y-50868D01*
X74167Y-50953D01*
X74167Y-51046D01*
X74170Y-51051D01*
X73910Y-51310D01*
X73883Y-51351D01*
X73874Y-51400D01*
X73874Y-51625D01*
X73776Y-51665D01*
X73665Y-51776D01*
X73605Y-51921D01*
X73605Y-52078D01*
X73665Y-52223D01*
X73776Y-52334D01*
X73900Y-52385D01*
X73099Y-52385D01*
X73223Y-52334D01*
X73334Y-52223D01*
X73394Y-52078D01*
X73394Y-51921D01*
X73334Y-51776D01*
X73223Y-51665D01*
X73078Y-51605D01*
X72921Y-51605D01*
X72776Y-51665D01*
X72665Y-51776D01*
X72605Y-51921D01*
X72605Y-52078D01*
X72665Y-52223D01*
X72776Y-52334D01*
X72900Y-52385D01*
X72099Y-52385D01*
X72223Y-52334D01*
X72334Y-52223D01*
X72394Y-52078D01*
X72394Y-51921D01*
X72334Y-51776D01*
X72223Y-51665D01*
X72078Y-51605D01*
X71921Y-51605D01*
X71776Y-51665D01*
X71665Y-51776D01*
X71605Y-51921D01*
X71605Y-52078D01*
X71665Y-52223D01*
X71776Y-52334D01*
X71900Y-52385D01*
X71099Y-52385D01*
X71223Y-52334D01*
X71334Y-52223D01*
X71394Y-52078D01*
X71394Y-51921D01*
X71334Y-51776D01*
X71293Y-51735D01*
X71448Y-51579D01*
X71453Y-51582D01*
X71546Y-51582D01*
X71631Y-51547D01*
X71696Y-51481D01*
X71732Y-51396D01*
X71732Y-51303D01*
X71697Y-51218D01*
X71631Y-51153D01*
X71546Y-51117D01*
X71453Y-51117D01*
X71368Y-51152D01*
X71303Y-51218D01*
X71267Y-51303D01*
X71267Y-51396D01*
X71270Y-51401D01*
X71066Y-51605D01*
X70921Y-51605D01*
X70776Y-51665D01*
X70665Y-51776D01*
X70605Y-51921D01*
X70605Y-52078D01*
X70665Y-52223D01*
X70776Y-52334D01*
X70900Y-52385D01*
X70099Y-52385D01*
X70223Y-52334D01*
X70334Y-52223D01*
X70394Y-52078D01*
X70394Y-51921D01*
X70334Y-51776D01*
X70317Y-51760D01*
X70448Y-51629D01*
X70453Y-51632D01*
X70546Y-51632D01*
X70631Y-51597D01*
X70696Y-51531D01*
X70732Y-51446D01*
X70732Y-51353D01*
X70697Y-51268D01*
X70631Y-51203D01*
X70546Y-51167D01*
X70453Y-51167D01*
X70368Y-51202D01*
X70303Y-51268D01*
X70267Y-51353D01*
X70267Y-51446D01*
X70270Y-51451D01*
X70105Y-51616D01*
X70078Y-51605D01*
X69921Y-51605D01*
X69776Y-51665D01*
X69665Y-51776D01*
X69605Y-51921D01*
X69605Y-52078D01*
X69665Y-52223D01*
X69776Y-52334D01*
X69900Y-52385D01*
X69099Y-52385D01*
X69223Y-52334D01*
X69334Y-52223D01*
X69394Y-52078D01*
X69394Y-51921D01*
X69334Y-51776D01*
X69223Y-51665D01*
X69078Y-51605D01*
X68921Y-51605D01*
X68776Y-51665D01*
X68665Y-51776D01*
X68605Y-51921D01*
X68605Y-52078D01*
X68665Y-52223D01*
X68776Y-52334D01*
X68900Y-52385D01*
X68099Y-52385D01*
X68223Y-52334D01*
X68334Y-52223D01*
X68394Y-52078D01*
X68394Y-51921D01*
X68334Y-51776D01*
X68223Y-51665D01*
X68078Y-51605D01*
X67921Y-51605D01*
X67776Y-51665D01*
X67665Y-51776D01*
X67605Y-51921D01*
X67605Y-52078D01*
X67665Y-52223D01*
X67776Y-52334D01*
X67900Y-52385D01*
X67099Y-52385D01*
X67223Y-52334D01*
X67334Y-52223D01*
X67394Y-52078D01*
X67394Y-51921D01*
X67334Y-51776D01*
X67223Y-51665D01*
X67078Y-51605D01*
X66921Y-51605D01*
X66776Y-51665D01*
X66665Y-51776D01*
X66605Y-51921D01*
X66605Y-52078D01*
X66665Y-52223D01*
X66776Y-52334D01*
X66900Y-52385D01*
X66099Y-52385D01*
X66223Y-52334D01*
X66334Y-52223D01*
X66394Y-52078D01*
X66394Y-51921D01*
X66334Y-51776D01*
X66223Y-51665D01*
X66078Y-51605D01*
X65921Y-51605D01*
X65776Y-51665D01*
X65665Y-51776D01*
X65605Y-51921D01*
X65605Y-52078D01*
X65665Y-52223D01*
X65776Y-52334D01*
X65900Y-52385D01*
X65099Y-52385D01*
X65223Y-52334D01*
X65334Y-52223D01*
X65394Y-52078D01*
X65394Y-51921D01*
X65334Y-51776D01*
X65223Y-51665D01*
X65125Y-51625D01*
X65125Y-50844D01*
X65293Y-50844D01*
X65328Y-50830D01*
X65355Y-50803D01*
X65369Y-50768D01*
X65369Y-50731D01*
X65369Y-50381D01*
X65355Y-50346D01*
X65328Y-50319D01*
X65293Y-50305D01*
X65256Y-50305D01*
X64706Y-50305D01*
X64671Y-50319D01*
X64644Y-50346D01*
X64630Y-50381D01*
X64630Y-50418D01*
X64630Y-50768D01*
X64644Y-50803D01*
X64671Y-50830D01*
X64706Y-50844D01*
X64743Y-50844D01*
X64874Y-50844D01*
X64874Y-51625D01*
X64776Y-51665D01*
X64665Y-51776D01*
X64605Y-51921D01*
X64605Y-52078D01*
X64665Y-52223D01*
X64776Y-52334D01*
X64900Y-52385D01*
X64099Y-52385D01*
X64223Y-52334D01*
X64334Y-52223D01*
X64394Y-52078D01*
X64394Y-51921D01*
X64334Y-51776D01*
X64223Y-51665D01*
X64125Y-51625D01*
X64125Y-50844D01*
X64293Y-50844D01*
X64328Y-50830D01*
X64355Y-50803D01*
X64369Y-50768D01*
X64369Y-50731D01*
X64369Y-50381D01*
X64355Y-50346D01*
X64328Y-50319D01*
X64293Y-50305D01*
X64256Y-50305D01*
X63706Y-50305D01*
X63671Y-50319D01*
X63644Y-50346D01*
X63630Y-50381D01*
X63630Y-50418D01*
X63630Y-50768D01*
X63644Y-50803D01*
X63671Y-50830D01*
X63706Y-50844D01*
X63743Y-50844D01*
X63874Y-50844D01*
X63874Y-51625D01*
X63776Y-51665D01*
X63665Y-51776D01*
X63605Y-51921D01*
X63605Y-52078D01*
X63665Y-52223D01*
X63776Y-52334D01*
X63900Y-52385D01*
X63099Y-52385D01*
X63223Y-52334D01*
X63334Y-52223D01*
X63394Y-52078D01*
X63394Y-51921D01*
X63394Y-48921D01*
X63334Y-48776D01*
X63223Y-48665D01*
X63078Y-48605D01*
X62921Y-48605D01*
X62776Y-48665D01*
X62665Y-48776D01*
X62605Y-48921D01*
X62605Y-49078D01*
X62665Y-49223D01*
X62776Y-49334D01*
X62874Y-49374D01*
X62874Y-49555D01*
X62706Y-49555D01*
X62671Y-49569D01*
X62644Y-49596D01*
X62630Y-49631D01*
X62630Y-49668D01*
X62630Y-49699D01*
X62483Y-49699D01*
X62483Y-49113D01*
X62483Y-48288D01*
X62468Y-48254D01*
X62442Y-48227D01*
X62407Y-48213D01*
X62369Y-48212D01*
X61740Y-48212D01*
X61706Y-48227D01*
X61679Y-48253D01*
X61665Y-48288D01*
X61664Y-48326D01*
X61664Y-49151D01*
X61679Y-49185D01*
X61705Y-49212D01*
X61740Y-49226D01*
X61778Y-49227D01*
X62407Y-49227D01*
X62441Y-49212D01*
X62468Y-49186D01*
X62482Y-49151D01*
X62483Y-49113D01*
X62483Y-49699D01*
X62369Y-49699D01*
X62369Y-49699D01*
X62369Y-49631D01*
X62355Y-49596D01*
X62328Y-49569D01*
X62293Y-49555D01*
X62256Y-49555D01*
X61706Y-49555D01*
X61671Y-49569D01*
X61644Y-49596D01*
X61630Y-49631D01*
X61630Y-49668D01*
X61630Y-50018D01*
X61644Y-50053D01*
X61671Y-50080D01*
X61706Y-50094D01*
X61743Y-50094D01*
X62293Y-50094D01*
X62328Y-50080D01*
X62355Y-50053D01*
X62369Y-50018D01*
X62369Y-49981D01*
X62369Y-49950D01*
X62369Y-49950D01*
X62630Y-49950D01*
X62630Y-50018D01*
X62644Y-50053D01*
X62671Y-50080D01*
X62706Y-50094D01*
X62743Y-50094D01*
X63293Y-50094D01*
X63328Y-50080D01*
X63355Y-50053D01*
X63369Y-50018D01*
X63369Y-49981D01*
X63369Y-49631D01*
X63355Y-49596D01*
X63328Y-49569D01*
X63293Y-49555D01*
X63256Y-49555D01*
X63125Y-49555D01*
X63125Y-49374D01*
X63223Y-49334D01*
X63334Y-49223D01*
X63394Y-49078D01*
X63394Y-48921D01*
X63394Y-51921D01*
X63334Y-51776D01*
X63223Y-51665D01*
X63125Y-51625D01*
X63125Y-50844D01*
X63293Y-50844D01*
X63328Y-50830D01*
X63355Y-50803D01*
X63369Y-50768D01*
X63369Y-50731D01*
X63369Y-50381D01*
X63355Y-50346D01*
X63328Y-50319D01*
X63293Y-50305D01*
X63256Y-50305D01*
X62706Y-50305D01*
X62671Y-50319D01*
X62644Y-50346D01*
X62630Y-50381D01*
X62630Y-50418D01*
X62630Y-50768D01*
X62644Y-50803D01*
X62671Y-50830D01*
X62706Y-50844D01*
X62743Y-50844D01*
X62874Y-50844D01*
X62874Y-51625D01*
X62776Y-51665D01*
X62665Y-51776D01*
X62605Y-51921D01*
X62605Y-52078D01*
X62665Y-52223D01*
X62776Y-52334D01*
X62900Y-52385D01*
X61339Y-52385D01*
X61353Y-52380D01*
X61380Y-52353D01*
X61394Y-52318D01*
X61394Y-52281D01*
X61394Y-51681D01*
X61380Y-51646D01*
X61353Y-51619D01*
X61318Y-51605D01*
X61281Y-51605D01*
X60681Y-51605D01*
X60646Y-51619D01*
X60619Y-51646D01*
X60614Y-51660D01*
X60614Y-49397D01*
X60616Y-49402D01*
X60642Y-49429D01*
X60677Y-49443D01*
X60715Y-49444D01*
X61462Y-49444D01*
X61496Y-49429D01*
X61523Y-49403D01*
X61537Y-49368D01*
X61538Y-49330D01*
X61538Y-48623D01*
X61523Y-48589D01*
X61497Y-48562D01*
X61462Y-48548D01*
X61424Y-48547D01*
X60677Y-48547D01*
X60643Y-48562D01*
X60616Y-48588D01*
X60614Y-48594D01*
X60614Y-48394D01*
X60616Y-48399D01*
X60642Y-48426D01*
X60677Y-48440D01*
X60715Y-48440D01*
X61462Y-48440D01*
X61496Y-48426D01*
X61523Y-48399D01*
X61537Y-48364D01*
X61538Y-48327D01*
X61538Y-47579D01*
X61523Y-47544D01*
X61497Y-47517D01*
X61462Y-47503D01*
X61424Y-47503D01*
X60677Y-47503D01*
X60643Y-47517D01*
X60616Y-47544D01*
X60614Y-47549D01*
X60614Y-47449D01*
X60616Y-47454D01*
X60642Y-47481D01*
X60677Y-47495D01*
X60715Y-47496D01*
X61462Y-47496D01*
X61496Y-47481D01*
X61523Y-47455D01*
X61537Y-47420D01*
X61538Y-47382D01*
X61538Y-46635D01*
X61523Y-46601D01*
X61497Y-46574D01*
X61462Y-46560D01*
X61424Y-46559D01*
X60677Y-46559D01*
X60643Y-46574D01*
X60616Y-46600D01*
X60614Y-46606D01*
X60614Y-46405D01*
X60616Y-46410D01*
X60642Y-46437D01*
X60677Y-46451D01*
X60715Y-46452D01*
X61462Y-46452D01*
X61496Y-46437D01*
X61523Y-46411D01*
X61537Y-46376D01*
X61538Y-46338D01*
X61538Y-45631D01*
X61523Y-45597D01*
X61497Y-45570D01*
X61462Y-45556D01*
X61424Y-45555D01*
X60677Y-45555D01*
X60643Y-45570D01*
X60616Y-45596D01*
X60614Y-45602D01*
X60614Y-43339D01*
X60619Y-43353D01*
X60646Y-43380D01*
X60681Y-43394D01*
X60718Y-43394D01*
X60874Y-43394D01*
X60874Y-44800D01*
X60879Y-44826D01*
X60867Y-44853D01*
X60867Y-44946D01*
X60902Y-45031D01*
X60968Y-45096D01*
X61053Y-45132D01*
X61146Y-45132D01*
X61231Y-45097D01*
X61296Y-45031D01*
X61332Y-44946D01*
X61332Y-44853D01*
X61297Y-44768D01*
X61231Y-44703D01*
X61146Y-44667D01*
X61125Y-44667D01*
X61125Y-43394D01*
X61318Y-43394D01*
X61353Y-43380D01*
X61380Y-43353D01*
X61394Y-43318D01*
X61394Y-43281D01*
X61394Y-42681D01*
X61380Y-42646D01*
X61353Y-42619D01*
X61339Y-42614D01*
X61900Y-42614D01*
X61776Y-42665D01*
X61665Y-42776D01*
X61605Y-42921D01*
X61605Y-43078D01*
X61665Y-43223D01*
X61776Y-43334D01*
X61921Y-43394D01*
X62078Y-43394D01*
X62175Y-43354D01*
X62674Y-43852D01*
X62674Y-44355D01*
X62506Y-44355D01*
X62471Y-44369D01*
X62444Y-44396D01*
X62430Y-44431D01*
X62430Y-44468D01*
X62430Y-44818D01*
X62444Y-44853D01*
X62471Y-44880D01*
X62506Y-44894D01*
X62543Y-44894D01*
X62891Y-44894D01*
X63074Y-45077D01*
X63074Y-45105D01*
X63056Y-45105D01*
X62696Y-45105D01*
X62330Y-44739D01*
X62330Y-44332D01*
X62316Y-44297D01*
X62289Y-44270D01*
X62254Y-44256D01*
X62217Y-44256D01*
X61745Y-44256D01*
X61710Y-44270D01*
X61683Y-44297D01*
X61669Y-44332D01*
X61669Y-44369D01*
X61669Y-44841D01*
X61683Y-44876D01*
X61710Y-44903D01*
X61745Y-44917D01*
X61782Y-44917D01*
X62152Y-44917D01*
X62430Y-45195D01*
X62430Y-45218D01*
X62430Y-45568D01*
X62444Y-45603D01*
X62471Y-45630D01*
X62506Y-45644D01*
X62543Y-45644D01*
X63074Y-45644D01*
X63074Y-45700D01*
X63083Y-45748D01*
X63110Y-45789D01*
X63210Y-45889D01*
X63251Y-45916D01*
X63251Y-45916D01*
X63300Y-45925D01*
X63467Y-45925D01*
X63467Y-45946D01*
X63502Y-46031D01*
X63568Y-46096D01*
X63653Y-46132D01*
X63746Y-46132D01*
X63831Y-46097D01*
X63896Y-46031D01*
X63932Y-45946D01*
X63932Y-45853D01*
X63897Y-45768D01*
X63831Y-45703D01*
X63746Y-45667D01*
X63653Y-45667D01*
X63626Y-45679D01*
X63600Y-45674D01*
X63352Y-45674D01*
X63325Y-45647D01*
X63325Y-45644D01*
X63343Y-45644D01*
X63893Y-45644D01*
X63928Y-45630D01*
X63955Y-45603D01*
X63969Y-45568D01*
X63969Y-45531D01*
X63969Y-45195D01*
X64247Y-44917D01*
X64654Y-44917D01*
X64689Y-44903D01*
X64716Y-44876D01*
X64730Y-44841D01*
X64730Y-44804D01*
X64730Y-44332D01*
X64716Y-44297D01*
X64689Y-44270D01*
X64654Y-44256D01*
X64617Y-44256D01*
X64145Y-44256D01*
X64110Y-44270D01*
X64083Y-44297D01*
X64069Y-44332D01*
X64069Y-44369D01*
X64069Y-44739D01*
X63703Y-45105D01*
X63325Y-45105D01*
X63325Y-45025D01*
X63325Y-45024D01*
X63316Y-44976D01*
X63289Y-44935D01*
X63289Y-44935D01*
X63169Y-44816D01*
X63169Y-44781D01*
X63169Y-44431D01*
X63155Y-44396D01*
X63128Y-44369D01*
X63093Y-44355D01*
X63056Y-44355D01*
X62925Y-44355D01*
X62925Y-43800D01*
X62925Y-43799D01*
X62916Y-43751D01*
X62889Y-43710D01*
X62889Y-43710D01*
X62354Y-43175D01*
X62394Y-43078D01*
X62394Y-42921D01*
X62334Y-42776D01*
X62223Y-42665D01*
X62099Y-42614D01*
X62900Y-42614D01*
X62776Y-42665D01*
X62665Y-42776D01*
X62605Y-42921D01*
X62605Y-43078D01*
X62665Y-43223D01*
X62776Y-43334D01*
X62921Y-43394D01*
X63078Y-43394D01*
X63175Y-43354D01*
X63474Y-43652D01*
X63474Y-44000D01*
X63468Y-44002D01*
X63403Y-44068D01*
X63367Y-44153D01*
X63367Y-44246D01*
X63402Y-44331D01*
X63427Y-44355D01*
X63306Y-44355D01*
X63271Y-44369D01*
X63244Y-44396D01*
X63230Y-44431D01*
X63230Y-44468D01*
X63230Y-44818D01*
X63244Y-44853D01*
X63271Y-44880D01*
X63306Y-44894D01*
X63343Y-44894D01*
X63893Y-44894D01*
X63928Y-44880D01*
X63955Y-44853D01*
X63969Y-44818D01*
X63969Y-44781D01*
X63969Y-44431D01*
X63955Y-44396D01*
X63928Y-44369D01*
X63893Y-44355D01*
X63856Y-44355D01*
X63773Y-44355D01*
X63796Y-44331D01*
X63832Y-44246D01*
X63832Y-44153D01*
X63797Y-44068D01*
X63731Y-44003D01*
X63725Y-44000D01*
X63725Y-43600D01*
X63716Y-43551D01*
X63716Y-43551D01*
X63702Y-43531D01*
X63689Y-43510D01*
X63689Y-43510D01*
X63354Y-43175D01*
X63394Y-43078D01*
X63394Y-42921D01*
X63334Y-42776D01*
X63223Y-42665D01*
X63099Y-42614D01*
X63900Y-42614D01*
X63776Y-42665D01*
X63665Y-42776D01*
X63605Y-42921D01*
X63605Y-43078D01*
X63665Y-43223D01*
X63776Y-43334D01*
X63921Y-43394D01*
X64078Y-43394D01*
X64223Y-43334D01*
X64334Y-43223D01*
X64394Y-43078D01*
X64394Y-42921D01*
X64334Y-42776D01*
X64223Y-42665D01*
X64099Y-42614D01*
X64900Y-42614D01*
X64776Y-42665D01*
X64665Y-42776D01*
X64605Y-42921D01*
X64605Y-43078D01*
X64665Y-43223D01*
X64776Y-43334D01*
X64921Y-43394D01*
X65078Y-43394D01*
X65223Y-43334D01*
X65334Y-43223D01*
X65394Y-43078D01*
X65394Y-42921D01*
X65334Y-42776D01*
X65223Y-42665D01*
X65099Y-42614D01*
X65900Y-42614D01*
X65776Y-42665D01*
X65665Y-42776D01*
X65605Y-42921D01*
X65605Y-43078D01*
X65665Y-43223D01*
X65776Y-43334D01*
X65921Y-43394D01*
X66078Y-43394D01*
X66223Y-43334D01*
X66334Y-43223D01*
X66394Y-43078D01*
X66394Y-42921D01*
X66334Y-42776D01*
X66223Y-42665D01*
X66099Y-42614D01*
X66900Y-42614D01*
X66776Y-42665D01*
X66665Y-42776D01*
X66605Y-42921D01*
X66605Y-43078D01*
X66665Y-43223D01*
X66776Y-43334D01*
X66921Y-43394D01*
X67078Y-43394D01*
X67223Y-43334D01*
X67334Y-43223D01*
X67394Y-43078D01*
X67394Y-42921D01*
X67334Y-42776D01*
X67223Y-42665D01*
X67099Y-42614D01*
X67900Y-42614D01*
X67776Y-42665D01*
X67665Y-42776D01*
X67605Y-42921D01*
X67605Y-43078D01*
X67665Y-43223D01*
X67776Y-43334D01*
X67874Y-43374D01*
X67874Y-43600D01*
X67874Y-44194D01*
X67676Y-43997D01*
X67676Y-43850D01*
X67666Y-43802D01*
X67639Y-43761D01*
X67639Y-43761D01*
X67629Y-43751D01*
X67632Y-43746D01*
X67632Y-43653D01*
X67597Y-43568D01*
X67531Y-43503D01*
X67446Y-43467D01*
X67353Y-43467D01*
X67268Y-43502D01*
X67203Y-43568D01*
X67167Y-43653D01*
X67167Y-43746D01*
X67202Y-43831D01*
X67268Y-43896D01*
X67306Y-43912D01*
X66890Y-43912D01*
X66829Y-43851D01*
X66832Y-43846D01*
X66832Y-43753D01*
X66797Y-43668D01*
X66731Y-43603D01*
X66646Y-43567D01*
X66553Y-43567D01*
X66468Y-43602D01*
X66403Y-43668D01*
X66367Y-43753D01*
X66367Y-43846D01*
X66402Y-43931D01*
X66468Y-43996D01*
X66553Y-44032D01*
X66646Y-44032D01*
X66651Y-44029D01*
X66749Y-44127D01*
X66749Y-44127D01*
X66790Y-44154D01*
X66838Y-44164D01*
X66838Y-44164D01*
X67309Y-44164D01*
X68118Y-44974D01*
X67099Y-44974D01*
X67097Y-44968D01*
X67031Y-44903D01*
X66946Y-44867D01*
X66853Y-44867D01*
X66768Y-44902D01*
X66703Y-44968D01*
X66667Y-45053D01*
X66667Y-45146D01*
X66702Y-45231D01*
X66768Y-45296D01*
X66853Y-45332D01*
X66946Y-45332D01*
X67031Y-45297D01*
X67096Y-45231D01*
X67099Y-45225D01*
X68173Y-45225D01*
X68210Y-45263D01*
X68338Y-45390D01*
X67345Y-45390D01*
X66168Y-45390D01*
X65740Y-44962D01*
X65740Y-43984D01*
X65745Y-43982D01*
X65811Y-43917D01*
X65846Y-43832D01*
X65846Y-43739D01*
X65811Y-43654D01*
X65746Y-43588D01*
X65660Y-43553D01*
X65568Y-43553D01*
X65482Y-43588D01*
X65417Y-43653D01*
X65382Y-43739D01*
X65382Y-43831D01*
X65417Y-43917D01*
X65482Y-43982D01*
X65488Y-43984D01*
X65488Y-45014D01*
X65497Y-45062D01*
X65525Y-45103D01*
X66027Y-45605D01*
X66068Y-45632D01*
X66068Y-45632D01*
X66116Y-45642D01*
X66832Y-45642D01*
X66776Y-45665D01*
X66665Y-45776D01*
X66605Y-45921D01*
X66605Y-46078D01*
X66665Y-46223D01*
X66776Y-46334D01*
X66874Y-46374D01*
X66874Y-46755D01*
X66883Y-46803D01*
X66910Y-46844D01*
X67021Y-46955D01*
X66906Y-46955D01*
X66871Y-46969D01*
X66844Y-46996D01*
X66830Y-47031D01*
X66830Y-47068D01*
X66830Y-47418D01*
X66844Y-47453D01*
X66871Y-47480D01*
X66906Y-47494D01*
X66943Y-47494D01*
X67493Y-47494D01*
X67528Y-47480D01*
X67555Y-47453D01*
X67569Y-47418D01*
X67569Y-47381D01*
X67569Y-47031D01*
X67555Y-46996D01*
X67528Y-46969D01*
X67493Y-46955D01*
X67456Y-46955D01*
X67325Y-46955D01*
X67325Y-46955D01*
X67316Y-46907D01*
X67289Y-46866D01*
X67289Y-46866D01*
X67125Y-46703D01*
X67125Y-46374D01*
X67223Y-46334D01*
X67334Y-46223D01*
X67394Y-46078D01*
X67394Y-45921D01*
X67334Y-45776D01*
X67223Y-45665D01*
X67167Y-45642D01*
X67345Y-45642D01*
X67623Y-45642D01*
X67619Y-45646D01*
X67605Y-45681D01*
X67605Y-45718D01*
X67605Y-46318D01*
X67619Y-46353D01*
X67646Y-46380D01*
X67681Y-46394D01*
X67718Y-46394D01*
X68318Y-46394D01*
X68353Y-46380D01*
X68380Y-46353D01*
X68394Y-46318D01*
X68394Y-46281D01*
X68394Y-45681D01*
X68380Y-45646D01*
X68376Y-45642D01*
X68394Y-45642D01*
X70027Y-47276D01*
X69873Y-47276D01*
X69808Y-47210D01*
X69767Y-47183D01*
X69719Y-47174D01*
X69719Y-47174D01*
X69719Y-47156D01*
X69705Y-47121D01*
X69678Y-47094D01*
X69643Y-47080D01*
X69606Y-47080D01*
X69156Y-47080D01*
X69121Y-47094D01*
X69094Y-47121D01*
X69080Y-47156D01*
X69080Y-47174D01*
X69032Y-47174D01*
X69032Y-47153D01*
X68997Y-47068D01*
X68931Y-47003D01*
X68846Y-46967D01*
X68753Y-46967D01*
X68668Y-47002D01*
X68603Y-47068D01*
X68600Y-47074D01*
X68369Y-47074D01*
X68369Y-47031D01*
X68355Y-46996D01*
X68328Y-46969D01*
X68293Y-46955D01*
X68256Y-46955D01*
X67706Y-46955D01*
X67671Y-46969D01*
X67644Y-46996D01*
X67630Y-47031D01*
X67630Y-47068D01*
X67630Y-47418D01*
X67644Y-47453D01*
X67671Y-47480D01*
X67706Y-47494D01*
X67743Y-47494D01*
X68293Y-47494D01*
X68328Y-47480D01*
X68355Y-47453D01*
X68369Y-47418D01*
X68369Y-47381D01*
X68369Y-47325D01*
X68600Y-47325D01*
X68602Y-47331D01*
X68668Y-47396D01*
X68753Y-47432D01*
X68846Y-47432D01*
X68873Y-47420D01*
X68900Y-47425D01*
X69080Y-47425D01*
X69080Y-47443D01*
X69094Y-47478D01*
X69121Y-47505D01*
X69156Y-47519D01*
X69193Y-47519D01*
X69643Y-47519D01*
X69678Y-47505D01*
X69705Y-47478D01*
X69709Y-47468D01*
X69732Y-47491D01*
X69732Y-47491D01*
X69773Y-47518D01*
X69821Y-47527D01*
X69821Y-47527D01*
X70172Y-47527D01*
X70175Y-47531D01*
X70210Y-47545D01*
X70248Y-47545D01*
X70563Y-47545D01*
X70597Y-47531D01*
X70601Y-47527D01*
X70639Y-47527D01*
X70687Y-47518D01*
X70687Y-47518D01*
X70728Y-47491D01*
X70785Y-47433D01*
X71099Y-47433D01*
X71073Y-47495D01*
X71073Y-47588D01*
X71109Y-47673D01*
X71174Y-47739D01*
X71259Y-47774D01*
X71352Y-47774D01*
X71437Y-47739D01*
X71502Y-47674D01*
X71505Y-47668D01*
X71968Y-47668D01*
X72130Y-47830D01*
X72130Y-47830D01*
X72171Y-47857D01*
X72219Y-47867D01*
X72219Y-47867D01*
X72355Y-47867D01*
X72330Y-47927D01*
X72330Y-48019D01*
X72365Y-48105D01*
X72431Y-48170D01*
X72516Y-48205D01*
X72608Y-48206D01*
X72694Y-48170D01*
X72747Y-48117D01*
X72782Y-48152D01*
X72867Y-48187D01*
X72960Y-48187D01*
X73045Y-48152D01*
X73110Y-48086D01*
X73146Y-48001D01*
X73146Y-47909D01*
X73111Y-47823D01*
X73092Y-47804D01*
X73301Y-47595D01*
X73329Y-47554D01*
X73329Y-47554D01*
X73338Y-47506D01*
X73338Y-47506D01*
X73338Y-47405D01*
X73407Y-47336D01*
X73436Y-47348D01*
X73474Y-47348D01*
X73789Y-47348D01*
X73823Y-47334D01*
X73850Y-47307D01*
X73864Y-47272D01*
X73865Y-47235D01*
X73865Y-47137D01*
X73852Y-47107D01*
X73864Y-47077D01*
X73865Y-47039D01*
X73865Y-46990D01*
X73977Y-47102D01*
X73977Y-47102D01*
X74017Y-47129D01*
X74066Y-47139D01*
X74066Y-47139D01*
X74368Y-47139D01*
X74417Y-47129D01*
X74417Y-47129D01*
X74457Y-47102D01*
X74655Y-46905D01*
X74655Y-46905D01*
X74682Y-46864D01*
X74691Y-46815D01*
X74691Y-46815D01*
X74691Y-46436D01*
X74786Y-46341D01*
X75184Y-46341D01*
X77750Y-46341D01*
X79113Y-46341D01*
X79410Y-46639D01*
X79410Y-46639D01*
X79451Y-46666D01*
X79499Y-46675D01*
X79500Y-46675D01*
X81997Y-46675D01*
X82645Y-47324D01*
X82605Y-47421D01*
X82605Y-47578D01*
X82665Y-47723D01*
X82710Y-47768D01*
X78411Y-47768D01*
X77658Y-47016D01*
X77617Y-46988D01*
X77569Y-46979D01*
X76749Y-46979D01*
X76796Y-46931D01*
X76832Y-46846D01*
X76832Y-46822D01*
X76844Y-46853D01*
X76871Y-46880D01*
X76906Y-46894D01*
X76943Y-46894D01*
X77493Y-46894D01*
X77528Y-46880D01*
X77555Y-46853D01*
X77569Y-46818D01*
X77569Y-46803D01*
X77655Y-46889D01*
X77655Y-46889D01*
X77696Y-46916D01*
X77744Y-46925D01*
X77744Y-46925D01*
X78446Y-46925D01*
X78482Y-47011D01*
X78587Y-47117D01*
X78725Y-47174D01*
X78874Y-47174D01*
X79011Y-47117D01*
X79117Y-47012D01*
X79174Y-46874D01*
X79174Y-46725D01*
X79117Y-46588D01*
X79012Y-46482D01*
X78874Y-46425D01*
X78725Y-46425D01*
X78588Y-46482D01*
X78482Y-46587D01*
X78446Y-46674D01*
X77796Y-46674D01*
X77658Y-46535D01*
X77617Y-46508D01*
X77569Y-46499D01*
X77569Y-46499D01*
X77569Y-46431D01*
X77555Y-46396D01*
X77528Y-46369D01*
X77493Y-46355D01*
X77456Y-46355D01*
X76906Y-46355D01*
X76871Y-46369D01*
X76844Y-46396D01*
X76830Y-46431D01*
X76830Y-46468D01*
X76830Y-46499D01*
X76775Y-46499D01*
X76726Y-46508D01*
X76685Y-46535D01*
X76651Y-46570D01*
X76646Y-46567D01*
X76553Y-46567D01*
X76468Y-46602D01*
X76403Y-46668D01*
X76367Y-46753D01*
X76367Y-46846D01*
X76402Y-46931D01*
X76450Y-46979D01*
X75794Y-46979D01*
X75746Y-46988D01*
X75705Y-47016D01*
X75530Y-47191D01*
X75441Y-47280D01*
X75156Y-47280D01*
X75121Y-47294D01*
X75094Y-47321D01*
X75080Y-47356D01*
X75080Y-47393D01*
X75080Y-47397D01*
X75060Y-47410D01*
X74999Y-47472D01*
X74242Y-47472D01*
X74240Y-47466D01*
X74174Y-47401D01*
X74089Y-47365D01*
X73997Y-47365D01*
X73911Y-47400D01*
X73846Y-47466D01*
X73843Y-47472D01*
X73827Y-47472D01*
X73824Y-47468D01*
X73789Y-47454D01*
X73751Y-47454D01*
X73436Y-47454D01*
X73402Y-47468D01*
X73375Y-47495D01*
X73361Y-47530D01*
X73360Y-47567D01*
X73360Y-47665D01*
X73365Y-47675D01*
X73351Y-47678D01*
X73310Y-47705D01*
X73271Y-47745D01*
X73244Y-47785D01*
X73234Y-47834D01*
X73234Y-47839D01*
X73234Y-47850D01*
X73234Y-47963D01*
X72948Y-48249D01*
X72274Y-48249D01*
X72272Y-48244D01*
X72206Y-48179D01*
X72121Y-48143D01*
X72029Y-48143D01*
X71943Y-48178D01*
X71878Y-48244D01*
X71842Y-48329D01*
X71842Y-48421D01*
X71867Y-48482D01*
X71564Y-48482D01*
X71524Y-48490D01*
X71524Y-48213D01*
X71529Y-48211D01*
X71595Y-48146D01*
X71630Y-48061D01*
X71630Y-47968D01*
X71595Y-47883D01*
X71530Y-47817D01*
X71444Y-47782D01*
X71352Y-47782D01*
X71266Y-47817D01*
X71201Y-47882D01*
X71166Y-47968D01*
X71166Y-48060D01*
X71201Y-48146D01*
X71266Y-48211D01*
X71272Y-48213D01*
X71272Y-48525D01*
X71025Y-48771D01*
X70998Y-48812D01*
X70989Y-48860D01*
X70989Y-48898D01*
X70985Y-48901D01*
X70971Y-48936D01*
X70970Y-48974D01*
X70970Y-49289D01*
X70985Y-49323D01*
X71011Y-49350D01*
X71046Y-49364D01*
X71084Y-49365D01*
X71183Y-49365D01*
X71213Y-49352D01*
X71243Y-49364D01*
X71281Y-49365D01*
X71380Y-49365D01*
X71410Y-49352D01*
X71440Y-49364D01*
X71478Y-49365D01*
X71577Y-49365D01*
X71607Y-49352D01*
X71637Y-49364D01*
X71674Y-49365D01*
X71723Y-49365D01*
X71290Y-49798D01*
X71290Y-49555D01*
X71255Y-49470D01*
X71190Y-49404D01*
X71104Y-49369D01*
X71012Y-49369D01*
X70945Y-49396D01*
X70899Y-49351D01*
X70899Y-48818D01*
X71091Y-48626D01*
X71091Y-48626D01*
X71118Y-48585D01*
X71128Y-48537D01*
X71128Y-48537D01*
X71128Y-48041D01*
X71118Y-47993D01*
X71118Y-47993D01*
X71091Y-47952D01*
X70881Y-47742D01*
X70841Y-47715D01*
X70792Y-47706D01*
X70728Y-47706D01*
X70728Y-47705D01*
X70687Y-47678D01*
X70639Y-47669D01*
X70601Y-47669D01*
X70598Y-47665D01*
X70563Y-47651D01*
X70525Y-47651D01*
X70210Y-47651D01*
X70176Y-47665D01*
X70149Y-47692D01*
X70135Y-47727D01*
X70134Y-47764D01*
X70134Y-47862D01*
X70149Y-47897D01*
X70175Y-47924D01*
X70210Y-47938D01*
X70248Y-47938D01*
X70563Y-47938D01*
X70594Y-47925D01*
X70612Y-47938D01*
X70550Y-48001D01*
X70532Y-48044D01*
X70525Y-48043D01*
X70210Y-48043D01*
X70176Y-48058D01*
X70149Y-48084D01*
X70135Y-48119D01*
X70134Y-48157D01*
X70134Y-48256D01*
X70135Y-48257D01*
X70129Y-48251D01*
X70132Y-48246D01*
X70132Y-48153D01*
X70097Y-48068D01*
X70031Y-48003D01*
X69946Y-47967D01*
X69853Y-47967D01*
X69768Y-48002D01*
X69703Y-48068D01*
X69667Y-48153D01*
X69667Y-48246D01*
X69702Y-48331D01*
X69768Y-48396D01*
X69853Y-48432D01*
X69946Y-48432D01*
X69951Y-48429D01*
X69995Y-48474D01*
X69995Y-48474D01*
X70036Y-48501D01*
X70084Y-48510D01*
X70085Y-48510D01*
X70136Y-48510D01*
X70135Y-48514D01*
X70134Y-48551D01*
X70134Y-48649D01*
X70145Y-48675D01*
X69847Y-48974D01*
X69719Y-48974D01*
X69719Y-48956D01*
X69705Y-48921D01*
X69678Y-48894D01*
X69643Y-48880D01*
X69606Y-48880D01*
X69158Y-48880D01*
X68925Y-48647D01*
X68925Y-48399D01*
X68931Y-48397D01*
X68996Y-48331D01*
X69032Y-48246D01*
X69032Y-48153D01*
X68997Y-48068D01*
X68931Y-48003D01*
X68846Y-47967D01*
X68753Y-47967D01*
X68668Y-48002D01*
X68603Y-48068D01*
X68567Y-48153D01*
X68567Y-48226D01*
X68200Y-48226D01*
X66444Y-48226D01*
X66444Y-46856D01*
X66444Y-46306D01*
X66430Y-46271D01*
X66403Y-46244D01*
X66368Y-46230D01*
X66331Y-46230D01*
X65981Y-46230D01*
X65946Y-46244D01*
X65919Y-46271D01*
X65905Y-46306D01*
X65905Y-46343D01*
X65905Y-46691D01*
X65688Y-46908D01*
X65694Y-46893D01*
X65694Y-46856D01*
X65694Y-46306D01*
X65680Y-46271D01*
X65653Y-46244D01*
X65618Y-46230D01*
X65581Y-46230D01*
X65231Y-46230D01*
X65196Y-46244D01*
X65169Y-46271D01*
X65155Y-46306D01*
X65155Y-46343D01*
X65155Y-46474D01*
X65155Y-46474D01*
X65107Y-46483D01*
X65066Y-46510D01*
X64750Y-46826D01*
X64562Y-46826D01*
X64550Y-46824D01*
X64350Y-46824D01*
X64301Y-46833D01*
X64260Y-46860D01*
X64166Y-46954D01*
X64164Y-46958D01*
X64143Y-46966D01*
X64127Y-46982D01*
X64112Y-46966D01*
X64082Y-46954D01*
X63991Y-46863D01*
X63950Y-46836D01*
X63902Y-46826D01*
X63547Y-46826D01*
X63499Y-46836D01*
X63458Y-46863D01*
X63419Y-46902D01*
X63222Y-46902D01*
X63222Y-46743D01*
X63208Y-46709D01*
X63181Y-46682D01*
X63146Y-46668D01*
X63109Y-46667D01*
X62853Y-46667D01*
X62818Y-46682D01*
X62791Y-46708D01*
X62777Y-46743D01*
X62777Y-46781D01*
X62777Y-46843D01*
X62726Y-46792D01*
X62641Y-46756D01*
X62549Y-46756D01*
X62483Y-46783D01*
X62483Y-46673D01*
X62483Y-45848D01*
X62468Y-45814D01*
X62442Y-45787D01*
X62407Y-45773D01*
X62369Y-45772D01*
X61740Y-45772D01*
X61706Y-45787D01*
X61679Y-45813D01*
X61665Y-45848D01*
X61664Y-45886D01*
X61664Y-46711D01*
X61679Y-46745D01*
X61705Y-46772D01*
X61740Y-46786D01*
X61778Y-46787D01*
X62407Y-46787D01*
X62441Y-46772D01*
X62468Y-46746D01*
X62482Y-46711D01*
X62483Y-46673D01*
X62483Y-46783D01*
X62463Y-46791D01*
X62443Y-46812D01*
X62411Y-46799D01*
X62366Y-46798D01*
X61836Y-46798D01*
X61795Y-46815D01*
X61764Y-46847D01*
X61747Y-46888D01*
X61747Y-46932D01*
X61747Y-47089D01*
X61758Y-47117D01*
X61747Y-47144D01*
X61747Y-47188D01*
X61747Y-47345D01*
X61758Y-47372D01*
X61747Y-47399D01*
X61747Y-47443D01*
X61747Y-47600D01*
X61758Y-47627D01*
X61747Y-47654D01*
X61747Y-47698D01*
X61747Y-47855D01*
X61764Y-47896D01*
X61795Y-47927D01*
X61836Y-47944D01*
X61881Y-47945D01*
X62411Y-47945D01*
X62452Y-47928D01*
X62483Y-47896D01*
X62500Y-47855D01*
X62500Y-47811D01*
X62500Y-47687D01*
X62517Y-47698D01*
X62565Y-47707D01*
X62565Y-47707D01*
X64065Y-47707D01*
X64102Y-47744D01*
X64102Y-47971D01*
X64116Y-48006D01*
X64143Y-48033D01*
X64178Y-48047D01*
X64215Y-48047D01*
X64333Y-48047D01*
X64368Y-48033D01*
X64395Y-48006D01*
X64409Y-47971D01*
X64409Y-47934D01*
X64409Y-47884D01*
X64679Y-47884D01*
X64681Y-47889D01*
X64746Y-47954D01*
X64832Y-47990D01*
X64924Y-47990D01*
X65010Y-47955D01*
X65075Y-47889D01*
X65110Y-47804D01*
X65111Y-47721D01*
X65132Y-47730D01*
X65169Y-47730D01*
X65641Y-47730D01*
X65676Y-47716D01*
X65703Y-47689D01*
X65717Y-47654D01*
X65717Y-47617D01*
X65717Y-47235D01*
X65983Y-46969D01*
X66018Y-46969D01*
X66368Y-46969D01*
X66403Y-46955D01*
X66430Y-46928D01*
X66444Y-46893D01*
X66444Y-46856D01*
X66444Y-48226D01*
X64647Y-48226D01*
X64599Y-48236D01*
X64558Y-48263D01*
X64175Y-48645D01*
X64078Y-48605D01*
X63921Y-48605D01*
X63776Y-48665D01*
X63665Y-48776D01*
X63605Y-48921D01*
X63605Y-49078D01*
X63665Y-49223D01*
X63776Y-49334D01*
X63874Y-49374D01*
X63874Y-49555D01*
X63706Y-49555D01*
X63671Y-49569D01*
X63644Y-49596D01*
X63630Y-49631D01*
X63630Y-49668D01*
X63630Y-50018D01*
X63644Y-50053D01*
X63671Y-50080D01*
X63706Y-50094D01*
X63743Y-50094D01*
X64293Y-50094D01*
X64328Y-50080D01*
X64355Y-50053D01*
X64369Y-50018D01*
X64369Y-49981D01*
X64369Y-49631D01*
X64355Y-49596D01*
X64328Y-49569D01*
X64293Y-49555D01*
X64256Y-49555D01*
X64125Y-49555D01*
X64125Y-49374D01*
X64223Y-49334D01*
X64334Y-49223D01*
X64394Y-49078D01*
X64394Y-48921D01*
X64354Y-48824D01*
X64699Y-48478D01*
X68200Y-48478D01*
X68647Y-48478D01*
X68674Y-48473D01*
X68674Y-48700D01*
X68683Y-48748D01*
X68710Y-48789D01*
X69080Y-49158D01*
X69080Y-49243D01*
X69094Y-49278D01*
X69121Y-49305D01*
X69156Y-49319D01*
X69193Y-49319D01*
X69643Y-49319D01*
X69678Y-49305D01*
X69705Y-49278D01*
X69719Y-49243D01*
X69719Y-49225D01*
X69900Y-49225D01*
X69948Y-49216D01*
X69948Y-49216D01*
X69989Y-49189D01*
X70452Y-48725D01*
X70563Y-48725D01*
X70597Y-48711D01*
X70624Y-48684D01*
X70638Y-48649D01*
X70639Y-48612D01*
X70639Y-48514D01*
X70626Y-48483D01*
X70638Y-48453D01*
X70639Y-48415D01*
X70639Y-48339D01*
X70700Y-48364D01*
X70792Y-48365D01*
X70876Y-48330D01*
X70876Y-48485D01*
X70684Y-48677D01*
X70656Y-48718D01*
X70647Y-48766D01*
X70647Y-49403D01*
X70656Y-49451D01*
X70684Y-49492D01*
X70826Y-49634D01*
X70826Y-49647D01*
X70861Y-49732D01*
X70926Y-49798D01*
X71012Y-49833D01*
X71104Y-49833D01*
X71189Y-49798D01*
X71255Y-49733D01*
X71290Y-49647D01*
X71290Y-49555D01*
X71290Y-49798D01*
X71089Y-49999D01*
X67874Y-49999D01*
X67826Y-50008D01*
X67785Y-50035D01*
X67785Y-50035D01*
X67785Y-50035D01*
X67551Y-50270D01*
X67546Y-50267D01*
X67453Y-50267D01*
X67432Y-50276D01*
X67432Y-48969D01*
X67397Y-48884D01*
X67331Y-48819D01*
X67246Y-48783D01*
X67153Y-48783D01*
X67068Y-48818D01*
X67013Y-48874D01*
X65394Y-48874D01*
X65394Y-48681D01*
X65380Y-48646D01*
X65353Y-48619D01*
X65318Y-48605D01*
X65281Y-48605D01*
X64681Y-48605D01*
X64646Y-48619D01*
X64619Y-48646D01*
X64605Y-48681D01*
X64605Y-48718D01*
X64605Y-49318D01*
X64619Y-49353D01*
X64646Y-49380D01*
X64681Y-49394D01*
X64718Y-49394D01*
X64874Y-49394D01*
X64874Y-49555D01*
X64706Y-49555D01*
X64671Y-49569D01*
X64644Y-49596D01*
X64630Y-49631D01*
X64630Y-49668D01*
X64630Y-50018D01*
X64644Y-50053D01*
X64671Y-50080D01*
X64706Y-50094D01*
X64743Y-50094D01*
X65293Y-50094D01*
X65328Y-50080D01*
X65355Y-50053D01*
X65369Y-50018D01*
X65369Y-49981D01*
X65369Y-49950D01*
X65630Y-49950D01*
X65630Y-50018D01*
X65644Y-50053D01*
X65671Y-50080D01*
X65706Y-50094D01*
X65743Y-50094D01*
X66293Y-50094D01*
X66328Y-50080D01*
X66355Y-50053D01*
X66369Y-50018D01*
X66369Y-49981D01*
X66369Y-49631D01*
X66355Y-49596D01*
X66328Y-49569D01*
X66293Y-49555D01*
X66256Y-49555D01*
X65706Y-49555D01*
X65671Y-49569D01*
X65644Y-49596D01*
X65630Y-49631D01*
X65630Y-49668D01*
X65630Y-49699D01*
X65369Y-49699D01*
X65369Y-49631D01*
X65355Y-49596D01*
X65328Y-49569D01*
X65293Y-49555D01*
X65256Y-49555D01*
X65125Y-49555D01*
X65125Y-49394D01*
X65318Y-49394D01*
X65353Y-49380D01*
X65380Y-49353D01*
X65394Y-49318D01*
X65394Y-49281D01*
X65394Y-49125D01*
X66994Y-49125D01*
X67002Y-49147D01*
X67068Y-49212D01*
X67153Y-49248D01*
X67246Y-49248D01*
X67331Y-49212D01*
X67396Y-49147D01*
X67432Y-49062D01*
X67432Y-48969D01*
X67432Y-50276D01*
X67368Y-50302D01*
X67303Y-50368D01*
X67267Y-50453D01*
X67267Y-50546D01*
X67302Y-50631D01*
X67368Y-50696D01*
X67453Y-50732D01*
X67546Y-50732D01*
X67631Y-50697D01*
X67696Y-50631D01*
X67732Y-50546D01*
X67732Y-50453D01*
X67729Y-50448D01*
X67927Y-50251D01*
X69525Y-50251D01*
X69510Y-50260D01*
X69451Y-50320D01*
X69446Y-50317D01*
X69353Y-50317D01*
X69268Y-50352D01*
X69203Y-50418D01*
X69167Y-50503D01*
X69167Y-50596D01*
X69202Y-50681D01*
X69268Y-50746D01*
X69353Y-50782D01*
X69446Y-50782D01*
X69531Y-50747D01*
X69596Y-50681D01*
X69632Y-50596D01*
X69632Y-50503D01*
X69629Y-50498D01*
X69652Y-50475D01*
X69714Y-50475D01*
X69750Y-50483D01*
X70316Y-50483D01*
X70268Y-50502D01*
X70203Y-50568D01*
X70167Y-50653D01*
X70167Y-50746D01*
X70202Y-50831D01*
X70268Y-50896D01*
X70353Y-50932D01*
X70446Y-50932D01*
X70531Y-50897D01*
X70596Y-50831D01*
X70618Y-50778D01*
X71002Y-50778D01*
X71051Y-50769D01*
X71051Y-50769D01*
X71092Y-50742D01*
X72107Y-49726D01*
X72132Y-49786D01*
X72198Y-49851D01*
X72283Y-49887D01*
X72375Y-49887D01*
X72461Y-49851D01*
X72526Y-49786D01*
X72562Y-49701D01*
X72562Y-49608D01*
X72559Y-49602D01*
X72580Y-49582D01*
X72607Y-49541D01*
X72607Y-49541D01*
X72616Y-49493D01*
X72616Y-49472D01*
X72872Y-49727D01*
X72872Y-49727D01*
X72913Y-49754D01*
X72961Y-49764D01*
X75096Y-49764D01*
X75048Y-49812D01*
X75046Y-49818D01*
X74055Y-49818D01*
X74007Y-49827D01*
X73966Y-49855D01*
X73097Y-50724D01*
X72850Y-50724D01*
X72801Y-50733D01*
X72760Y-50760D01*
X72601Y-50920D01*
X72596Y-50917D01*
X72503Y-50917D01*
X72418Y-50952D01*
X72353Y-51018D01*
X72317Y-51103D01*
X72317Y-51196D01*
X72352Y-51281D01*
X72418Y-51346D01*
X72503Y-51382D01*
X72596Y-51382D01*
X72681Y-51347D01*
X72746Y-51281D01*
X72782Y-51196D01*
X72782Y-51103D01*
X72779Y-51098D01*
X72902Y-50975D01*
X73150Y-50975D01*
X73198Y-50966D01*
X73198Y-50966D01*
X73239Y-50939D01*
X74108Y-50070D01*
X75046Y-50070D01*
X75048Y-50075D01*
X75096Y-50124D01*
X74300Y-50124D01*
X74251Y-50133D01*
X74210Y-50160D01*
X73760Y-50610D01*
X73760Y-50610D01*
X73760Y-50610D01*
X73501Y-50870D01*
X73496Y-50867D01*
X73403Y-50867D01*
X73318Y-50902D01*
X73253Y-50968D01*
X73217Y-51053D01*
X73217Y-51146D01*
X73252Y-51231D01*
X73318Y-51296D01*
X73403Y-51332D01*
X73496Y-51332D01*
X73581Y-51297D01*
X73646Y-51231D01*
X73682Y-51146D01*
X73682Y-51053D01*
X73679Y-51048D01*
X73939Y-50789D01*
X73939Y-50789D01*
X73939Y-50789D01*
X74352Y-50375D01*
X75250Y-50375D01*
X75300Y-50375D01*
X75348Y-50366D01*
X75348Y-50366D01*
X75387Y-50339D01*
X75387Y-50353D01*
X75390Y-50359D01*
X74899Y-50849D01*
X74860Y-50888D01*
X74833Y-50929D01*
X74824Y-50978D01*
X74824Y-51097D01*
X74601Y-51320D01*
X74596Y-51317D01*
X74503Y-51317D01*
X74418Y-51352D01*
X74353Y-51418D01*
X74317Y-51503D01*
X74317Y-51596D01*
X74352Y-51681D01*
X74418Y-51746D01*
X74503Y-51782D01*
X74596Y-51782D01*
X74681Y-51747D01*
X74746Y-51681D01*
X74782Y-51596D01*
X74782Y-51503D01*
X74779Y-51498D01*
X75039Y-51239D01*
X75039Y-51239D01*
X75039Y-51239D01*
X75066Y-51198D01*
X75075Y-51150D01*
X75075Y-51150D01*
X75075Y-51030D01*
X75078Y-51028D01*
X75568Y-50537D01*
X75573Y-50540D01*
X75666Y-50540D01*
X75751Y-50504D01*
X75816Y-50439D01*
X75852Y-50354D01*
X75852Y-50261D01*
X75831Y-50211D01*
X75835Y-50213D01*
X75928Y-50213D01*
X76013Y-50178D01*
X76078Y-50112D01*
X76114Y-50027D01*
X76114Y-49934D01*
X76079Y-49849D01*
X76013Y-49784D01*
X75966Y-49764D01*
X75999Y-49764D01*
X76040Y-49805D01*
X76081Y-49832D01*
X76081Y-49832D01*
X76129Y-49842D01*
X76617Y-49842D01*
X76617Y-49896D01*
X76652Y-49981D01*
X76718Y-50046D01*
X76803Y-50082D01*
X76896Y-50082D01*
X76981Y-50047D01*
X77046Y-49981D01*
X77082Y-49896D01*
X77082Y-49803D01*
X77051Y-49729D01*
X77560Y-50239D01*
X77560Y-50239D01*
X77581Y-50252D01*
X77601Y-50266D01*
X77601Y-50266D01*
X77650Y-50275D01*
X79450Y-50275D01*
X81300Y-50275D01*
X81348Y-50266D01*
X81348Y-50266D01*
X81389Y-50239D01*
X81599Y-50028D01*
X83202Y-50028D01*
X83250Y-50019D01*
X83250Y-50019D01*
X83291Y-49991D01*
X83605Y-49678D01*
X83605Y-49818D01*
X83619Y-49853D01*
X83646Y-49880D01*
X83681Y-49894D01*
X83718Y-49894D01*
X84318Y-49894D01*
X84353Y-49880D01*
X84380Y-49853D01*
X84394Y-49818D01*
X84394Y-49781D01*
X84394Y-49181D01*
X84380Y-49146D01*
X84353Y-49119D01*
X84318Y-49105D01*
X84281Y-49105D01*
X83681Y-49105D01*
X83646Y-49119D01*
X83619Y-49146D01*
X83605Y-49181D01*
X83605Y-49218D01*
X83605Y-49374D01*
X83605Y-49374D01*
X83557Y-49383D01*
X83516Y-49410D01*
X83394Y-49532D01*
X83394Y-48421D01*
X83334Y-48276D01*
X83223Y-48165D01*
X83078Y-48105D01*
X82921Y-48105D01*
X82776Y-48165D01*
X82665Y-48276D01*
X82605Y-48421D01*
X82605Y-48578D01*
X82665Y-48723D01*
X82776Y-48834D01*
X82921Y-48894D01*
X83078Y-48894D01*
X83223Y-48834D01*
X83334Y-48723D01*
X83394Y-48578D01*
X83394Y-48421D01*
X83394Y-49532D01*
X83150Y-49776D01*
X81547Y-49776D01*
X81498Y-49786D01*
X81458Y-49813D01*
X81300Y-49971D01*
X81300Y-49779D01*
X81300Y-48598D01*
X81284Y-48558D01*
X81253Y-48527D01*
X81212Y-48510D01*
X81168Y-48510D01*
X79987Y-48510D01*
X79947Y-48526D01*
X79916Y-48557D01*
X79899Y-48598D01*
X79899Y-48642D01*
X79899Y-49823D01*
X79915Y-49863D01*
X79946Y-49894D01*
X79987Y-49911D01*
X80031Y-49911D01*
X81212Y-49911D01*
X81252Y-49895D01*
X81283Y-49864D01*
X81300Y-49823D01*
X81300Y-49779D01*
X81300Y-49971D01*
X81247Y-50024D01*
X79450Y-50024D01*
X77702Y-50024D01*
X77460Y-49782D01*
X77546Y-49782D01*
X77631Y-49747D01*
X77696Y-49681D01*
X77732Y-49596D01*
X77732Y-49503D01*
X77697Y-49418D01*
X77676Y-49397D01*
X77750Y-49397D01*
X77828Y-49397D01*
X77876Y-49388D01*
X77876Y-49388D01*
X77917Y-49360D01*
X78002Y-49275D01*
X78050Y-49275D01*
X78052Y-49281D01*
X78118Y-49346D01*
X78203Y-49382D01*
X78296Y-49382D01*
X78381Y-49347D01*
X78446Y-49281D01*
X78482Y-49196D01*
X78482Y-49103D01*
X78447Y-49018D01*
X78381Y-48953D01*
X78316Y-48925D01*
X78446Y-48925D01*
X78482Y-49011D01*
X78587Y-49117D01*
X78725Y-49174D01*
X78874Y-49174D01*
X79011Y-49117D01*
X79117Y-49012D01*
X79174Y-48874D01*
X79174Y-48725D01*
X79172Y-48720D01*
X79231Y-48779D01*
X79252Y-48831D01*
X79318Y-48896D01*
X79403Y-48932D01*
X79496Y-48932D01*
X79581Y-48897D01*
X79646Y-48831D01*
X79682Y-48746D01*
X79682Y-48653D01*
X79647Y-48568D01*
X79581Y-48503D01*
X79496Y-48467D01*
X79403Y-48467D01*
X79318Y-48502D01*
X79314Y-48506D01*
X79228Y-48420D01*
X80723Y-48420D01*
X80750Y-48425D01*
X80776Y-48420D01*
X81267Y-48420D01*
X81267Y-48446D01*
X81302Y-48531D01*
X81368Y-48596D01*
X81453Y-48632D01*
X81546Y-48632D01*
X81631Y-48597D01*
X81696Y-48531D01*
X81732Y-48446D01*
X81732Y-48353D01*
X81697Y-48268D01*
X81631Y-48203D01*
X81546Y-48167D01*
X81453Y-48167D01*
X81433Y-48176D01*
X81433Y-48176D01*
X81394Y-48168D01*
X81337Y-48168D01*
X81334Y-48168D01*
X81332Y-48168D01*
X80755Y-48168D01*
X80750Y-48168D01*
X76760Y-48168D01*
X76712Y-48178D01*
X76671Y-48205D01*
X76444Y-48432D01*
X76444Y-47906D01*
X76430Y-47871D01*
X76403Y-47844D01*
X76368Y-47830D01*
X76331Y-47830D01*
X76300Y-47830D01*
X76300Y-47830D01*
X76300Y-47830D01*
X76292Y-47785D01*
X76298Y-47768D01*
X76299Y-47676D01*
X76263Y-47590D01*
X76198Y-47525D01*
X76113Y-47489D01*
X76020Y-47489D01*
X75935Y-47525D01*
X75869Y-47590D01*
X75834Y-47675D01*
X75834Y-47768D01*
X75869Y-47853D01*
X75910Y-47894D01*
X75905Y-47906D01*
X75905Y-47943D01*
X75905Y-48484D01*
X75694Y-48484D01*
X75694Y-48456D01*
X75694Y-47906D01*
X75680Y-47871D01*
X75653Y-47844D01*
X75618Y-47830D01*
X75581Y-47830D01*
X75550Y-47830D01*
X75550Y-47719D01*
X75643Y-47719D01*
X75678Y-47705D01*
X75705Y-47678D01*
X75719Y-47643D01*
X75719Y-47606D01*
X75719Y-47358D01*
X75846Y-47231D01*
X77517Y-47231D01*
X78269Y-47983D01*
X78310Y-48011D01*
X78310Y-48011D01*
X78358Y-48020D01*
X83188Y-48020D01*
X83236Y-48011D01*
X83236Y-48011D01*
X83277Y-47983D01*
X83628Y-47633D01*
X83665Y-47723D01*
X83776Y-47834D01*
X83921Y-47894D01*
X84078Y-47894D01*
X84223Y-47834D01*
X84334Y-47723D01*
X84394Y-47578D01*
X84394Y-47421D01*
X84334Y-47276D01*
X84223Y-47165D01*
X84078Y-47105D01*
X83989Y-47105D01*
X84074Y-47020D01*
X84400Y-47020D01*
X84730Y-47020D01*
X84778Y-47011D01*
X84778Y-47011D01*
X84819Y-46983D01*
X84908Y-46894D01*
X85293Y-46894D01*
X85328Y-46880D01*
X85355Y-46853D01*
X85369Y-46818D01*
X85369Y-46781D01*
X85369Y-46431D01*
X85355Y-46396D01*
X85328Y-46369D01*
X85293Y-46355D01*
X85256Y-46355D01*
X84706Y-46355D01*
X84671Y-46369D01*
X84644Y-46396D01*
X84630Y-46431D01*
X84630Y-46468D01*
X84630Y-46768D01*
X84400Y-46768D01*
X84289Y-46768D01*
X84334Y-46723D01*
X84394Y-46578D01*
X84394Y-46421D01*
X84334Y-46276D01*
X84223Y-46165D01*
X84127Y-46125D01*
X84800Y-46125D01*
X84848Y-46116D01*
X84848Y-46116D01*
X84889Y-46089D01*
X85089Y-45889D01*
X85089Y-45889D01*
X85116Y-45848D01*
X85117Y-45844D01*
X85293Y-45844D01*
X85328Y-45830D01*
X85355Y-45803D01*
X85369Y-45768D01*
X85369Y-45731D01*
X85369Y-45381D01*
X85355Y-45346D01*
X85328Y-45319D01*
X85293Y-45305D01*
X85256Y-45305D01*
X84706Y-45305D01*
X84671Y-45319D01*
X84644Y-45346D01*
X84630Y-45381D01*
X84630Y-45418D01*
X84630Y-45768D01*
X84644Y-45803D01*
X84671Y-45830D01*
X84706Y-45844D01*
X84743Y-45844D01*
X84777Y-45844D01*
X84747Y-45874D01*
X84127Y-45874D01*
X84223Y-45834D01*
X84334Y-45723D01*
X84394Y-45578D01*
X84394Y-45421D01*
X84334Y-45276D01*
X84223Y-45165D01*
X84078Y-45105D01*
X83921Y-45105D01*
X83824Y-45145D01*
X82789Y-44110D01*
X82748Y-44083D01*
X82700Y-44074D01*
X81252Y-44074D01*
X80818Y-43639D01*
X80820Y-43634D01*
X80820Y-43542D01*
X80785Y-43456D01*
X80719Y-43391D01*
X80634Y-43355D01*
X80542Y-43355D01*
X80456Y-43391D01*
X80391Y-43456D01*
X80355Y-43541D01*
X80355Y-43634D01*
X80391Y-43719D01*
X80456Y-43784D01*
X80541Y-43820D01*
X80634Y-43820D01*
X80639Y-43818D01*
X81095Y-44274D01*
X79582Y-44274D01*
X79582Y-43953D01*
X79547Y-43868D01*
X79481Y-43803D01*
X79396Y-43767D01*
X79303Y-43767D01*
X79218Y-43802D01*
X79153Y-43868D01*
X79150Y-43874D01*
X78500Y-43874D01*
X77800Y-43874D01*
X77751Y-43883D01*
X77710Y-43910D01*
X77547Y-44074D01*
X76800Y-44074D01*
X76751Y-44083D01*
X76710Y-44110D01*
X76710Y-44110D01*
X76710Y-44110D01*
X76347Y-44474D01*
X75352Y-44474D01*
X74989Y-44110D01*
X74948Y-44083D01*
X74900Y-44074D01*
X74800Y-44074D01*
X74352Y-44074D01*
X74189Y-43910D01*
X74089Y-43810D01*
X74048Y-43783D01*
X74000Y-43774D01*
X73800Y-43774D01*
X73600Y-43774D01*
X73551Y-43783D01*
X73510Y-43810D01*
X73447Y-43874D01*
X73200Y-43874D01*
X73000Y-43874D01*
X72652Y-43874D01*
X72267Y-43489D01*
X72227Y-43462D01*
X72178Y-43452D01*
X71200Y-43452D01*
X70321Y-43452D01*
X70272Y-43462D01*
X70232Y-43489D01*
X70101Y-43620D01*
X70096Y-43617D01*
X70003Y-43617D01*
X69918Y-43652D01*
X69853Y-43718D01*
X69817Y-43803D01*
X69817Y-43896D01*
X69852Y-43981D01*
X69918Y-44046D01*
X70003Y-44082D01*
X70096Y-44082D01*
X70181Y-44047D01*
X70246Y-43981D01*
X70282Y-43896D01*
X70282Y-43803D01*
X70279Y-43798D01*
X70373Y-43704D01*
X71200Y-43704D01*
X72126Y-43704D01*
X72510Y-44089D01*
X72551Y-44116D01*
X72551Y-44116D01*
X72600Y-44125D01*
X73000Y-44125D01*
X73200Y-44125D01*
X73500Y-44125D01*
X73548Y-44116D01*
X73548Y-44116D01*
X73589Y-44089D01*
X73652Y-44025D01*
X73800Y-44025D01*
X73947Y-44025D01*
X74010Y-44089D01*
X74210Y-44289D01*
X74210Y-44289D01*
X74251Y-44316D01*
X74300Y-44325D01*
X74800Y-44325D01*
X74847Y-44325D01*
X75210Y-44689D01*
X75210Y-44689D01*
X75251Y-44716D01*
X75299Y-44725D01*
X75300Y-44725D01*
X76400Y-44725D01*
X76448Y-44716D01*
X76448Y-44716D01*
X76489Y-44689D01*
X76852Y-44325D01*
X77600Y-44325D01*
X77648Y-44316D01*
X77648Y-44316D01*
X77689Y-44289D01*
X77852Y-44125D01*
X78500Y-44125D01*
X79150Y-44125D01*
X79152Y-44131D01*
X79218Y-44196D01*
X79303Y-44232D01*
X79396Y-44232D01*
X79481Y-44197D01*
X79546Y-44131D01*
X79582Y-44046D01*
X79582Y-43953D01*
X79582Y-44274D01*
X77800Y-44274D01*
X77751Y-44283D01*
X77710Y-44310D01*
X77547Y-44474D01*
X76900Y-44474D01*
X76851Y-44483D01*
X76810Y-44510D01*
X76547Y-44774D01*
X75152Y-44774D01*
X74889Y-44510D01*
X74848Y-44483D01*
X74800Y-44474D01*
X74700Y-44474D01*
X74000Y-44474D01*
X73850Y-44474D01*
X73882Y-44396D01*
X73882Y-44303D01*
X73847Y-44218D01*
X73781Y-44153D01*
X73696Y-44117D01*
X73603Y-44117D01*
X73518Y-44152D01*
X73469Y-44202D01*
X72800Y-44200D01*
X72800Y-44200D01*
X72800Y-44200D01*
X72579Y-44200D01*
X72289Y-43910D01*
X72248Y-43883D01*
X72200Y-43874D01*
X71000Y-43874D01*
X70800Y-43874D01*
X70751Y-43883D01*
X70710Y-43910D01*
X70376Y-44245D01*
X70328Y-44225D01*
X70235Y-44225D01*
X70150Y-44260D01*
X70084Y-44325D01*
X70049Y-44411D01*
X70049Y-44503D01*
X70084Y-44589D01*
X70149Y-44654D01*
X70155Y-44656D01*
X70155Y-44881D01*
X70165Y-44929D01*
X70192Y-44970D01*
X70510Y-45289D01*
X70510Y-45289D01*
X70551Y-45316D01*
X70600Y-45325D01*
X70880Y-45325D01*
X70880Y-45443D01*
X70894Y-45478D01*
X70921Y-45505D01*
X70956Y-45519D01*
X70974Y-45519D01*
X70974Y-45635D01*
X70948Y-45634D01*
X70850Y-45634D01*
X70815Y-45649D01*
X70788Y-45675D01*
X70774Y-45710D01*
X70774Y-45748D01*
X70774Y-45761D01*
X70739Y-45761D01*
X69389Y-44410D01*
X69348Y-44383D01*
X69300Y-44374D01*
X69002Y-44374D01*
X68779Y-44151D01*
X68782Y-44146D01*
X68782Y-44053D01*
X68747Y-43968D01*
X68681Y-43903D01*
X68596Y-43867D01*
X68503Y-43867D01*
X68418Y-43902D01*
X68353Y-43968D01*
X68317Y-44053D01*
X68317Y-44146D01*
X68352Y-44231D01*
X68418Y-44296D01*
X68503Y-44332D01*
X68596Y-44332D01*
X68601Y-44329D01*
X68860Y-44589D01*
X68860Y-44589D01*
X68901Y-44616D01*
X68949Y-44625D01*
X68950Y-44625D01*
X69247Y-44625D01*
X70597Y-45976D01*
X70638Y-46003D01*
X70638Y-46003D01*
X70687Y-46012D01*
X70774Y-46012D01*
X70774Y-46063D01*
X70788Y-46097D01*
X70815Y-46124D01*
X70850Y-46138D01*
X70887Y-46139D01*
X70985Y-46139D01*
X71016Y-46126D01*
X71046Y-46138D01*
X71084Y-46139D01*
X71183Y-46139D01*
X71213Y-46126D01*
X71243Y-46138D01*
X71281Y-46139D01*
X71380Y-46139D01*
X71414Y-46124D01*
X71441Y-46098D01*
X71455Y-46063D01*
X71456Y-46025D01*
X71456Y-45722D01*
X71489Y-45689D01*
X71516Y-45648D01*
X71516Y-45648D01*
X71525Y-45600D01*
X71525Y-44900D01*
X71525Y-44899D01*
X71516Y-44851D01*
X71489Y-44810D01*
X71489Y-44810D01*
X71319Y-44641D01*
X71319Y-44558D01*
X71552Y-44325D01*
X72147Y-44325D01*
X72510Y-44689D01*
X72510Y-44689D01*
X72551Y-44716D01*
X72599Y-44725D01*
X72600Y-44725D01*
X74000Y-44725D01*
X74700Y-44725D01*
X74747Y-44725D01*
X75010Y-44989D01*
X75010Y-44989D01*
X75051Y-45016D01*
X75099Y-45025D01*
X75100Y-45025D01*
X76600Y-45025D01*
X76648Y-45016D01*
X76648Y-45016D01*
X76689Y-44989D01*
X76952Y-44725D01*
X77600Y-44725D01*
X77648Y-44716D01*
X77648Y-44716D01*
X77689Y-44689D01*
X77852Y-44525D01*
X82547Y-44525D01*
X83274Y-45252D01*
X83274Y-45600D01*
X83283Y-45648D01*
X83310Y-45689D01*
X83495Y-45874D01*
X82650Y-45874D01*
X82601Y-45883D01*
X82560Y-45910D01*
X82297Y-46174D01*
X79502Y-46174D01*
X79379Y-46050D01*
X79377Y-46041D01*
X79349Y-46000D01*
X79308Y-45972D01*
X79260Y-45963D01*
X77850Y-45963D01*
X74764Y-45963D01*
X74852Y-45875D01*
X78800Y-45875D01*
X79847Y-45875D01*
X80010Y-46039D01*
X80010Y-46039D01*
X80051Y-46066D01*
X80100Y-46075D01*
X80146Y-46075D01*
X80151Y-46079D01*
X80200Y-46089D01*
X80521Y-46089D01*
X80569Y-46079D01*
X80569Y-46079D01*
X80610Y-46052D01*
X80752Y-45909D01*
X80766Y-45915D01*
X80865Y-45915D01*
X80956Y-45878D01*
X81026Y-45808D01*
X81064Y-45717D01*
X81064Y-45618D01*
X81026Y-45527D01*
X80957Y-45457D01*
X80942Y-45451D01*
X80942Y-45412D01*
X80942Y-45412D01*
X80950Y-45369D01*
X80950Y-45369D01*
X80950Y-45369D01*
X81018Y-45369D01*
X81053Y-45355D01*
X81080Y-45328D01*
X81094Y-45293D01*
X81094Y-45256D01*
X81094Y-44706D01*
X81080Y-44671D01*
X81053Y-44644D01*
X81018Y-44630D01*
X80981Y-44630D01*
X80631Y-44630D01*
X80596Y-44644D01*
X80569Y-44671D01*
X80555Y-44706D01*
X80555Y-44743D01*
X80555Y-45293D01*
X80569Y-45328D01*
X80596Y-45355D01*
X80631Y-45369D01*
X80668Y-45369D01*
X80692Y-45369D01*
X80690Y-45378D01*
X80690Y-45451D01*
X80676Y-45457D01*
X80606Y-45527D01*
X80600Y-45542D01*
X80593Y-45527D01*
X80524Y-45457D01*
X80433Y-45419D01*
X80334Y-45419D01*
X80319Y-45425D01*
X80226Y-45332D01*
X80230Y-45328D01*
X80244Y-45293D01*
X80244Y-45256D01*
X80244Y-44706D01*
X80230Y-44671D01*
X80203Y-44644D01*
X80168Y-44630D01*
X80131Y-44630D01*
X79781Y-44630D01*
X79746Y-44644D01*
X79719Y-44671D01*
X79705Y-44706D01*
X79705Y-44743D01*
X79705Y-45293D01*
X79719Y-45328D01*
X79746Y-45355D01*
X79781Y-45369D01*
X79796Y-45369D01*
X79698Y-45467D01*
X78310Y-45467D01*
X78498Y-45279D01*
X78503Y-45282D01*
X78596Y-45282D01*
X78681Y-45247D01*
X78746Y-45181D01*
X78782Y-45096D01*
X78782Y-45003D01*
X78747Y-44918D01*
X78681Y-44853D01*
X78596Y-44817D01*
X78503Y-44817D01*
X78418Y-44852D01*
X78353Y-44918D01*
X78317Y-45003D01*
X78317Y-45096D01*
X78320Y-45101D01*
X78163Y-45258D01*
X77850Y-45258D01*
X74056Y-45258D01*
X74080Y-45201D01*
X74153Y-45232D01*
X74246Y-45232D01*
X74331Y-45197D01*
X74396Y-45131D01*
X74432Y-45046D01*
X74432Y-44953D01*
X74397Y-44868D01*
X74331Y-44803D01*
X74246Y-44767D01*
X74153Y-44767D01*
X74132Y-44776D01*
X74095Y-44769D01*
X73983Y-44769D01*
X72650Y-44769D01*
X72564Y-44769D01*
X72554Y-44769D01*
X72506Y-44778D01*
X72465Y-44806D01*
X72446Y-44834D01*
X71841Y-45439D01*
X71812Y-45458D01*
X71785Y-45499D01*
X71776Y-45548D01*
X71776Y-45550D01*
X71776Y-45636D01*
X71772Y-45635D01*
X71735Y-45634D01*
X71637Y-45634D01*
X71602Y-45649D01*
X71575Y-45675D01*
X71561Y-45710D01*
X71561Y-45748D01*
X71561Y-46063D01*
X71575Y-46097D01*
X71579Y-46101D01*
X71579Y-46139D01*
X71588Y-46187D01*
X71615Y-46228D01*
X72294Y-46906D01*
X72294Y-47057D01*
X72289Y-47059D01*
X72223Y-47124D01*
X72198Y-47185D01*
X71933Y-46919D01*
X71892Y-46892D01*
X71844Y-46883D01*
X70639Y-46883D01*
X70637Y-46883D01*
X70638Y-46880D01*
X70639Y-46842D01*
X70639Y-46743D01*
X70626Y-46713D01*
X70638Y-46683D01*
X70639Y-46645D01*
X70639Y-46546D01*
X70626Y-46516D01*
X70638Y-46485D01*
X70639Y-46448D01*
X70639Y-46350D01*
X70624Y-46315D01*
X70598Y-46288D01*
X70563Y-46274D01*
X70525Y-46274D01*
X70210Y-46274D01*
X70176Y-46288D01*
X70172Y-46292D01*
X70149Y-46292D01*
X68125Y-44268D01*
X68125Y-43600D01*
X68125Y-43374D01*
X68223Y-43334D01*
X68334Y-43223D01*
X68394Y-43078D01*
X68394Y-42921D01*
X68334Y-42776D01*
X68223Y-42665D01*
X68099Y-42614D01*
X68900Y-42614D01*
X68776Y-42665D01*
X68665Y-42776D01*
X68605Y-42921D01*
X68605Y-43078D01*
X68665Y-43223D01*
X68776Y-43334D01*
X68921Y-43394D01*
X69078Y-43394D01*
X69223Y-43334D01*
X69334Y-43223D01*
X69394Y-43078D01*
X69394Y-42921D01*
X69334Y-42776D01*
X69223Y-42665D01*
X69099Y-42614D01*
X69900Y-42614D01*
X69776Y-42665D01*
X69665Y-42776D01*
X69605Y-42921D01*
X69605Y-43078D01*
X69665Y-43223D01*
X69776Y-43334D01*
X69921Y-43394D01*
X70078Y-43394D01*
X70223Y-43334D01*
X70334Y-43223D01*
X70394Y-43078D01*
X70394Y-42921D01*
X70334Y-42776D01*
X70223Y-42665D01*
X70099Y-42614D01*
X70900Y-42614D01*
X70776Y-42665D01*
X70665Y-42776D01*
X70605Y-42921D01*
X70605Y-43078D01*
X70665Y-43223D01*
X70776Y-43334D01*
X70921Y-43394D01*
X71078Y-43394D01*
X71223Y-43334D01*
X71334Y-43223D01*
X71394Y-43078D01*
X71394Y-42921D01*
X71334Y-42776D01*
X71223Y-42665D01*
X71099Y-42614D01*
X71900Y-42614D01*
X71776Y-42665D01*
X71665Y-42776D01*
X71605Y-42921D01*
X71605Y-43078D01*
X71665Y-43223D01*
X71776Y-43334D01*
X71921Y-43394D01*
X72078Y-43394D01*
X72175Y-43354D01*
X72508Y-43686D01*
X72508Y-43686D01*
X72521Y-43695D01*
X72521Y-43695D01*
X72535Y-43729D01*
X72600Y-43794D01*
X72686Y-43829D01*
X72778Y-43829D01*
X72864Y-43794D01*
X72929Y-43729D01*
X72964Y-43644D01*
X72964Y-43551D01*
X72929Y-43466D01*
X72864Y-43400D01*
X72779Y-43365D01*
X72686Y-43365D01*
X72601Y-43400D01*
X72589Y-43411D01*
X72354Y-43175D01*
X72394Y-43078D01*
X72394Y-42921D01*
X72334Y-42776D01*
X72223Y-42665D01*
X72099Y-42614D01*
X72900Y-42614D01*
X72776Y-42665D01*
X72665Y-42776D01*
X72605Y-42921D01*
X72605Y-43078D01*
X72665Y-43223D01*
X72776Y-43334D01*
X72921Y-43394D01*
X73078Y-43394D01*
X73105Y-43383D01*
X73170Y-43448D01*
X73167Y-43453D01*
X73167Y-43546D01*
X73202Y-43631D01*
X73268Y-43696D01*
X73353Y-43732D01*
X73446Y-43732D01*
X73531Y-43697D01*
X73596Y-43631D01*
X73632Y-43546D01*
X73632Y-43453D01*
X73597Y-43368D01*
X73531Y-43303D01*
X73446Y-43267D01*
X73353Y-43267D01*
X73348Y-43270D01*
X73318Y-43239D01*
X73334Y-43223D01*
X73394Y-43078D01*
X73394Y-42921D01*
X73334Y-42776D01*
X73223Y-42665D01*
X73099Y-42614D01*
X73900Y-42614D01*
X73776Y-42665D01*
X73665Y-42776D01*
X73605Y-42921D01*
X73605Y-43078D01*
X73665Y-43223D01*
X73776Y-43334D01*
X73921Y-43394D01*
X74016Y-43394D01*
X74270Y-43648D01*
X74267Y-43653D01*
X74267Y-43746D01*
X74302Y-43831D01*
X74368Y-43896D01*
X74453Y-43932D01*
X74546Y-43932D01*
X74631Y-43897D01*
X74696Y-43831D01*
X74732Y-43746D01*
X74732Y-43653D01*
X74697Y-43568D01*
X74631Y-43503D01*
X74546Y-43467D01*
X74453Y-43467D01*
X74448Y-43470D01*
X74268Y-43289D01*
X74334Y-43223D01*
X74394Y-43078D01*
X74394Y-42921D01*
X74334Y-42776D01*
X74223Y-42665D01*
X74099Y-42614D01*
X74900Y-42614D01*
X74776Y-42665D01*
X74665Y-42776D01*
X74605Y-42921D01*
X74605Y-43078D01*
X74665Y-43223D01*
X74776Y-43334D01*
X74921Y-43394D01*
X75078Y-43394D01*
X75175Y-43354D01*
X75224Y-43402D01*
X75224Y-43800D01*
X75233Y-43848D01*
X75260Y-43889D01*
X75270Y-43898D01*
X75267Y-43903D01*
X75267Y-43996D01*
X75302Y-44081D01*
X75368Y-44146D01*
X75453Y-44182D01*
X75546Y-44182D01*
X75631Y-44147D01*
X75696Y-44081D01*
X75732Y-43996D01*
X75732Y-43903D01*
X75697Y-43818D01*
X75631Y-43753D01*
X75546Y-43717D01*
X75475Y-43717D01*
X75475Y-43350D01*
X75475Y-43349D01*
X75466Y-43301D01*
X75439Y-43260D01*
X75439Y-43260D01*
X75354Y-43175D01*
X75394Y-43078D01*
X75394Y-42921D01*
X75334Y-42776D01*
X75223Y-42665D01*
X75099Y-42614D01*
X75900Y-42614D01*
X75776Y-42665D01*
X75665Y-42776D01*
X75605Y-42921D01*
X75605Y-43078D01*
X75665Y-43223D01*
X75776Y-43334D01*
X75921Y-43394D01*
X76078Y-43394D01*
X76223Y-43334D01*
X76334Y-43223D01*
X76394Y-43078D01*
X76394Y-42921D01*
X76334Y-42776D01*
X76223Y-42665D01*
X76099Y-42614D01*
X76900Y-42614D01*
X76776Y-42665D01*
X76665Y-42776D01*
X76605Y-42921D01*
X76605Y-43078D01*
X76665Y-43223D01*
X76776Y-43334D01*
X76921Y-43394D01*
X77078Y-43394D01*
X77223Y-43334D01*
X77334Y-43223D01*
X77394Y-43078D01*
X77394Y-42921D01*
X77334Y-42776D01*
X77223Y-42665D01*
X77099Y-42614D01*
X77900Y-42614D01*
X77776Y-42665D01*
X77665Y-42776D01*
X77605Y-42921D01*
X77605Y-43078D01*
X77665Y-43223D01*
X77776Y-43334D01*
X77921Y-43394D01*
X78078Y-43394D01*
X78223Y-43334D01*
X78334Y-43223D01*
X78394Y-43078D01*
X78394Y-42921D01*
X78334Y-42776D01*
X78223Y-42665D01*
X78099Y-42614D01*
X78900Y-42614D01*
X78776Y-42665D01*
X78665Y-42776D01*
X78605Y-42921D01*
X78605Y-43078D01*
X78665Y-43223D01*
X78776Y-43334D01*
X78921Y-43394D01*
X79078Y-43394D01*
X79223Y-43334D01*
X79334Y-43223D01*
X79394Y-43078D01*
X79394Y-42921D01*
X79334Y-42776D01*
X79223Y-42665D01*
X79099Y-42614D01*
X79900Y-42614D01*
X79776Y-42665D01*
X79665Y-42776D01*
X79605Y-42921D01*
X79605Y-43078D01*
X79665Y-43223D01*
X79776Y-43334D01*
X79921Y-43394D01*
X80078Y-43394D01*
X80223Y-43334D01*
X80334Y-43223D01*
X80394Y-43078D01*
X80394Y-42921D01*
X80334Y-42776D01*
X80223Y-42665D01*
X80099Y-42614D01*
X80900Y-42614D01*
X80776Y-42665D01*
X80665Y-42776D01*
X80605Y-42921D01*
X80605Y-43078D01*
X80665Y-43223D01*
X80776Y-43334D01*
X80921Y-43394D01*
X81078Y-43394D01*
X81105Y-43383D01*
X81270Y-43548D01*
X81267Y-43553D01*
X81267Y-43646D01*
X81302Y-43731D01*
X81368Y-43796D01*
X81453Y-43832D01*
X81546Y-43832D01*
X81631Y-43797D01*
X81696Y-43731D01*
X81732Y-43646D01*
X81732Y-43553D01*
X81697Y-43468D01*
X81631Y-43403D01*
X81546Y-43367D01*
X81453Y-43367D01*
X81448Y-43370D01*
X81318Y-43239D01*
X81334Y-43223D01*
X81394Y-43078D01*
X81394Y-42921D01*
X81334Y-42776D01*
X81223Y-42665D01*
X81099Y-42614D01*
X81900Y-42614D01*
X81776Y-42665D01*
X81665Y-42776D01*
X81605Y-42921D01*
X81605Y-43078D01*
X81665Y-43223D01*
X81776Y-43334D01*
X81921Y-43394D01*
X82066Y-43394D01*
X82220Y-43548D01*
X82217Y-43553D01*
X82217Y-43646D01*
X82252Y-43731D01*
X82318Y-43796D01*
X82403Y-43832D01*
X82496Y-43832D01*
X82581Y-43797D01*
X82646Y-43731D01*
X82682Y-43646D01*
X82682Y-43553D01*
X82647Y-43468D01*
X82581Y-43403D01*
X82496Y-43367D01*
X82403Y-43367D01*
X82398Y-43370D01*
X82293Y-43264D01*
X82334Y-43223D01*
X82394Y-43078D01*
X82394Y-42921D01*
X82334Y-42776D01*
X82223Y-42665D01*
X82099Y-42614D01*
X82900Y-42614D01*
X82776Y-42665D01*
X82665Y-42776D01*
X82605Y-42921D01*
X82605Y-43078D01*
X82665Y-43223D01*
X82776Y-43334D01*
X82874Y-43374D01*
X82874Y-43600D01*
X82883Y-43648D01*
X82910Y-43689D01*
X82951Y-43716D01*
X83000Y-43725D01*
X83147Y-43725D01*
X83170Y-43748D01*
X83167Y-43753D01*
X83167Y-43846D01*
X83202Y-43931D01*
X83268Y-43996D01*
X83353Y-44032D01*
X83446Y-44032D01*
X83531Y-43997D01*
X83596Y-43931D01*
X83632Y-43846D01*
X83632Y-43753D01*
X83597Y-43668D01*
X83531Y-43603D01*
X83446Y-43567D01*
X83353Y-43567D01*
X83348Y-43570D01*
X83289Y-43510D01*
X83248Y-43483D01*
X83200Y-43474D01*
X83125Y-43474D01*
X83125Y-43374D01*
X83223Y-43334D01*
X83334Y-43223D01*
X83394Y-43078D01*
X83394Y-42921D01*
X83334Y-42776D01*
X83223Y-42665D01*
X83099Y-42614D01*
X83900Y-42614D01*
X83776Y-42665D01*
X83665Y-42776D01*
X83605Y-42921D01*
X83605Y-43078D01*
X83665Y-43223D01*
X83776Y-43334D01*
X83874Y-43374D01*
X83874Y-43980D01*
X83818Y-44002D01*
X83753Y-44068D01*
X83717Y-44153D01*
X83717Y-44246D01*
X83752Y-44331D01*
X83818Y-44396D01*
X83903Y-44432D01*
X83996Y-44432D01*
X84081Y-44397D01*
X84146Y-44331D01*
X84182Y-44246D01*
X84182Y-44153D01*
X84147Y-44068D01*
X84125Y-44047D01*
X84125Y-43374D01*
X84223Y-43334D01*
X84334Y-43223D01*
X84394Y-43078D01*
X84394Y-42921D01*
X84334Y-42776D01*
X84223Y-42665D01*
X84099Y-42614D01*
X84900Y-42614D01*
X84776Y-42665D01*
X84665Y-42776D01*
X84605Y-42921D01*
X84605Y-43078D01*
X84665Y-43223D01*
X84776Y-43334D01*
X84874Y-43374D01*
X84874Y-44555D01*
X84706Y-44555D01*
X84671Y-44569D01*
X84644Y-44596D01*
X84630Y-44631D01*
X84630Y-44668D01*
X84630Y-45018D01*
X84644Y-45053D01*
X84671Y-45080D01*
X84706Y-45094D01*
X84743Y-45094D01*
X85293Y-45094D01*
X85328Y-45080D01*
X85355Y-45053D01*
X85369Y-45018D01*
X85369Y-44981D01*
X85369Y-44631D01*
X85355Y-44596D01*
X85328Y-44569D01*
X85293Y-44555D01*
X85256Y-44555D01*
X85125Y-44555D01*
X85125Y-43374D01*
X85223Y-43334D01*
X85334Y-43223D01*
X85385Y-43099D01*
X85385Y-51900D01*
X85385Y-51900D01*
G37*
G54D32*
X85385Y-51900D02*
X85369Y-51861D01*
X85369Y-47531D01*
X85369Y-47181D01*
X85355Y-47146D01*
X85328Y-47119D01*
X85293Y-47105D01*
X85256Y-47105D01*
X84706Y-47105D01*
X84671Y-47119D01*
X84644Y-47146D01*
X84630Y-47181D01*
X84630Y-47218D01*
X84630Y-47568D01*
X84644Y-47603D01*
X84671Y-47630D01*
X84706Y-47644D01*
X84743Y-47644D01*
X84874Y-47644D01*
X84874Y-47856D01*
X84745Y-47856D01*
X84710Y-47870D01*
X84683Y-47897D01*
X84669Y-47932D01*
X84669Y-47969D01*
X84669Y-48441D01*
X84683Y-48476D01*
X84710Y-48503D01*
X84745Y-48517D01*
X84782Y-48517D01*
X85254Y-48517D01*
X85289Y-48503D01*
X85316Y-48476D01*
X85330Y-48441D01*
X85330Y-48404D01*
X85330Y-47932D01*
X85316Y-47897D01*
X85289Y-47870D01*
X85254Y-47856D01*
X85217Y-47856D01*
X85125Y-47856D01*
X85125Y-47644D01*
X85293Y-47644D01*
X85328Y-47630D01*
X85355Y-47603D01*
X85369Y-47568D01*
X85369Y-47531D01*
X85369Y-51861D01*
X85334Y-51776D01*
X85223Y-51665D01*
X85078Y-51605D01*
X84921Y-51605D01*
X84776Y-51665D01*
X84665Y-51776D01*
X84605Y-51921D01*
X84605Y-52078D01*
X84665Y-52223D01*
X84776Y-52334D01*
X84900Y-52385D01*
X84099Y-52385D01*
X84223Y-52334D01*
X84334Y-52223D01*
X84394Y-52078D01*
X84394Y-51921D01*
X84394Y-48421D01*
X84334Y-48276D01*
X84223Y-48165D01*
X84078Y-48105D01*
X83921Y-48105D01*
X83776Y-48165D01*
X83665Y-48276D01*
X83605Y-48421D01*
X83605Y-48578D01*
X83665Y-48723D01*
X83776Y-48834D01*
X83921Y-48894D01*
X84078Y-48894D01*
X84223Y-48834D01*
X84334Y-48723D01*
X84394Y-48578D01*
X84394Y-48421D01*
X84394Y-51921D01*
X84334Y-51776D01*
X84223Y-51665D01*
X84078Y-51605D01*
X83921Y-51605D01*
X83776Y-51665D01*
X83665Y-51776D01*
X83605Y-51921D01*
X83605Y-52078D01*
X83665Y-52223D01*
X83776Y-52334D01*
X83900Y-52385D01*
X83099Y-52385D01*
X83223Y-52334D01*
X83334Y-52223D01*
X83394Y-52078D01*
X83394Y-51921D01*
X83334Y-51776D01*
X83223Y-51665D01*
X83078Y-51605D01*
X82921Y-51605D01*
X82776Y-51665D01*
X82665Y-51776D01*
X82605Y-51921D01*
X82605Y-52078D01*
X82665Y-52223D01*
X82776Y-52334D01*
X82900Y-52385D01*
X82099Y-52385D01*
X82223Y-52334D01*
X82334Y-52223D01*
X82394Y-52078D01*
X82394Y-51921D01*
X82334Y-51776D01*
X82223Y-51665D01*
X82078Y-51605D01*
X81921Y-51605D01*
X81776Y-51665D01*
X81665Y-51776D01*
X81605Y-51921D01*
X81605Y-52078D01*
X81665Y-52223D01*
X81776Y-52334D01*
X81900Y-52385D01*
X81099Y-52385D01*
X81223Y-52334D01*
X81334Y-52223D01*
X81394Y-52078D01*
X81394Y-51921D01*
X81334Y-51776D01*
X81223Y-51665D01*
X81078Y-51605D01*
X80921Y-51605D01*
X80776Y-51665D01*
X80665Y-51776D01*
X80605Y-51921D01*
X80605Y-52078D01*
X80665Y-52223D01*
X80776Y-52334D01*
X80900Y-52385D01*
X80099Y-52385D01*
X80223Y-52334D01*
X80334Y-52223D01*
X80394Y-52078D01*
X80394Y-51921D01*
X80334Y-51776D01*
X80223Y-51665D01*
X80078Y-51605D01*
X79921Y-51605D01*
X79776Y-51665D01*
X79665Y-51776D01*
X79605Y-51921D01*
X79605Y-52078D01*
X79665Y-52223D01*
X79776Y-52334D01*
X79900Y-52385D01*
X79099Y-52385D01*
X79223Y-52334D01*
X79334Y-52223D01*
X79394Y-52078D01*
X79394Y-51921D01*
X79334Y-51776D01*
X79223Y-51665D01*
X79078Y-51605D01*
X78921Y-51605D01*
X78776Y-51665D01*
X78665Y-51776D01*
X78605Y-51921D01*
X78605Y-52078D01*
X78665Y-52223D01*
X78776Y-52334D01*
X78900Y-52385D01*
X78099Y-52385D01*
X78223Y-52334D01*
X78334Y-52223D01*
X78394Y-52078D01*
X78394Y-51921D01*
X78334Y-51776D01*
X78223Y-51665D01*
X78078Y-51605D01*
X77921Y-51605D01*
X77776Y-51665D01*
X77665Y-51776D01*
X77605Y-51921D01*
X77605Y-52078D01*
X77665Y-52223D01*
X77776Y-52334D01*
X77900Y-52385D01*
X77099Y-52385D01*
X77223Y-52334D01*
X77334Y-52223D01*
X77394Y-52078D01*
X77394Y-51921D01*
X77334Y-51776D01*
X77223Y-51665D01*
X77078Y-51605D01*
X76921Y-51605D01*
X76776Y-51665D01*
X76665Y-51776D01*
X76605Y-51921D01*
X76605Y-52078D01*
X76665Y-52223D01*
X76776Y-52334D01*
X76900Y-52385D01*
X76099Y-52385D01*
X76223Y-52334D01*
X76334Y-52223D01*
X76394Y-52078D01*
X76394Y-51921D01*
X76334Y-51776D01*
X76223Y-51665D01*
X76125Y-51625D01*
X76125Y-51500D01*
X76125Y-51202D01*
X76298Y-51029D01*
X76303Y-51032D01*
X76396Y-51032D01*
X76481Y-50997D01*
X76546Y-50931D01*
X76582Y-50846D01*
X76582Y-50753D01*
X76547Y-50668D01*
X76481Y-50603D01*
X76396Y-50567D01*
X76303Y-50567D01*
X76218Y-50602D01*
X76153Y-50668D01*
X76117Y-50753D01*
X76117Y-50846D01*
X76120Y-50851D01*
X75910Y-51060D01*
X75883Y-51101D01*
X75874Y-51150D01*
X75874Y-51500D01*
X75874Y-51625D01*
X75776Y-51665D01*
X75665Y-51776D01*
X75605Y-51921D01*
X75605Y-52078D01*
X75665Y-52223D01*
X75776Y-52334D01*
X75900Y-52385D01*
X75099Y-52385D01*
X75223Y-52334D01*
X75334Y-52223D01*
X75394Y-52078D01*
X75394Y-51921D01*
X75334Y-51776D01*
X75223Y-51665D01*
X75078Y-51605D01*
X74921Y-51605D01*
X74776Y-51665D01*
X74665Y-51776D01*
X74605Y-51921D01*
X74605Y-52078D01*
X74665Y-52223D01*
X74776Y-52334D01*
X74900Y-52385D01*
X74099Y-52385D01*
X74223Y-52334D01*
X74334Y-52223D01*
X74394Y-52078D01*
X74394Y-51921D01*
X74334Y-51776D01*
X74223Y-51665D01*
X74125Y-51625D01*
X74125Y-51452D01*
X74348Y-51229D01*
X74353Y-51232D01*
X74446Y-51232D01*
X74531Y-51197D01*
X74596Y-51131D01*
X74632Y-51046D01*
X74632Y-50953D01*
X74597Y-50868D01*
X74531Y-50803D01*
X74446Y-50767D01*
X74353Y-50767D01*
X74268Y-50802D01*
X74203Y-50868D01*
X74167Y-50953D01*
X74167Y-51046D01*
X74170Y-51051D01*
X73910Y-51310D01*
X73883Y-51351D01*
X73874Y-51400D01*
X73874Y-51625D01*
X73776Y-51665D01*
X73665Y-51776D01*
X73605Y-51921D01*
X73605Y-52078D01*
X73665Y-52223D01*
X73776Y-52334D01*
X73900Y-52385D01*
X73099Y-52385D01*
X73223Y-52334D01*
X73334Y-52223D01*
X73394Y-52078D01*
X73394Y-51921D01*
X73334Y-51776D01*
X73223Y-51665D01*
X73078Y-51605D01*
X72921Y-51605D01*
X72776Y-51665D01*
X72665Y-51776D01*
X72605Y-51921D01*
X72605Y-52078D01*
X72665Y-52223D01*
X72776Y-52334D01*
X72900Y-52385D01*
X72099Y-52385D01*
X72223Y-52334D01*
X72334Y-52223D01*
X72394Y-52078D01*
X72394Y-51921D01*
X72334Y-51776D01*
X72223Y-51665D01*
X72078Y-51605D01*
X71921Y-51605D01*
X71776Y-51665D01*
X71665Y-51776D01*
X71605Y-51921D01*
X71605Y-52078D01*
X71665Y-52223D01*
X71776Y-52334D01*
X71900Y-52385D01*
X71099Y-52385D01*
X71223Y-52334D01*
X71334Y-52223D01*
X71394Y-52078D01*
X71394Y-51921D01*
X71334Y-51776D01*
X71293Y-51735D01*
X71448Y-51579D01*
X71453Y-51582D01*
X71546Y-51582D01*
X71631Y-51547D01*
X71696Y-51481D01*
X71732Y-51396D01*
X71732Y-51303D01*
X71697Y-51218D01*
X71631Y-51153D01*
X71546Y-51117D01*
X71453Y-51117D01*
X71368Y-51152D01*
X71303Y-51218D01*
X71267Y-51303D01*
X71267Y-51396D01*
X71270Y-51401D01*
X71066Y-51605D01*
X70921Y-51605D01*
X70776Y-51665D01*
X70665Y-51776D01*
X70605Y-51921D01*
X70605Y-52078D01*
X70665Y-52223D01*
X70776Y-52334D01*
X70900Y-52385D01*
X70099Y-52385D01*
X70223Y-52334D01*
X70334Y-52223D01*
X70394Y-52078D01*
X70394Y-51921D01*
X70334Y-51776D01*
X70317Y-51760D01*
X70448Y-51629D01*
X70453Y-51632D01*
X70546Y-51632D01*
X70631Y-51597D01*
X70696Y-51531D01*
X70732Y-51446D01*
X70732Y-51353D01*
X70697Y-51268D01*
X70631Y-51203D01*
X70546Y-51167D01*
X70453Y-51167D01*
X70368Y-51202D01*
X70303Y-51268D01*
X70267Y-51353D01*
X70267Y-51446D01*
X70270Y-51451D01*
X70105Y-51616D01*
X70078Y-51605D01*
X69921Y-51605D01*
X69776Y-51665D01*
X69665Y-51776D01*
X69605Y-51921D01*
X69605Y-52078D01*
X69665Y-52223D01*
X69776Y-52334D01*
X69900Y-52385D01*
X69099Y-52385D01*
X69223Y-52334D01*
X69334Y-52223D01*
X69394Y-52078D01*
X69394Y-51921D01*
X69334Y-51776D01*
X69223Y-51665D01*
X69078Y-51605D01*
X68921Y-51605D01*
X68776Y-51665D01*
X68665Y-51776D01*
X68605Y-51921D01*
X68605Y-52078D01*
X68665Y-52223D01*
X68776Y-52334D01*
X68900Y-52385D01*
X68099Y-52385D01*
X68223Y-52334D01*
X68334Y-52223D01*
X68394Y-52078D01*
X68394Y-51921D01*
X68334Y-51776D01*
X68223Y-51665D01*
X68078Y-51605D01*
X67921Y-51605D01*
X67776Y-51665D01*
X67665Y-51776D01*
X67605Y-51921D01*
X67605Y-52078D01*
X67665Y-52223D01*
X67776Y-52334D01*
X67900Y-52385D01*
X67099Y-52385D01*
X67223Y-52334D01*
X67334Y-52223D01*
X67394Y-52078D01*
X67394Y-51921D01*
X67334Y-51776D01*
X67223Y-51665D01*
X67078Y-51605D01*
X66921Y-51605D01*
X66776Y-51665D01*
X66665Y-51776D01*
X66605Y-51921D01*
X66605Y-52078D01*
X66665Y-52223D01*
X66776Y-52334D01*
X66900Y-52385D01*
X66099Y-52385D01*
X66223Y-52334D01*
X66334Y-52223D01*
X66394Y-52078D01*
X66394Y-51921D01*
X66334Y-51776D01*
X66223Y-51665D01*
X66078Y-51605D01*
X65921Y-51605D01*
X65776Y-51665D01*
X65665Y-51776D01*
X65605Y-51921D01*
X65605Y-52078D01*
X65665Y-52223D01*
X65776Y-52334D01*
X65900Y-52385D01*
X65099Y-52385D01*
X65223Y-52334D01*
X65334Y-52223D01*
X65394Y-52078D01*
X65394Y-51921D01*
X65334Y-51776D01*
X65223Y-51665D01*
X65125Y-51625D01*
X65125Y-50844D01*
X65293Y-50844D01*
X65328Y-50830D01*
X65355Y-50803D01*
X65369Y-50768D01*
X65369Y-50731D01*
X65369Y-50381D01*
X65355Y-50346D01*
X65328Y-50319D01*
X65293Y-50305D01*
X65256Y-50305D01*
X64706Y-50305D01*
X64671Y-50319D01*
X64644Y-50346D01*
X64630Y-50381D01*
X64630Y-50418D01*
X64630Y-50768D01*
X64644Y-50803D01*
X64671Y-50830D01*
X64706Y-50844D01*
X64743Y-50844D01*
X64874Y-50844D01*
X64874Y-51625D01*
X64776Y-51665D01*
X64665Y-51776D01*
X64605Y-51921D01*
X64605Y-52078D01*
X64665Y-52223D01*
X64776Y-52334D01*
X64900Y-52385D01*
X64099Y-52385D01*
X64223Y-52334D01*
X64334Y-52223D01*
X64394Y-52078D01*
X64394Y-51921D01*
X64334Y-51776D01*
X64223Y-51665D01*
X64125Y-51625D01*
X64125Y-50844D01*
X64293Y-50844D01*
X64328Y-50830D01*
X64355Y-50803D01*
X64369Y-50768D01*
X64369Y-50731D01*
X64369Y-50381D01*
X64355Y-50346D01*
X64328Y-50319D01*
X64293Y-50305D01*
X64256Y-50305D01*
X63706Y-50305D01*
X63671Y-50319D01*
X63644Y-50346D01*
X63630Y-50381D01*
X63630Y-50418D01*
X63630Y-50768D01*
X63644Y-50803D01*
X63671Y-50830D01*
X63706Y-50844D01*
X63743Y-50844D01*
X63874Y-50844D01*
X63874Y-51625D01*
X63776Y-51665D01*
X63665Y-51776D01*
X63605Y-51921D01*
X63605Y-52078D01*
X63665Y-52223D01*
X63776Y-52334D01*
X63900Y-52385D01*
X63099Y-52385D01*
X63223Y-52334D01*
X63334Y-52223D01*
X63394Y-52078D01*
X63394Y-51921D01*
X63394Y-48921D01*
X63334Y-48776D01*
X63223Y-48665D01*
X63078Y-48605D01*
X62921Y-48605D01*
X62776Y-48665D01*
X62665Y-48776D01*
X62605Y-48921D01*
X62605Y-49078D01*
X62665Y-49223D01*
X62776Y-49334D01*
X62874Y-49374D01*
X62874Y-49555D01*
X62706Y-49555D01*
X62671Y-49569D01*
X62644Y-49596D01*
X62630Y-49631D01*
X62630Y-49668D01*
X62630Y-49699D01*
X62483Y-49699D01*
X62483Y-49113D01*
X62483Y-48288D01*
X62468Y-48254D01*
X62442Y-48227D01*
X62407Y-48213D01*
X62369Y-48212D01*
X61740Y-48212D01*
X61706Y-48227D01*
X61679Y-48253D01*
X61665Y-48288D01*
X61664Y-48326D01*
X61664Y-49151D01*
X61679Y-49185D01*
X61705Y-49212D01*
X61740Y-49226D01*
X61778Y-49227D01*
X62407Y-49227D01*
X62441Y-49212D01*
X62468Y-49186D01*
X62482Y-49151D01*
X62483Y-49113D01*
X62483Y-49699D01*
X62369Y-49699D01*
X62369Y-49699D01*
X62369Y-49631D01*
X62355Y-49596D01*
X62328Y-49569D01*
X62293Y-49555D01*
X62256Y-49555D01*
X61706Y-49555D01*
X61671Y-49569D01*
X61644Y-49596D01*
X61630Y-49631D01*
X61630Y-49668D01*
X61630Y-50018D01*
X61644Y-50053D01*
X61671Y-50080D01*
X61706Y-50094D01*
X61743Y-50094D01*
X62293Y-50094D01*
X62328Y-50080D01*
X62355Y-50053D01*
X62369Y-50018D01*
X62369Y-49981D01*
X62369Y-49950D01*
X62369Y-49950D01*
X62630Y-49950D01*
X62630Y-50018D01*
X62644Y-50053D01*
X62671Y-50080D01*
X62706Y-50094D01*
X62743Y-50094D01*
X63293Y-50094D01*
X63328Y-50080D01*
X63355Y-50053D01*
X63369Y-50018D01*
X63369Y-49981D01*
X63369Y-49631D01*
X63355Y-49596D01*
X63328Y-49569D01*
X63293Y-49555D01*
X63256Y-49555D01*
X63125Y-49555D01*
X63125Y-49374D01*
X63223Y-49334D01*
X63334Y-49223D01*
X63394Y-49078D01*
X63394Y-48921D01*
X63394Y-51921D01*
X63334Y-51776D01*
X63223Y-51665D01*
X63125Y-51625D01*
X63125Y-50844D01*
X63293Y-50844D01*
X63328Y-50830D01*
X63355Y-50803D01*
X63369Y-50768D01*
X63369Y-50731D01*
X63369Y-50381D01*
X63355Y-50346D01*
X63328Y-50319D01*
X63293Y-50305D01*
X63256Y-50305D01*
X62706Y-50305D01*
X62671Y-50319D01*
X62644Y-50346D01*
X62630Y-50381D01*
X62630Y-50418D01*
X62630Y-50768D01*
X62644Y-50803D01*
X62671Y-50830D01*
X62706Y-50844D01*
X62743Y-50844D01*
X62874Y-50844D01*
X62874Y-51625D01*
X62776Y-51665D01*
X62665Y-51776D01*
X62605Y-51921D01*
X62605Y-52078D01*
X62665Y-52223D01*
X62776Y-52334D01*
X62900Y-52385D01*
X61339Y-52385D01*
X61353Y-52380D01*
X61380Y-52353D01*
X61394Y-52318D01*
X61394Y-52281D01*
X61394Y-51681D01*
X61380Y-51646D01*
X61353Y-51619D01*
X61318Y-51605D01*
X61281Y-51605D01*
X60681Y-51605D01*
X60646Y-51619D01*
X60619Y-51646D01*
X60614Y-51660D01*
X60614Y-49397D01*
X60616Y-49402D01*
X60642Y-49429D01*
X60677Y-49443D01*
X60715Y-49444D01*
X61462Y-49444D01*
X61496Y-49429D01*
X61523Y-49403D01*
X61537Y-49368D01*
X61538Y-49330D01*
X61538Y-48623D01*
X61523Y-48589D01*
X61497Y-48562D01*
X61462Y-48548D01*
X61424Y-48547D01*
X60677Y-48547D01*
X60643Y-48562D01*
X60616Y-48588D01*
X60614Y-48594D01*
X60614Y-48394D01*
X60616Y-48399D01*
X60642Y-48426D01*
X60677Y-48440D01*
X60715Y-48440D01*
X61462Y-48440D01*
X61496Y-48426D01*
X61523Y-48399D01*
X61537Y-48364D01*
X61538Y-48327D01*
X61538Y-47579D01*
X61523Y-47544D01*
X61497Y-47517D01*
X61462Y-47503D01*
X61424Y-47503D01*
X60677Y-47503D01*
X60643Y-47517D01*
X60616Y-47544D01*
X60614Y-47549D01*
X60614Y-47449D01*
X60616Y-47454D01*
X60642Y-47481D01*
X60677Y-47495D01*
X60715Y-47496D01*
X61462Y-47496D01*
X61496Y-47481D01*
X61523Y-47455D01*
X61537Y-47420D01*
X61538Y-47382D01*
X61538Y-46635D01*
X61523Y-46601D01*
X61497Y-46574D01*
X61462Y-46560D01*
X61424Y-46559D01*
X60677Y-46559D01*
X60643Y-46574D01*
X60616Y-46600D01*
X60614Y-46606D01*
X60614Y-46405D01*
X60616Y-46410D01*
X60642Y-46437D01*
X60677Y-46451D01*
X60715Y-46452D01*
X61462Y-46452D01*
X61496Y-46437D01*
X61523Y-46411D01*
X61537Y-46376D01*
X61538Y-46338D01*
X61538Y-45631D01*
X61523Y-45597D01*
X61497Y-45570D01*
X61462Y-45556D01*
X61424Y-45555D01*
X60677Y-45555D01*
X60643Y-45570D01*
X60616Y-45596D01*
X60614Y-45602D01*
X60614Y-43339D01*
X60619Y-43353D01*
X60646Y-43380D01*
X60681Y-43394D01*
X60718Y-43394D01*
X60874Y-43394D01*
X60874Y-44800D01*
X60879Y-44826D01*
X60867Y-44853D01*
X60867Y-44946D01*
X60902Y-45031D01*
X60968Y-45096D01*
X61053Y-45132D01*
X61146Y-45132D01*
X61231Y-45097D01*
X61296Y-45031D01*
X61332Y-44946D01*
X61332Y-44853D01*
X61297Y-44768D01*
X61231Y-44703D01*
X61146Y-44667D01*
X61125Y-44667D01*
X61125Y-43394D01*
X61318Y-43394D01*
X61353Y-43380D01*
X61380Y-43353D01*
X61394Y-43318D01*
X61394Y-43281D01*
X61394Y-42681D01*
X61380Y-42646D01*
X61353Y-42619D01*
X61339Y-42614D01*
X61900Y-42614D01*
X61776Y-42665D01*
X61665Y-42776D01*
X61605Y-42921D01*
X61605Y-43078D01*
X61665Y-43223D01*
X61776Y-43334D01*
X61921Y-43394D01*
X62078Y-43394D01*
X62175Y-43354D01*
X62674Y-43852D01*
X62674Y-44355D01*
X62506Y-44355D01*
X62471Y-44369D01*
X62444Y-44396D01*
X62430Y-44431D01*
X62430Y-44468D01*
X62430Y-44818D01*
X62444Y-44853D01*
X62471Y-44880D01*
X62506Y-44894D01*
X62543Y-44894D01*
X62891Y-44894D01*
X63074Y-45077D01*
X63074Y-45105D01*
X63056Y-45105D01*
X62696Y-45105D01*
X62330Y-44739D01*
X62330Y-44332D01*
X62316Y-44297D01*
X62289Y-44270D01*
X62254Y-44256D01*
X62217Y-44256D01*
X61745Y-44256D01*
X61710Y-44270D01*
X61683Y-44297D01*
X61669Y-44332D01*
X61669Y-44369D01*
X61669Y-44841D01*
X61683Y-44876D01*
X61710Y-44903D01*
X61745Y-44917D01*
X61782Y-44917D01*
X62152Y-44917D01*
X62430Y-45195D01*
X62430Y-45218D01*
X62430Y-45568D01*
X62444Y-45603D01*
X62471Y-45630D01*
X62506Y-45644D01*
X62543Y-45644D01*
X63074Y-45644D01*
X63074Y-45700D01*
X63083Y-45748D01*
X63110Y-45789D01*
X63210Y-45889D01*
X63251Y-45916D01*
X63251Y-45916D01*
X63300Y-45925D01*
X63467Y-45925D01*
X63467Y-45946D01*
X63502Y-46031D01*
X63568Y-46096D01*
X63653Y-46132D01*
X63746Y-46132D01*
X63831Y-46097D01*
X63896Y-46031D01*
X63932Y-45946D01*
X63932Y-45853D01*
X63897Y-45768D01*
X63831Y-45703D01*
X63746Y-45667D01*
X63653Y-45667D01*
X63626Y-45679D01*
X63600Y-45674D01*
X63352Y-45674D01*
X63325Y-45647D01*
X63325Y-45644D01*
X63343Y-45644D01*
X63893Y-45644D01*
X63928Y-45630D01*
X63955Y-45603D01*
X63969Y-45568D01*
X63969Y-45531D01*
X63969Y-45195D01*
X64247Y-44917D01*
X64654Y-44917D01*
X64689Y-44903D01*
X64716Y-44876D01*
X64730Y-44841D01*
X64730Y-44804D01*
X64730Y-44332D01*
X64716Y-44297D01*
X64689Y-44270D01*
X64654Y-44256D01*
X64617Y-44256D01*
X64145Y-44256D01*
X64110Y-44270D01*
X64083Y-44297D01*
X64069Y-44332D01*
X64069Y-44369D01*
X64069Y-44739D01*
X63703Y-45105D01*
X63325Y-45105D01*
X63325Y-45025D01*
X63325Y-45024D01*
X63316Y-44976D01*
X63289Y-44935D01*
X63289Y-44935D01*
X63169Y-44816D01*
X63169Y-44781D01*
X63169Y-44431D01*
X63155Y-44396D01*
X63128Y-44369D01*
X63093Y-44355D01*
X63056Y-44355D01*
X62925Y-44355D01*
X62925Y-43800D01*
X62925Y-43799D01*
X62916Y-43751D01*
X62889Y-43710D01*
X62889Y-43710D01*
X62354Y-43175D01*
X62394Y-43078D01*
X62394Y-42921D01*
X62334Y-42776D01*
X62223Y-42665D01*
X62099Y-42614D01*
X62900Y-42614D01*
X62776Y-42665D01*
X62665Y-42776D01*
X62605Y-42921D01*
X62605Y-43078D01*
X62665Y-43223D01*
X62776Y-43334D01*
X62921Y-43394D01*
X63078Y-43394D01*
X63175Y-43354D01*
X63474Y-43652D01*
X63474Y-44000D01*
X63468Y-44002D01*
X63403Y-44068D01*
X63367Y-44153D01*
X63367Y-44246D01*
X63402Y-44331D01*
X63427Y-44355D01*
X63306Y-44355D01*
X63271Y-44369D01*
X63244Y-44396D01*
X63230Y-44431D01*
X63230Y-44468D01*
X63230Y-44818D01*
X63244Y-44853D01*
X63271Y-44880D01*
X63306Y-44894D01*
X63343Y-44894D01*
X63893Y-44894D01*
X63928Y-44880D01*
X63955Y-44853D01*
X63969Y-44818D01*
X63969Y-44781D01*
X63969Y-44431D01*
X63955Y-44396D01*
X63928Y-44369D01*
X63893Y-44355D01*
X63856Y-44355D01*
X63773Y-44355D01*
X63796Y-44331D01*
X63832Y-44246D01*
X63832Y-44153D01*
X63797Y-44068D01*
X63731Y-44003D01*
X63725Y-44000D01*
X63725Y-43600D01*
X63716Y-43551D01*
X63716Y-43551D01*
X63702Y-43531D01*
X63689Y-43510D01*
X63689Y-43510D01*
X63354Y-43175D01*
X63394Y-43078D01*
X63394Y-42921D01*
X63334Y-42776D01*
X63223Y-42665D01*
X63099Y-42614D01*
X63900Y-42614D01*
X63776Y-42665D01*
X63665Y-42776D01*
X63605Y-42921D01*
X63605Y-43078D01*
X63665Y-43223D01*
X63776Y-43334D01*
X63921Y-43394D01*
X64078Y-43394D01*
X64223Y-43334D01*
X64334Y-43223D01*
X64394Y-43078D01*
X64394Y-42921D01*
X64334Y-42776D01*
X64223Y-42665D01*
X64099Y-42614D01*
X64900Y-42614D01*
X64776Y-42665D01*
X64665Y-42776D01*
X64605Y-42921D01*
X64605Y-43078D01*
X64665Y-43223D01*
X64776Y-43334D01*
X64921Y-43394D01*
X65078Y-43394D01*
X65223Y-43334D01*
X65334Y-43223D01*
X65394Y-43078D01*
X65394Y-42921D01*
X65334Y-42776D01*
X65223Y-42665D01*
X65099Y-42614D01*
X65900Y-42614D01*
X65776Y-42665D01*
X65665Y-42776D01*
X65605Y-42921D01*
X65605Y-43078D01*
X65665Y-43223D01*
X65776Y-43334D01*
X65921Y-43394D01*
X66078Y-43394D01*
X66223Y-43334D01*
X66334Y-43223D01*
X66394Y-43078D01*
X66394Y-42921D01*
X66334Y-42776D01*
X66223Y-42665D01*
X66099Y-42614D01*
X66900Y-42614D01*
X66776Y-42665D01*
X66665Y-42776D01*
X66605Y-42921D01*
X66605Y-43078D01*
X66665Y-43223D01*
X66776Y-43334D01*
X66921Y-43394D01*
X67078Y-43394D01*
X67223Y-43334D01*
X67334Y-43223D01*
X67394Y-43078D01*
X67394Y-42921D01*
X67334Y-42776D01*
X67223Y-42665D01*
X67099Y-42614D01*
X67900Y-42614D01*
X67776Y-42665D01*
X67665Y-42776D01*
X67605Y-42921D01*
X67605Y-43078D01*
X67665Y-43223D01*
X67776Y-43334D01*
X67874Y-43374D01*
X67874Y-43600D01*
X67874Y-44194D01*
X67676Y-43997D01*
X67676Y-43850D01*
X67666Y-43802D01*
X67639Y-43761D01*
X67639Y-43761D01*
X67629Y-43751D01*
X67632Y-43746D01*
X67632Y-43653D01*
X67597Y-43568D01*
X67531Y-43503D01*
X67446Y-43467D01*
X67353Y-43467D01*
X67268Y-43502D01*
X67203Y-43568D01*
X67167Y-43653D01*
X67167Y-43746D01*
X67202Y-43831D01*
X67268Y-43896D01*
X67306Y-43912D01*
X66890Y-43912D01*
X66829Y-43851D01*
X66832Y-43846D01*
X66832Y-43753D01*
X66797Y-43668D01*
X66731Y-43603D01*
X66646Y-43567D01*
X66553Y-43567D01*
X66468Y-43602D01*
X66403Y-43668D01*
X66367Y-43753D01*
X66367Y-43846D01*
X66402Y-43931D01*
X66468Y-43996D01*
X66553Y-44032D01*
X66646Y-44032D01*
X66651Y-44029D01*
X66749Y-44127D01*
X66749Y-44127D01*
X66790Y-44154D01*
X66838Y-44164D01*
X66838Y-44164D01*
X67309Y-44164D01*
X68118Y-44974D01*
X67099Y-44974D01*
X67097Y-44968D01*
X67031Y-44903D01*
X66946Y-44867D01*
X66853Y-44867D01*
X66768Y-44902D01*
X66703Y-44968D01*
X66667Y-45053D01*
X66667Y-45146D01*
X66702Y-45231D01*
X66768Y-45296D01*
X66853Y-45332D01*
X66946Y-45332D01*
X67031Y-45297D01*
X67096Y-45231D01*
X67099Y-45225D01*
X68173Y-45225D01*
X68210Y-45263D01*
X68338Y-45390D01*
X67345Y-45390D01*
X66168Y-45390D01*
X65740Y-44962D01*
X65740Y-43984D01*
X65745Y-43982D01*
X65811Y-43917D01*
X65846Y-43832D01*
X65846Y-43739D01*
X65811Y-43654D01*
X65746Y-43588D01*
X65660Y-43553D01*
X65568Y-43553D01*
X65482Y-43588D01*
X65417Y-43653D01*
X65382Y-43739D01*
X65382Y-43831D01*
X65417Y-43917D01*
X65482Y-43982D01*
X65488Y-43984D01*
X65488Y-45014D01*
X65497Y-45062D01*
X65525Y-45103D01*
X66027Y-45605D01*
X66068Y-45632D01*
X66068Y-45632D01*
X66116Y-45642D01*
X66832Y-45642D01*
X66776Y-45665D01*
X66665Y-45776D01*
X66605Y-45921D01*
X66605Y-46078D01*
X66665Y-46223D01*
X66776Y-46334D01*
X66874Y-46374D01*
X66874Y-46755D01*
X66883Y-46803D01*
X66910Y-46844D01*
X67021Y-46955D01*
X66906Y-46955D01*
X66871Y-46969D01*
X66844Y-46996D01*
X66830Y-47031D01*
X66830Y-47068D01*
X66830Y-47418D01*
X66844Y-47453D01*
X66871Y-47480D01*
X66906Y-47494D01*
X66943Y-47494D01*
X67493Y-47494D01*
X67528Y-47480D01*
X67555Y-47453D01*
X67569Y-47418D01*
X67569Y-47381D01*
X67569Y-47031D01*
X67555Y-46996D01*
X67528Y-46969D01*
X67493Y-46955D01*
X67456Y-46955D01*
X67325Y-46955D01*
X67325Y-46955D01*
X67316Y-46907D01*
X67289Y-46866D01*
X67289Y-46866D01*
X67125Y-46703D01*
X67125Y-46374D01*
X67223Y-46334D01*
X67334Y-46223D01*
X67394Y-46078D01*
X67394Y-45921D01*
X67334Y-45776D01*
X67223Y-45665D01*
X67167Y-45642D01*
X67345Y-45642D01*
X67623Y-45642D01*
X67619Y-45646D01*
X67605Y-45681D01*
X67605Y-45718D01*
X67605Y-46318D01*
X67619Y-46353D01*
X67646Y-46380D01*
X67681Y-46394D01*
X67718Y-46394D01*
X68318Y-46394D01*
X68353Y-46380D01*
X68380Y-46353D01*
X68394Y-46318D01*
X68394Y-46281D01*
X68394Y-45681D01*
X68380Y-45646D01*
X68376Y-45642D01*
X68394Y-45642D01*
X70027Y-47276D01*
X69873Y-47276D01*
X69808Y-47210D01*
X69767Y-47183D01*
X69719Y-47174D01*
X69719Y-47174D01*
X69719Y-47156D01*
X69705Y-47121D01*
X69678Y-47094D01*
X69643Y-47080D01*
X69606Y-47080D01*
X69156Y-47080D01*
X69121Y-47094D01*
X69094Y-47121D01*
X69080Y-47156D01*
X69080Y-47174D01*
X69032Y-47174D01*
X69032Y-47153D01*
X68997Y-47068D01*
X68931Y-47003D01*
X68846Y-46967D01*
X68753Y-46967D01*
X68668Y-47002D01*
X68603Y-47068D01*
X68600Y-47074D01*
X68369Y-47074D01*
X68369Y-47031D01*
X68355Y-46996D01*
X68328Y-46969D01*
X68293Y-46955D01*
X68256Y-46955D01*
X67706Y-46955D01*
X67671Y-46969D01*
X67644Y-46996D01*
X67630Y-47031D01*
X67630Y-47068D01*
X67630Y-47418D01*
X67644Y-47453D01*
X67671Y-47480D01*
X67706Y-47494D01*
X67743Y-47494D01*
X68293Y-47494D01*
X68328Y-47480D01*
X68355Y-47453D01*
X68369Y-47418D01*
X68369Y-47381D01*
X68369Y-47325D01*
X68600Y-47325D01*
X68602Y-47331D01*
X68668Y-47396D01*
X68753Y-47432D01*
X68846Y-47432D01*
X68873Y-47420D01*
X68900Y-47425D01*
X69080Y-47425D01*
X69080Y-47443D01*
X69094Y-47478D01*
X69121Y-47505D01*
X69156Y-47519D01*
X69193Y-47519D01*
X69643Y-47519D01*
X69678Y-47505D01*
X69705Y-47478D01*
X69709Y-47468D01*
X69732Y-47491D01*
X69732Y-47491D01*
X69773Y-47518D01*
X69821Y-47527D01*
X69821Y-47527D01*
X70172Y-47527D01*
X70175Y-47531D01*
X70210Y-47545D01*
X70248Y-47545D01*
X70563Y-47545D01*
X70597Y-47531D01*
X70601Y-47527D01*
X70639Y-47527D01*
X70687Y-47518D01*
X70687Y-47518D01*
X70728Y-47491D01*
X70785Y-47433D01*
X71099Y-47433D01*
X71073Y-47495D01*
X71073Y-47588D01*
X71109Y-47673D01*
X71174Y-47739D01*
X71259Y-47774D01*
X71352Y-47774D01*
X71437Y-47739D01*
X71502Y-47674D01*
X71505Y-47668D01*
X71968Y-47668D01*
X72130Y-47830D01*
X72130Y-47830D01*
X72171Y-47857D01*
X72219Y-47867D01*
X72219Y-47867D01*
X72355Y-47867D01*
X72330Y-47927D01*
X72330Y-48019D01*
X72365Y-48105D01*
X72431Y-48170D01*
X72516Y-48205D01*
X72608Y-48206D01*
X72694Y-48170D01*
X72747Y-48117D01*
X72782Y-48152D01*
X72867Y-48187D01*
X72960Y-48187D01*
X73045Y-48152D01*
X73110Y-48086D01*
X73146Y-48001D01*
X73146Y-47909D01*
X73111Y-47823D01*
X73092Y-47804D01*
X73301Y-47595D01*
X73329Y-47554D01*
X73329Y-47554D01*
X73338Y-47506D01*
X73338Y-47506D01*
X73338Y-47405D01*
X73407Y-47336D01*
X73436Y-47348D01*
X73474Y-47348D01*
X73789Y-47348D01*
X73823Y-47334D01*
X73850Y-47307D01*
X73864Y-47272D01*
X73865Y-47235D01*
X73865Y-47137D01*
X73852Y-47107D01*
X73864Y-47077D01*
X73865Y-47039D01*
X73865Y-46990D01*
X73977Y-47102D01*
X73977Y-47102D01*
X74017Y-47129D01*
X74066Y-47139D01*
X74066Y-47139D01*
X74368Y-47139D01*
X74417Y-47129D01*
X74417Y-47129D01*
X74457Y-47102D01*
X74655Y-46905D01*
X74655Y-46905D01*
X74682Y-46864D01*
X74691Y-46815D01*
X74691Y-46815D01*
X74691Y-46436D01*
X74786Y-46341D01*
X75184Y-46341D01*
X77750Y-46341D01*
X79113Y-46341D01*
X79410Y-46639D01*
X79410Y-46639D01*
X79451Y-46666D01*
X79499Y-46675D01*
X79500Y-46675D01*
X81997Y-46675D01*
X82645Y-47324D01*
X82605Y-47421D01*
X82605Y-47578D01*
X82665Y-47723D01*
X82710Y-47768D01*
X78411Y-47768D01*
X77658Y-47016D01*
X77617Y-46988D01*
X77569Y-46979D01*
X76749Y-46979D01*
X76796Y-46931D01*
X76832Y-46846D01*
X76832Y-46822D01*
X76844Y-46853D01*
X76871Y-46880D01*
X76906Y-46894D01*
X76943Y-46894D01*
X77493Y-46894D01*
X77528Y-46880D01*
X77555Y-46853D01*
X77569Y-46818D01*
X77569Y-46803D01*
X77655Y-46889D01*
X77655Y-46889D01*
X77696Y-46916D01*
X77744Y-46925D01*
X77744Y-46925D01*
X78446Y-46925D01*
X78482Y-47011D01*
X78587Y-47117D01*
X78725Y-47174D01*
X78874Y-47174D01*
X79011Y-47117D01*
X79117Y-47012D01*
X79174Y-46874D01*
X79174Y-46725D01*
X79117Y-46588D01*
X79012Y-46482D01*
X78874Y-46425D01*
X78725Y-46425D01*
X78588Y-46482D01*
X78482Y-46587D01*
X78446Y-46674D01*
X77796Y-46674D01*
X77658Y-46535D01*
X77617Y-46508D01*
X77569Y-46499D01*
X77569Y-46499D01*
X77569Y-46431D01*
X77555Y-46396D01*
X77528Y-46369D01*
X77493Y-46355D01*
X77456Y-46355D01*
X76906Y-46355D01*
X76871Y-46369D01*
X76844Y-46396D01*
X76830Y-46431D01*
X76830Y-46468D01*
X76830Y-46499D01*
X76775Y-46499D01*
X76726Y-46508D01*
X76685Y-46535D01*
X76651Y-46570D01*
X76646Y-46567D01*
X76553Y-46567D01*
X76468Y-46602D01*
X76403Y-46668D01*
X76367Y-46753D01*
X76367Y-46846D01*
X76402Y-46931D01*
X76450Y-46979D01*
X75794Y-46979D01*
X75746Y-46988D01*
X75705Y-47016D01*
X75530Y-47191D01*
X75441Y-47280D01*
X75156Y-47280D01*
X75121Y-47294D01*
X75094Y-47321D01*
X75080Y-47356D01*
X75080Y-47393D01*
X75080Y-47397D01*
X75060Y-47410D01*
X74999Y-47472D01*
X74242Y-47472D01*
X74240Y-47466D01*
X74174Y-47401D01*
X74089Y-47365D01*
X73997Y-47365D01*
X73911Y-47400D01*
X73846Y-47466D01*
X73843Y-47472D01*
X73827Y-47472D01*
X73824Y-47468D01*
X73789Y-47454D01*
X73751Y-47454D01*
X73436Y-47454D01*
X73402Y-47468D01*
X73375Y-47495D01*
X73361Y-47530D01*
X73360Y-47567D01*
X73360Y-47665D01*
X73365Y-47675D01*
X73351Y-47678D01*
X73310Y-47705D01*
X73271Y-47745D01*
X73244Y-47785D01*
X73234Y-47834D01*
X73234Y-47839D01*
X73234Y-47850D01*
X73234Y-47963D01*
X72948Y-48249D01*
X72274Y-48249D01*
X72272Y-48244D01*
X72206Y-48179D01*
X72121Y-48143D01*
X72029Y-48143D01*
X71943Y-48178D01*
X71878Y-48244D01*
X71842Y-48329D01*
X71842Y-48421D01*
X71867Y-48482D01*
X71564Y-48482D01*
X71524Y-48490D01*
X71524Y-48213D01*
X71529Y-48211D01*
X71595Y-48146D01*
X71630Y-48061D01*
X71630Y-47968D01*
X71595Y-47883D01*
X71530Y-47817D01*
X71444Y-47782D01*
X71352Y-47782D01*
X71266Y-47817D01*
X71201Y-47882D01*
X71166Y-47968D01*
X71166Y-48060D01*
X71201Y-48146D01*
X71266Y-48211D01*
X71272Y-48213D01*
X71272Y-48525D01*
X71025Y-48771D01*
X70998Y-48812D01*
X70989Y-48860D01*
X70989Y-48898D01*
X70985Y-48901D01*
X70971Y-48936D01*
X70970Y-48974D01*
X70970Y-49289D01*
X70985Y-49323D01*
X71011Y-49350D01*
X71046Y-49364D01*
X71084Y-49365D01*
X71183Y-49365D01*
X71213Y-49352D01*
X71243Y-49364D01*
X71281Y-49365D01*
X71380Y-49365D01*
X71410Y-49352D01*
X71440Y-49364D01*
X71478Y-49365D01*
X71577Y-49365D01*
X71607Y-49352D01*
X71637Y-49364D01*
X71674Y-49365D01*
X71723Y-49365D01*
X71290Y-49798D01*
X71290Y-49555D01*
X71255Y-49470D01*
X71190Y-49404D01*
X71104Y-49369D01*
X71012Y-49369D01*
X70945Y-49396D01*
X70899Y-49351D01*
X70899Y-48818D01*
X71091Y-48626D01*
X71091Y-48626D01*
X71118Y-48585D01*
X71128Y-48537D01*
X71128Y-48537D01*
X71128Y-48041D01*
X71118Y-47993D01*
X71118Y-47993D01*
X71091Y-47952D01*
X70881Y-47742D01*
X70841Y-47715D01*
X70792Y-47706D01*
X70728Y-47706D01*
X70728Y-47705D01*
X70687Y-47678D01*
X70639Y-47669D01*
X70601Y-47669D01*
X70598Y-47665D01*
X70563Y-47651D01*
X70525Y-47651D01*
X70210Y-47651D01*
X70176Y-47665D01*
X70149Y-47692D01*
X70135Y-47727D01*
X70134Y-47764D01*
X70134Y-47862D01*
X70149Y-47897D01*
X70175Y-47924D01*
X70210Y-47938D01*
X70248Y-47938D01*
X70563Y-47938D01*
X70594Y-47925D01*
X70612Y-47938D01*
X70550Y-48001D01*
X70532Y-48044D01*
X70525Y-48043D01*
X70210Y-48043D01*
X70176Y-48058D01*
X70149Y-48084D01*
X70135Y-48119D01*
X70134Y-48157D01*
X70134Y-48256D01*
X70135Y-48257D01*
X70129Y-48251D01*
X70132Y-48246D01*
X70132Y-48153D01*
X70097Y-48068D01*
X70031Y-48003D01*
X69946Y-47967D01*
X69853Y-47967D01*
X69768Y-48002D01*
X69703Y-48068D01*
X69667Y-48153D01*
X69667Y-48246D01*
X69702Y-48331D01*
X69768Y-48396D01*
X69853Y-48432D01*
X69946Y-48432D01*
X69951Y-48429D01*
X69995Y-48474D01*
X69995Y-48474D01*
X70036Y-48501D01*
X70084Y-48510D01*
X70085Y-48510D01*
X70136Y-48510D01*
X70135Y-48514D01*
X70134Y-48551D01*
X70134Y-48649D01*
X70145Y-48675D01*
X69847Y-48974D01*
X69719Y-48974D01*
X69719Y-48956D01*
X69705Y-48921D01*
X69678Y-48894D01*
X69643Y-48880D01*
X69606Y-48880D01*
X69158Y-48880D01*
X68925Y-48647D01*
X68925Y-48399D01*
X68931Y-48397D01*
X68996Y-48331D01*
X69032Y-48246D01*
X69032Y-48153D01*
X68997Y-48068D01*
X68931Y-48003D01*
X68846Y-47967D01*
X68753Y-47967D01*
X68668Y-48002D01*
X68603Y-48068D01*
X68567Y-48153D01*
X68567Y-48226D01*
X68200Y-48226D01*
X66444Y-48226D01*
X66444Y-46856D01*
X66444Y-46306D01*
X66430Y-46271D01*
X66403Y-46244D01*
X66368Y-46230D01*
X66331Y-46230D01*
X65981Y-46230D01*
X65946Y-46244D01*
X65919Y-46271D01*
X65905Y-46306D01*
X65905Y-46343D01*
X65905Y-46691D01*
X65688Y-46908D01*
X65694Y-46893D01*
X65694Y-46856D01*
X65694Y-46306D01*
X65680Y-46271D01*
X65653Y-46244D01*
X65618Y-46230D01*
X65581Y-46230D01*
X65231Y-46230D01*
X65196Y-46244D01*
X65169Y-46271D01*
X65155Y-46306D01*
X65155Y-46343D01*
X65155Y-46474D01*
X65155Y-46474D01*
X65107Y-46483D01*
X65066Y-46510D01*
X64750Y-46826D01*
X64562Y-46826D01*
X64550Y-46824D01*
X64350Y-46824D01*
X64301Y-46833D01*
X64260Y-46860D01*
X64166Y-46954D01*
X64164Y-46958D01*
X64143Y-46966D01*
X64127Y-46982D01*
X64112Y-46966D01*
X64082Y-46954D01*
X63991Y-46863D01*
X63950Y-46836D01*
X63902Y-46826D01*
X63547Y-46826D01*
X63499Y-46836D01*
X63458Y-46863D01*
X63419Y-46902D01*
X63222Y-46902D01*
X63222Y-46743D01*
X63208Y-46709D01*
X63181Y-46682D01*
X63146Y-46668D01*
X63109Y-46667D01*
X62853Y-46667D01*
X62818Y-46682D01*
X62791Y-46708D01*
X62777Y-46743D01*
X62777Y-46781D01*
X62777Y-46843D01*
X62726Y-46792D01*
X62641Y-46756D01*
X62549Y-46756D01*
X62483Y-46783D01*
X62483Y-46673D01*
X62483Y-45848D01*
X62468Y-45814D01*
X62442Y-45787D01*
X62407Y-45773D01*
X62369Y-45772D01*
X61740Y-45772D01*
X61706Y-45787D01*
X61679Y-45813D01*
X61665Y-45848D01*
X61664Y-45886D01*
X61664Y-46711D01*
X61679Y-46745D01*
X61705Y-46772D01*
X61740Y-46786D01*
X61778Y-46787D01*
X62407Y-46787D01*
X62441Y-46772D01*
X62468Y-46746D01*
X62482Y-46711D01*
X62483Y-46673D01*
X62483Y-46783D01*
X62463Y-46791D01*
X62443Y-46812D01*
X62411Y-46799D01*
X62366Y-46798D01*
X61836Y-46798D01*
X61795Y-46815D01*
X61764Y-46847D01*
X61747Y-46888D01*
X61747Y-46932D01*
X61747Y-47089D01*
X61758Y-47117D01*
X61747Y-47144D01*
X61747Y-47188D01*
X61747Y-47345D01*
X61758Y-47372D01*
X61747Y-47399D01*
X61747Y-47443D01*
X61747Y-47600D01*
X61758Y-47627D01*
X61747Y-47654D01*
X61747Y-47698D01*
X61747Y-47855D01*
X61764Y-47896D01*
X61795Y-47927D01*
X61836Y-47944D01*
X61881Y-47945D01*
X62411Y-47945D01*
X62452Y-47928D01*
X62483Y-47896D01*
X62500Y-47855D01*
X62500Y-47811D01*
X62500Y-47687D01*
X62517Y-47698D01*
X62565Y-47707D01*
X62565Y-47707D01*
X64065Y-47707D01*
X64102Y-47744D01*
X64102Y-47971D01*
X64116Y-48006D01*
X64143Y-48033D01*
X64178Y-48047D01*
X64215Y-48047D01*
X64333Y-48047D01*
X64368Y-48033D01*
X64395Y-48006D01*
X64409Y-47971D01*
X64409Y-47934D01*
X64409Y-47884D01*
X64679Y-47884D01*
X64681Y-47889D01*
X64746Y-47954D01*
X64832Y-47990D01*
X64924Y-47990D01*
X65010Y-47955D01*
X65075Y-47889D01*
X65110Y-47804D01*
X65111Y-47721D01*
X65132Y-47730D01*
X65169Y-47730D01*
X65641Y-47730D01*
X65676Y-47716D01*
X65703Y-47689D01*
X65717Y-47654D01*
X65717Y-47617D01*
X65717Y-47235D01*
X65983Y-46969D01*
X66018Y-46969D01*
X66368Y-46969D01*
X66403Y-46955D01*
X66430Y-46928D01*
X66444Y-46893D01*
X66444Y-46856D01*
X66444Y-48226D01*
X64647Y-48226D01*
X64599Y-48236D01*
X64558Y-48263D01*
X64175Y-48645D01*
X64078Y-48605D01*
X63921Y-48605D01*
X63776Y-48665D01*
X63665Y-48776D01*
X63605Y-48921D01*
X63605Y-49078D01*
X63665Y-49223D01*
X63776Y-49334D01*
X63874Y-49374D01*
X63874Y-49555D01*
X63706Y-49555D01*
X63671Y-49569D01*
X63644Y-49596D01*
X63630Y-49631D01*
X63630Y-49668D01*
X63630Y-50018D01*
X63644Y-50053D01*
X63671Y-50080D01*
X63706Y-50094D01*
X63743Y-50094D01*
X64293Y-50094D01*
X64328Y-50080D01*
X64355Y-50053D01*
X64369Y-50018D01*
X64369Y-49981D01*
X64369Y-49631D01*
X64355Y-49596D01*
X64328Y-49569D01*
X64293Y-49555D01*
X64256Y-49555D01*
X64125Y-49555D01*
X64125Y-49374D01*
X64223Y-49334D01*
X64334Y-49223D01*
X64394Y-49078D01*
X64394Y-48921D01*
X64354Y-48824D01*
X64699Y-48478D01*
X68200Y-48478D01*
X68647Y-48478D01*
X68674Y-48473D01*
X68674Y-48700D01*
X68683Y-48748D01*
X68710Y-48789D01*
X69080Y-49158D01*
X69080Y-49243D01*
X69094Y-49278D01*
X69121Y-49305D01*
X69156Y-49319D01*
X69193Y-49319D01*
X69643Y-49319D01*
X69678Y-49305D01*
X69705Y-49278D01*
X69719Y-49243D01*
X69719Y-49225D01*
X69900Y-49225D01*
X69948Y-49216D01*
X69948Y-49216D01*
X69989Y-49189D01*
X70452Y-48725D01*
X70563Y-48725D01*
X70597Y-48711D01*
X70624Y-48684D01*
X70638Y-48649D01*
X70639Y-48612D01*
X70639Y-48514D01*
X70626Y-48483D01*
X70638Y-48453D01*
X70639Y-48415D01*
X70639Y-48339D01*
X70700Y-48364D01*
X70792Y-48365D01*
X70876Y-48330D01*
X70876Y-48485D01*
X70684Y-48677D01*
X70656Y-48718D01*
X70647Y-48766D01*
X70647Y-49403D01*
X70656Y-49451D01*
X70684Y-49492D01*
X70826Y-49634D01*
X70826Y-49647D01*
X70861Y-49732D01*
X70926Y-49798D01*
X71012Y-49833D01*
X71104Y-49833D01*
X71189Y-49798D01*
X71255Y-49733D01*
X71290Y-49647D01*
X71290Y-49555D01*
X71290Y-49798D01*
X71089Y-49999D01*
X67874Y-49999D01*
X67826Y-50008D01*
X67785Y-50035D01*
X67785Y-50035D01*
X67785Y-50035D01*
X67551Y-50270D01*
X67546Y-50267D01*
X67453Y-50267D01*
X67432Y-50276D01*
X67432Y-48969D01*
X67397Y-48884D01*
X67331Y-48819D01*
X67246Y-48783D01*
X67153Y-48783D01*
X67068Y-48818D01*
X67013Y-48874D01*
X65394Y-48874D01*
X65394Y-48681D01*
X65380Y-48646D01*
X65353Y-48619D01*
X65318Y-48605D01*
X65281Y-48605D01*
X64681Y-48605D01*
X64646Y-48619D01*
X64619Y-48646D01*
X64605Y-48681D01*
X64605Y-48718D01*
X64605Y-49318D01*
X64619Y-49353D01*
X64646Y-49380D01*
X64681Y-49394D01*
X64718Y-49394D01*
X64874Y-49394D01*
X64874Y-49555D01*
X64706Y-49555D01*
X64671Y-49569D01*
X64644Y-49596D01*
X64630Y-49631D01*
X64630Y-49668D01*
X64630Y-50018D01*
X64644Y-50053D01*
X64671Y-50080D01*
X64706Y-50094D01*
X64743Y-50094D01*
X65293Y-50094D01*
X65328Y-50080D01*
X65355Y-50053D01*
X65369Y-50018D01*
X65369Y-49981D01*
X65369Y-49950D01*
X65630Y-49950D01*
X65630Y-50018D01*
X65644Y-50053D01*
X65671Y-50080D01*
X65706Y-50094D01*
X65743Y-50094D01*
X66293Y-50094D01*
X66328Y-50080D01*
X66355Y-50053D01*
X66369Y-50018D01*
X66369Y-49981D01*
X66369Y-49631D01*
X66355Y-49596D01*
X66328Y-49569D01*
X66293Y-49555D01*
X66256Y-49555D01*
X65706Y-49555D01*
X65671Y-49569D01*
X65644Y-49596D01*
X65630Y-49631D01*
X65630Y-49668D01*
X65630Y-49699D01*
X65369Y-49699D01*
X65369Y-49631D01*
X65355Y-49596D01*
X65328Y-49569D01*
X65293Y-49555D01*
X65256Y-49555D01*
X65125Y-49555D01*
X65125Y-49394D01*
X65318Y-49394D01*
X65353Y-49380D01*
X65380Y-49353D01*
X65394Y-49318D01*
X65394Y-49281D01*
X65394Y-49125D01*
X66994Y-49125D01*
X67002Y-49147D01*
X67068Y-49212D01*
X67153Y-49248D01*
X67246Y-49248D01*
X67331Y-49212D01*
X67396Y-49147D01*
X67432Y-49062D01*
X67432Y-48969D01*
X67432Y-50276D01*
X67368Y-50302D01*
X67303Y-50368D01*
X67267Y-50453D01*
X67267Y-50546D01*
X67302Y-50631D01*
X67368Y-50696D01*
X67453Y-50732D01*
X67546Y-50732D01*
X67631Y-50697D01*
X67696Y-50631D01*
X67732Y-50546D01*
X67732Y-50453D01*
X67729Y-50448D01*
X67927Y-50251D01*
X69525Y-50251D01*
X69510Y-50260D01*
X69451Y-50320D01*
X69446Y-50317D01*
X69353Y-50317D01*
X69268Y-50352D01*
X69203Y-50418D01*
X69167Y-50503D01*
X69167Y-50596D01*
X69202Y-50681D01*
X69268Y-50746D01*
X69353Y-50782D01*
X69446Y-50782D01*
X69531Y-50747D01*
X69596Y-50681D01*
X69632Y-50596D01*
X69632Y-50503D01*
X69629Y-50498D01*
X69652Y-50475D01*
X69714Y-50475D01*
X69750Y-50483D01*
X70316Y-50483D01*
X70268Y-50502D01*
X70203Y-50568D01*
X70167Y-50653D01*
X70167Y-50746D01*
X70202Y-50831D01*
X70268Y-50896D01*
X70353Y-50932D01*
X70446Y-50932D01*
X70531Y-50897D01*
X70596Y-50831D01*
X70618Y-50778D01*
X71002Y-50778D01*
X71051Y-50769D01*
X71051Y-50769D01*
X71092Y-50742D01*
X72107Y-49726D01*
X72132Y-49786D01*
X72198Y-49851D01*
X72283Y-49887D01*
X72375Y-49887D01*
X72461Y-49851D01*
X72526Y-49786D01*
X72562Y-49701D01*
X72562Y-49608D01*
X72559Y-49602D01*
X72580Y-49582D01*
X72607Y-49541D01*
X72607Y-49541D01*
X72616Y-49493D01*
X72616Y-49472D01*
X72872Y-49727D01*
X72872Y-49727D01*
X72913Y-49754D01*
X72961Y-49764D01*
X75096Y-49764D01*
X75048Y-49812D01*
X75046Y-49818D01*
X74055Y-49818D01*
X74007Y-49827D01*
X73966Y-49855D01*
X73097Y-50724D01*
X72850Y-50724D01*
X72801Y-50733D01*
X72760Y-50760D01*
X72601Y-50920D01*
X72596Y-50917D01*
X72503Y-50917D01*
X72418Y-50952D01*
X72353Y-51018D01*
X72317Y-51103D01*
X72317Y-51196D01*
X72352Y-51281D01*
X72418Y-51346D01*
X72503Y-51382D01*
X72596Y-51382D01*
X72681Y-51347D01*
X72746Y-51281D01*
X72782Y-51196D01*
X72782Y-51103D01*
X72779Y-51098D01*
X72902Y-50975D01*
X73150Y-50975D01*
X73198Y-50966D01*
X73198Y-50966D01*
X73239Y-50939D01*
X74108Y-50070D01*
X75046Y-50070D01*
X75048Y-50075D01*
X75096Y-50124D01*
X74300Y-50124D01*
X74251Y-50133D01*
X74210Y-50160D01*
X73760Y-50610D01*
X73760Y-50610D01*
X73760Y-50610D01*
X73501Y-50870D01*
X73496Y-50867D01*
X73403Y-50867D01*
X73318Y-50902D01*
X73253Y-50968D01*
X73217Y-51053D01*
X73217Y-51146D01*
X73252Y-51231D01*
X73318Y-51296D01*
X73403Y-51332D01*
X73496Y-51332D01*
X73581Y-51297D01*
X73646Y-51231D01*
X73682Y-51146D01*
X73682Y-51053D01*
X73679Y-51048D01*
X73939Y-50789D01*
X73939Y-50789D01*
X73939Y-50789D01*
X74352Y-50375D01*
X75250Y-50375D01*
X75300Y-50375D01*
X75348Y-50366D01*
X75348Y-50366D01*
X75387Y-50339D01*
X75387Y-50353D01*
X75390Y-50359D01*
X74899Y-50849D01*
X74860Y-50888D01*
X74833Y-50929D01*
X74824Y-50978D01*
X74824Y-51097D01*
X74601Y-51320D01*
X74596Y-51317D01*
X74503Y-51317D01*
X74418Y-51352D01*
X74353Y-51418D01*
X74317Y-51503D01*
X74317Y-51596D01*
X74352Y-51681D01*
X74418Y-51746D01*
X74503Y-51782D01*
X74596Y-51782D01*
X74681Y-51747D01*
X74746Y-51681D01*
X74782Y-51596D01*
X74782Y-51503D01*
X74779Y-51498D01*
X75039Y-51239D01*
X75039Y-51239D01*
X75039Y-51239D01*
X75066Y-51198D01*
X75075Y-51150D01*
X75075Y-51150D01*
X75075Y-51030D01*
X75078Y-51028D01*
X75568Y-50537D01*
X75573Y-50540D01*
X75666Y-50540D01*
X75751Y-50504D01*
X75816Y-50439D01*
X75852Y-50354D01*
X75852Y-50261D01*
X75831Y-50211D01*
X75835Y-50213D01*
X75928Y-50213D01*
X76013Y-50178D01*
X76078Y-50112D01*
X76114Y-50027D01*
X76114Y-49934D01*
X76079Y-49849D01*
X76013Y-49784D01*
X75966Y-49764D01*
X75999Y-49764D01*
X76040Y-49805D01*
X76081Y-49832D01*
X76081Y-49832D01*
X76129Y-49842D01*
X76617Y-49842D01*
X76617Y-49896D01*
X76652Y-49981D01*
X76718Y-50046D01*
X76803Y-50082D01*
X76896Y-50082D01*
X76981Y-50047D01*
X77046Y-49981D01*
X77082Y-49896D01*
X77082Y-49803D01*
X77051Y-49729D01*
X77560Y-50239D01*
X77560Y-50239D01*
X77581Y-50252D01*
X77601Y-50266D01*
X77601Y-50266D01*
X77650Y-50275D01*
X79450Y-50275D01*
X81300Y-50275D01*
X81348Y-50266D01*
X81348Y-50266D01*
X81389Y-50239D01*
X81599Y-50028D01*
X83202Y-50028D01*
X83250Y-50019D01*
X83250Y-50019D01*
X83291Y-49991D01*
X83605Y-49678D01*
X83605Y-49818D01*
X83619Y-49853D01*
X83646Y-49880D01*
X83681Y-49894D01*
X83718Y-49894D01*
X84318Y-49894D01*
X84353Y-49880D01*
X84380Y-49853D01*
X84394Y-49818D01*
X84394Y-49781D01*
X84394Y-49181D01*
X84380Y-49146D01*
X84353Y-49119D01*
X84318Y-49105D01*
X84281Y-49105D01*
X83681Y-49105D01*
X83646Y-49119D01*
X83619Y-49146D01*
X83605Y-49181D01*
X83605Y-49218D01*
X83605Y-49374D01*
X83605Y-49374D01*
X83557Y-49383D01*
X83516Y-49410D01*
X83394Y-49532D01*
X83394Y-48421D01*
X83334Y-48276D01*
X83223Y-48165D01*
X83078Y-48105D01*
X82921Y-48105D01*
X82776Y-48165D01*
X82665Y-48276D01*
X82605Y-48421D01*
X82605Y-48578D01*
X82665Y-48723D01*
X82776Y-48834D01*
X82921Y-48894D01*
X83078Y-48894D01*
X83223Y-48834D01*
X83334Y-48723D01*
X83394Y-48578D01*
X83394Y-48421D01*
X83394Y-49532D01*
X83150Y-49776D01*
X81547Y-49776D01*
X81498Y-49786D01*
X81458Y-49813D01*
X81300Y-49971D01*
X81300Y-49779D01*
X81300Y-48598D01*
X81284Y-48558D01*
X81253Y-48527D01*
X81212Y-48510D01*
X81168Y-48510D01*
X79987Y-48510D01*
X79947Y-48526D01*
X79916Y-48557D01*
X79899Y-48598D01*
X79899Y-48642D01*
X79899Y-49823D01*
X79915Y-49863D01*
X79946Y-49894D01*
X79987Y-49911D01*
X80031Y-49911D01*
X81212Y-49911D01*
X81252Y-49895D01*
X81283Y-49864D01*
X81300Y-49823D01*
X81300Y-49779D01*
X81300Y-49971D01*
X81247Y-50024D01*
X79450Y-50024D01*
X77702Y-50024D01*
X77460Y-49782D01*
X77546Y-49782D01*
X77631Y-49747D01*
X77696Y-49681D01*
X77732Y-49596D01*
X77732Y-49503D01*
X77697Y-49418D01*
X77676Y-49397D01*
X77750Y-49397D01*
X77828Y-49397D01*
X77876Y-49388D01*
X77876Y-49388D01*
X77917Y-49360D01*
X78002Y-49275D01*
X78050Y-49275D01*
X78052Y-49281D01*
X78118Y-49346D01*
X78203Y-49382D01*
X78296Y-49382D01*
X78381Y-49347D01*
X78446Y-49281D01*
X78482Y-49196D01*
X78482Y-49103D01*
X78447Y-49018D01*
X78381Y-48953D01*
X78316Y-48925D01*
X78446Y-48925D01*
X78482Y-49011D01*
X78587Y-49117D01*
X78725Y-49174D01*
X78874Y-49174D01*
X79011Y-49117D01*
X79117Y-49012D01*
X79174Y-48874D01*
X79174Y-48725D01*
X79172Y-48720D01*
X79231Y-48779D01*
X79252Y-48831D01*
X79318Y-48896D01*
X79403Y-48932D01*
X79496Y-48932D01*
X79581Y-48897D01*
X79646Y-48831D01*
X79682Y-48746D01*
X79682Y-48653D01*
X79647Y-48568D01*
X79581Y-48503D01*
X79496Y-48467D01*
X79403Y-48467D01*
X79318Y-48502D01*
X79314Y-48506D01*
X79228Y-48420D01*
X80723Y-48420D01*
X80750Y-48425D01*
X80776Y-48420D01*
X81267Y-48420D01*
X81267Y-48446D01*
X81302Y-48531D01*
X81368Y-48596D01*
X81453Y-48632D01*
X81546Y-48632D01*
X81631Y-48597D01*
X81696Y-48531D01*
X81732Y-48446D01*
X81732Y-48353D01*
X81697Y-48268D01*
X81631Y-48203D01*
X81546Y-48167D01*
X81453Y-48167D01*
X81433Y-48176D01*
X81433Y-48176D01*
X81394Y-48168D01*
X81337Y-48168D01*
X81334Y-48168D01*
X81332Y-48168D01*
X80755Y-48168D01*
X80750Y-48168D01*
X76760Y-48168D01*
X76712Y-48178D01*
X76671Y-48205D01*
X76444Y-48432D01*
X76444Y-47906D01*
X76430Y-47871D01*
X76403Y-47844D01*
X76368Y-47830D01*
X76331Y-47830D01*
X76300Y-47830D01*
X76300Y-47830D01*
X76300Y-47830D01*
X76292Y-47785D01*
X76298Y-47768D01*
X76299Y-47676D01*
X76263Y-47590D01*
X76198Y-47525D01*
X76113Y-47489D01*
X76020Y-47489D01*
X75935Y-47525D01*
X75869Y-47590D01*
X75834Y-47675D01*
X75834Y-47768D01*
X75869Y-47853D01*
X75910Y-47894D01*
X75905Y-47906D01*
X75905Y-47943D01*
X75905Y-48484D01*
X75694Y-48484D01*
X75694Y-48456D01*
X75694Y-47906D01*
X75680Y-47871D01*
X75653Y-47844D01*
X75618Y-47830D01*
X75581Y-47830D01*
X75550Y-47830D01*
X75550Y-47719D01*
X75643Y-47719D01*
X75678Y-47705D01*
X75705Y-47678D01*
X75719Y-47643D01*
X75719Y-47606D01*
X75719Y-47358D01*
X75846Y-47231D01*
X77517Y-47231D01*
X78269Y-47983D01*
X78310Y-48011D01*
X78310Y-48011D01*
X78358Y-48020D01*
X83188Y-48020D01*
X83236Y-48011D01*
X83236Y-48011D01*
X83277Y-47983D01*
X83628Y-47633D01*
X83665Y-47723D01*
X83776Y-47834D01*
X83921Y-47894D01*
X84078Y-47894D01*
X84223Y-47834D01*
X84334Y-47723D01*
X84394Y-47578D01*
X84394Y-47421D01*
X84334Y-47276D01*
X84223Y-47165D01*
X84078Y-47105D01*
X83989Y-47105D01*
X84074Y-47020D01*
X84400Y-47020D01*
X84730Y-47020D01*
X84778Y-47011D01*
X84778Y-47011D01*
X84819Y-46983D01*
X84908Y-46894D01*
X85293Y-46894D01*
X85328Y-46880D01*
X85355Y-46853D01*
X85369Y-46818D01*
X85369Y-46781D01*
X85369Y-46431D01*
X85355Y-46396D01*
X85328Y-46369D01*
X85293Y-46355D01*
X85256Y-46355D01*
X84706Y-46355D01*
X84671Y-46369D01*
X84644Y-46396D01*
X84630Y-46431D01*
X84630Y-46468D01*
X84630Y-46768D01*
X84400Y-46768D01*
X84289Y-46768D01*
X84334Y-46723D01*
X84394Y-46578D01*
X84394Y-46421D01*
X84334Y-46276D01*
X84223Y-46165D01*
X84127Y-46125D01*
X84800Y-46125D01*
X84848Y-46116D01*
X84848Y-46116D01*
X84889Y-46089D01*
X85089Y-45889D01*
X85089Y-45889D01*
X85116Y-45848D01*
X85117Y-45844D01*
X85293Y-45844D01*
X85328Y-45830D01*
X85355Y-45803D01*
X85369Y-45768D01*
X85369Y-45731D01*
X85369Y-45381D01*
X85355Y-45346D01*
X85328Y-45319D01*
X85293Y-45305D01*
X85256Y-45305D01*
X84706Y-45305D01*
X84671Y-45319D01*
X84644Y-45346D01*
X84630Y-45381D01*
X84630Y-45418D01*
X84630Y-45768D01*
X84644Y-45803D01*
X84671Y-45830D01*
X84706Y-45844D01*
X84743Y-45844D01*
X84777Y-45844D01*
X84747Y-45874D01*
X84127Y-45874D01*
X84223Y-45834D01*
X84334Y-45723D01*
X84394Y-45578D01*
X84394Y-45421D01*
X84334Y-45276D01*
X84223Y-45165D01*
X84078Y-45105D01*
X83921Y-45105D01*
X83824Y-45145D01*
X82789Y-44110D01*
X82748Y-44083D01*
X82700Y-44074D01*
X81252Y-44074D01*
X80818Y-43639D01*
X80820Y-43634D01*
X80820Y-43542D01*
X80785Y-43456D01*
X80719Y-43391D01*
X80634Y-43355D01*
X80542Y-43355D01*
X80456Y-43391D01*
X80391Y-43456D01*
X80355Y-43541D01*
X80355Y-43634D01*
X80391Y-43719D01*
X80456Y-43784D01*
X80541Y-43820D01*
X80634Y-43820D01*
X80639Y-43818D01*
X81095Y-44274D01*
X79582Y-44274D01*
X79582Y-43953D01*
X79547Y-43868D01*
X79481Y-43803D01*
X79396Y-43767D01*
X79303Y-43767D01*
X79218Y-43802D01*
X79153Y-43868D01*
X79150Y-43874D01*
X78500Y-43874D01*
X77800Y-43874D01*
X77751Y-43883D01*
X77710Y-43910D01*
X77547Y-44074D01*
X76800Y-44074D01*
X76751Y-44083D01*
X76710Y-44110D01*
X76710Y-44110D01*
X76710Y-44110D01*
X76347Y-44474D01*
X75352Y-44474D01*
X74989Y-44110D01*
X74948Y-44083D01*
X74900Y-44074D01*
X74800Y-44074D01*
X74352Y-44074D01*
X74189Y-43910D01*
X74089Y-43810D01*
X74048Y-43783D01*
X74000Y-43774D01*
X73800Y-43774D01*
X73600Y-43774D01*
X73551Y-43783D01*
X73510Y-43810D01*
X73447Y-43874D01*
X73200Y-43874D01*
X73000Y-43874D01*
X72652Y-43874D01*
X72267Y-43489D01*
X72227Y-43462D01*
X72178Y-43452D01*
X71200Y-43452D01*
X70321Y-43452D01*
X70272Y-43462D01*
X70232Y-43489D01*
X70101Y-43620D01*
X70096Y-43617D01*
X70003Y-43617D01*
X69918Y-43652D01*
X69853Y-43718D01*
X69817Y-43803D01*
X69817Y-43896D01*
X69852Y-43981D01*
X69918Y-44046D01*
X70003Y-44082D01*
X70096Y-44082D01*
X70181Y-44047D01*
X70246Y-43981D01*
X70282Y-43896D01*
X70282Y-43803D01*
X70279Y-43798D01*
X70373Y-43704D01*
X71200Y-43704D01*
X72126Y-43704D01*
X72510Y-44089D01*
X72551Y-44116D01*
X72551Y-44116D01*
X72600Y-44125D01*
X73000Y-44125D01*
X73200Y-44125D01*
X73500Y-44125D01*
X73548Y-44116D01*
X73548Y-44116D01*
X73589Y-44089D01*
X73652Y-44025D01*
X73800Y-44025D01*
X73947Y-44025D01*
X74010Y-44089D01*
X74210Y-44289D01*
X74210Y-44289D01*
X74251Y-44316D01*
X74300Y-44325D01*
X74800Y-44325D01*
X74847Y-44325D01*
X75210Y-44689D01*
X75210Y-44689D01*
X75251Y-44716D01*
X75299Y-44725D01*
X75300Y-44725D01*
X76400Y-44725D01*
X76448Y-44716D01*
X76448Y-44716D01*
X76489Y-44689D01*
X76852Y-44325D01*
X77600Y-44325D01*
X77648Y-44316D01*
X77648Y-44316D01*
X77689Y-44289D01*
X77852Y-44125D01*
X78500Y-44125D01*
X79150Y-44125D01*
X79152Y-44131D01*
X79218Y-44196D01*
X79303Y-44232D01*
X79396Y-44232D01*
X79481Y-44197D01*
X79546Y-44131D01*
X79582Y-44046D01*
X79582Y-43953D01*
X79582Y-44274D01*
X77800Y-44274D01*
X77751Y-44283D01*
X77710Y-44310D01*
X77547Y-44474D01*
X76900Y-44474D01*
X76851Y-44483D01*
X76810Y-44510D01*
X76547Y-44774D01*
X75152Y-44774D01*
X74889Y-44510D01*
X74848Y-44483D01*
X74800Y-44474D01*
X74700Y-44474D01*
X74000Y-44474D01*
X73850Y-44474D01*
X73882Y-44396D01*
X73882Y-44303D01*
X73847Y-44218D01*
X73781Y-44153D01*
X73696Y-44117D01*
X73603Y-44117D01*
X73518Y-44152D01*
X73469Y-44202D01*
X72800Y-44200D01*
X72800Y-44200D01*
X72800Y-44200D01*
X72579Y-44200D01*
X72289Y-43910D01*
X72248Y-43883D01*
X72200Y-43874D01*
X71000Y-43874D01*
X70800Y-43874D01*
X70751Y-43883D01*
X70710Y-43910D01*
X70376Y-44245D01*
X70328Y-44225D01*
X70235Y-44225D01*
X70150Y-44260D01*
X70084Y-44325D01*
X70049Y-44411D01*
X70049Y-44503D01*
X70084Y-44589D01*
X70149Y-44654D01*
X70155Y-44656D01*
X70155Y-44881D01*
X70165Y-44929D01*
X70192Y-44970D01*
X70510Y-45289D01*
X70510Y-45289D01*
X70551Y-45316D01*
X70600Y-45325D01*
X70880Y-45325D01*
X70880Y-45443D01*
X70894Y-45478D01*
X70921Y-45505D01*
X70956Y-45519D01*
X70974Y-45519D01*
X70974Y-45635D01*
X70948Y-45634D01*
X70850Y-45634D01*
X70815Y-45649D01*
X70788Y-45675D01*
X70774Y-45710D01*
X70774Y-45748D01*
X70774Y-45761D01*
X70739Y-45761D01*
X69389Y-44410D01*
X69348Y-44383D01*
X69300Y-44374D01*
X69002Y-44374D01*
X68779Y-44151D01*
X68782Y-44146D01*
X68782Y-44053D01*
X68747Y-43968D01*
X68681Y-43903D01*
X68596Y-43867D01*
X68503Y-43867D01*
X68418Y-43902D01*
X68353Y-43968D01*
X68317Y-44053D01*
X68317Y-44146D01*
X68352Y-44231D01*
X68418Y-44296D01*
X68503Y-44332D01*
X68596Y-44332D01*
X68601Y-44329D01*
X68860Y-44589D01*
X68860Y-44589D01*
X68901Y-44616D01*
X68949Y-44625D01*
X68950Y-44625D01*
X69247Y-44625D01*
X70597Y-45976D01*
X70638Y-46003D01*
X70638Y-46003D01*
X70687Y-46012D01*
X70774Y-46012D01*
X70774Y-46063D01*
X70788Y-46097D01*
X70815Y-46124D01*
X70850Y-46138D01*
X70887Y-46139D01*
X70985Y-46139D01*
X71016Y-46126D01*
X71046Y-46138D01*
X71084Y-46139D01*
X71183Y-46139D01*
X71213Y-46126D01*
X71243Y-46138D01*
X71281Y-46139D01*
X71380Y-46139D01*
X71414Y-46124D01*
X71441Y-46098D01*
X71455Y-46063D01*
X71456Y-46025D01*
X71456Y-45722D01*
X71489Y-45689D01*
X71516Y-45648D01*
X71516Y-45648D01*
X71525Y-45600D01*
X71525Y-44900D01*
X71525Y-44899D01*
X71516Y-44851D01*
X71489Y-44810D01*
X71489Y-44810D01*
X71319Y-44641D01*
X71319Y-44558D01*
X71552Y-44325D01*
X72147Y-44325D01*
X72510Y-44689D01*
X72510Y-44689D01*
X72551Y-44716D01*
X72599Y-44725D01*
X72600Y-44725D01*
X74000Y-44725D01*
X74700Y-44725D01*
X74747Y-44725D01*
X75010Y-44989D01*
X75010Y-44989D01*
X75051Y-45016D01*
X75099Y-45025D01*
X75100Y-45025D01*
X76600Y-45025D01*
X76648Y-45016D01*
X76648Y-45016D01*
X76689Y-44989D01*
X76952Y-44725D01*
X77600Y-44725D01*
X77648Y-44716D01*
X77648Y-44716D01*
X77689Y-44689D01*
X77852Y-44525D01*
X82547Y-44525D01*
X83274Y-45252D01*
X83274Y-45600D01*
X83283Y-45648D01*
X83310Y-45689D01*
X83495Y-45874D01*
X82650Y-45874D01*
X82601Y-45883D01*
X82560Y-45910D01*
X82297Y-46174D01*
X79502Y-46174D01*
X79379Y-46050D01*
X79377Y-46041D01*
X79349Y-46000D01*
X79308Y-45972D01*
X79260Y-45963D01*
X77850Y-45963D01*
X74764Y-45963D01*
X74852Y-45875D01*
X78800Y-45875D01*
X79847Y-45875D01*
X80010Y-46039D01*
X80010Y-46039D01*
X80051Y-46066D01*
X80100Y-46075D01*
X80146Y-46075D01*
X80151Y-46079D01*
X80200Y-46089D01*
X80521Y-46089D01*
X80569Y-46079D01*
X80569Y-46079D01*
X80610Y-46052D01*
X80752Y-45909D01*
X80766Y-45915D01*
X80865Y-45915D01*
X80956Y-45878D01*
X81026Y-45808D01*
X81064Y-45717D01*
X81064Y-45618D01*
X81026Y-45527D01*
X80957Y-45457D01*
X80942Y-45451D01*
X80942Y-45412D01*
X80942Y-45412D01*
X80950Y-45369D01*
X80950Y-45369D01*
X80950Y-45369D01*
X81018Y-45369D01*
X81053Y-45355D01*
X81080Y-45328D01*
X81094Y-45293D01*
X81094Y-45256D01*
X81094Y-44706D01*
X81080Y-44671D01*
X81053Y-44644D01*
X81018Y-44630D01*
X80981Y-44630D01*
X80631Y-44630D01*
X80596Y-44644D01*
X80569Y-44671D01*
X80555Y-44706D01*
X80555Y-44743D01*
X80555Y-45293D01*
X80569Y-45328D01*
X80596Y-45355D01*
X80631Y-45369D01*
X80668Y-45369D01*
X80692Y-45369D01*
X80690Y-45378D01*
X80690Y-45451D01*
X80676Y-45457D01*
X80606Y-45527D01*
X80600Y-45542D01*
X80593Y-45527D01*
X80524Y-45457D01*
X80433Y-45419D01*
X80334Y-45419D01*
X80319Y-45425D01*
X80226Y-45332D01*
X80230Y-45328D01*
X80244Y-45293D01*
X80244Y-45256D01*
X80244Y-44706D01*
X80230Y-44671D01*
X80203Y-44644D01*
X80168Y-44630D01*
X80131Y-44630D01*
X79781Y-44630D01*
X79746Y-44644D01*
X79719Y-44671D01*
X79705Y-44706D01*
X79705Y-44743D01*
X79705Y-45293D01*
X79719Y-45328D01*
X79746Y-45355D01*
X79781Y-45369D01*
X79796Y-45369D01*
X79698Y-45467D01*
X78310Y-45467D01*
X78498Y-45279D01*
X78503Y-45282D01*
X78596Y-45282D01*
X78681Y-45247D01*
X78746Y-45181D01*
X78782Y-45096D01*
X78782Y-45003D01*
X78747Y-44918D01*
X78681Y-44853D01*
X78596Y-44817D01*
X78503Y-44817D01*
X78418Y-44852D01*
X78353Y-44918D01*
X78317Y-45003D01*
X78317Y-45096D01*
X78320Y-45101D01*
X78163Y-45258D01*
X77850Y-45258D01*
X74056Y-45258D01*
X74080Y-45201D01*
X74153Y-45232D01*
X74246Y-45232D01*
X74331Y-45197D01*
X74396Y-45131D01*
X74432Y-45046D01*
X74432Y-44953D01*
X74397Y-44868D01*
X74331Y-44803D01*
X74246Y-44767D01*
X74153Y-44767D01*
X74132Y-44776D01*
X74095Y-44769D01*
X73983Y-44769D01*
X72650Y-44769D01*
X72564Y-44769D01*
X72554Y-44769D01*
X72506Y-44778D01*
X72465Y-44806D01*
X72446Y-44834D01*
X71841Y-45439D01*
X71812Y-45458D01*
X71785Y-45499D01*
X71776Y-45548D01*
X71776Y-45550D01*
X71776Y-45636D01*
X71772Y-45635D01*
X71735Y-45634D01*
X71637Y-45634D01*
X71602Y-45649D01*
X71575Y-45675D01*
X71561Y-45710D01*
X71561Y-45748D01*
X71561Y-46063D01*
X71575Y-46097D01*
X71579Y-46101D01*
X71579Y-46139D01*
X71588Y-46187D01*
X71615Y-46228D01*
X72294Y-46906D01*
X72294Y-47057D01*
X72289Y-47059D01*
X72223Y-47124D01*
X72198Y-47185D01*
X71933Y-46919D01*
X71892Y-46892D01*
X71844Y-46883D01*
X70639Y-46883D01*
X70637Y-46883D01*
X70638Y-46880D01*
X70639Y-46842D01*
X70639Y-46743D01*
X70626Y-46713D01*
X70638Y-46683D01*
X70639Y-46645D01*
X70639Y-46546D01*
X70626Y-46516D01*
X70638Y-46485D01*
X70639Y-46448D01*
X70639Y-46350D01*
X70624Y-46315D01*
X70598Y-46288D01*
X70563Y-46274D01*
X70525Y-46274D01*
X70210Y-46274D01*
X70176Y-46288D01*
X70172Y-46292D01*
X70149Y-46292D01*
X68125Y-44268D01*
X68125Y-43600D01*
X68125Y-43374D01*
X68223Y-43334D01*
X68334Y-43223D01*
X68394Y-43078D01*
X68394Y-42921D01*
X68334Y-42776D01*
X68223Y-42665D01*
X68099Y-42614D01*
X68900Y-42614D01*
X68776Y-42665D01*
X68665Y-42776D01*
X68605Y-42921D01*
X68605Y-43078D01*
X68665Y-43223D01*
X68776Y-43334D01*
X68921Y-43394D01*
X69078Y-43394D01*
X69223Y-43334D01*
X69334Y-43223D01*
X69394Y-43078D01*
X69394Y-42921D01*
X69334Y-42776D01*
X69223Y-42665D01*
X69099Y-42614D01*
X69900Y-42614D01*
X69776Y-42665D01*
X69665Y-42776D01*
X69605Y-42921D01*
X69605Y-43078D01*
X69665Y-43223D01*
X69776Y-43334D01*
X69921Y-43394D01*
X70078Y-43394D01*
X70223Y-43334D01*
X70334Y-43223D01*
X70394Y-43078D01*
X70394Y-42921D01*
X70334Y-42776D01*
X70223Y-42665D01*
X70099Y-42614D01*
X70900Y-42614D01*
X70776Y-42665D01*
X70665Y-42776D01*
X70605Y-42921D01*
X70605Y-43078D01*
X70665Y-43223D01*
X70776Y-43334D01*
X70921Y-43394D01*
X71078Y-43394D01*
X71223Y-43334D01*
X71334Y-43223D01*
X71394Y-43078D01*
X71394Y-42921D01*
X71334Y-42776D01*
X71223Y-42665D01*
X71099Y-42614D01*
X71900Y-42614D01*
X71776Y-42665D01*
X71665Y-42776D01*
X71605Y-42921D01*
X71605Y-43078D01*
X71665Y-43223D01*
X71776Y-43334D01*
X71921Y-43394D01*
X72078Y-43394D01*
X72175Y-43354D01*
X72508Y-43686D01*
X72508Y-43686D01*
X72521Y-43695D01*
X72521Y-43695D01*
X72535Y-43729D01*
X72600Y-43794D01*
X72686Y-43829D01*
X72778Y-43829D01*
X72864Y-43794D01*
X72929Y-43729D01*
X72964Y-43644D01*
X72964Y-43551D01*
X72929Y-43466D01*
X72864Y-43400D01*
X72779Y-43365D01*
X72686Y-43365D01*
X72601Y-43400D01*
X72589Y-43411D01*
X72354Y-43175D01*
X72394Y-43078D01*
X72394Y-42921D01*
X72334Y-42776D01*
X72223Y-42665D01*
X72099Y-42614D01*
X72900Y-42614D01*
X72776Y-42665D01*
X72665Y-42776D01*
X72605Y-42921D01*
X72605Y-43078D01*
X72665Y-43223D01*
X72776Y-43334D01*
X72921Y-43394D01*
X73078Y-43394D01*
X73105Y-43383D01*
X73170Y-43448D01*
X73167Y-43453D01*
X73167Y-43546D01*
X73202Y-43631D01*
X73268Y-43696D01*
X73353Y-43732D01*
X73446Y-43732D01*
X73531Y-43697D01*
X73596Y-43631D01*
X73632Y-43546D01*
X73632Y-43453D01*
X73597Y-43368D01*
X73531Y-43303D01*
X73446Y-43267D01*
X73353Y-43267D01*
X73348Y-43270D01*
X73318Y-43239D01*
X73334Y-43223D01*
X73394Y-43078D01*
X73394Y-42921D01*
X73334Y-42776D01*
X73223Y-42665D01*
X73099Y-42614D01*
X73900Y-42614D01*
X73776Y-42665D01*
X73665Y-42776D01*
X73605Y-42921D01*
X73605Y-43078D01*
X73665Y-43223D01*
X73776Y-43334D01*
X73921Y-43394D01*
X74016Y-43394D01*
X74270Y-43648D01*
X74267Y-43653D01*
X74267Y-43746D01*
X74302Y-43831D01*
X74368Y-43896D01*
X74453Y-43932D01*
X74546Y-43932D01*
X74631Y-43897D01*
X74696Y-43831D01*
X74732Y-43746D01*
X74732Y-43653D01*
X74697Y-43568D01*
X74631Y-43503D01*
X74546Y-43467D01*
X74453Y-43467D01*
X74448Y-43470D01*
X74268Y-43289D01*
X74334Y-43223D01*
X74394Y-43078D01*
X74394Y-42921D01*
X74334Y-42776D01*
X74223Y-42665D01*
X74099Y-42614D01*
X74900Y-42614D01*
X74776Y-42665D01*
X74665Y-42776D01*
X74605Y-42921D01*
X74605Y-43078D01*
X74665Y-43223D01*
X74776Y-43334D01*
X74921Y-43394D01*
X75078Y-43394D01*
X75175Y-43354D01*
X75224Y-43402D01*
X75224Y-43800D01*
X75233Y-43848D01*
X75260Y-43889D01*
X75270Y-43898D01*
X75267Y-43903D01*
X75267Y-43996D01*
X75302Y-44081D01*
X75368Y-44146D01*
X75453Y-44182D01*
X75546Y-44182D01*
X75631Y-44147D01*
X75696Y-44081D01*
X75732Y-43996D01*
X75732Y-43903D01*
X75697Y-43818D01*
X75631Y-43753D01*
X75546Y-43717D01*
X75475Y-43717D01*
X75475Y-43350D01*
X75475Y-43349D01*
X75466Y-43301D01*
X75439Y-43260D01*
X75439Y-43260D01*
X75354Y-43175D01*
X75394Y-43078D01*
X75394Y-42921D01*
X75334Y-42776D01*
X75223Y-42665D01*
X75099Y-42614D01*
X75900Y-42614D01*
X75776Y-42665D01*
X75665Y-42776D01*
X75605Y-42921D01*
X75605Y-43078D01*
X75665Y-43223D01*
X75776Y-43334D01*
X75921Y-43394D01*
X76078Y-43394D01*
X76223Y-43334D01*
X76334Y-43223D01*
X76394Y-43078D01*
X76394Y-42921D01*
X76334Y-42776D01*
X76223Y-42665D01*
X76099Y-42614D01*
X76900Y-42614D01*
X76776Y-42665D01*
X76665Y-42776D01*
X76605Y-42921D01*
X76605Y-43078D01*
X76665Y-43223D01*
X76776Y-43334D01*
X76921Y-43394D01*
X77078Y-43394D01*
X77223Y-43334D01*
X77334Y-43223D01*
X77394Y-43078D01*
X77394Y-42921D01*
X77334Y-42776D01*
X77223Y-42665D01*
X77099Y-42614D01*
X77900Y-42614D01*
X77776Y-42665D01*
X77665Y-42776D01*
X77605Y-42921D01*
X77605Y-43078D01*
X77665Y-43223D01*
X77776Y-43334D01*
X77921Y-43394D01*
X78078Y-43394D01*
X78223Y-43334D01*
X78334Y-43223D01*
X78394Y-43078D01*
X78394Y-42921D01*
X78334Y-42776D01*
X78223Y-42665D01*
X78099Y-42614D01*
X78900Y-42614D01*
X78776Y-42665D01*
X78665Y-42776D01*
X78605Y-42921D01*
X78605Y-43078D01*
X78665Y-43223D01*
X78776Y-43334D01*
X78921Y-43394D01*
X79078Y-43394D01*
X79223Y-43334D01*
X79334Y-43223D01*
X79394Y-43078D01*
X79394Y-42921D01*
X79334Y-42776D01*
X79223Y-42665D01*
X79099Y-42614D01*
X79900Y-42614D01*
X79776Y-42665D01*
X79665Y-42776D01*
X79605Y-42921D01*
X79605Y-43078D01*
X79665Y-43223D01*
X79776Y-43334D01*
X79921Y-43394D01*
X80078Y-43394D01*
X80223Y-43334D01*
X80334Y-43223D01*
X80394Y-43078D01*
X80394Y-42921D01*
X80334Y-42776D01*
X80223Y-42665D01*
X80099Y-42614D01*
X80900Y-42614D01*
X80776Y-42665D01*
X80665Y-42776D01*
X80605Y-42921D01*
X80605Y-43078D01*
X80665Y-43223D01*
X80776Y-43334D01*
X80921Y-43394D01*
X81078Y-43394D01*
X81105Y-43383D01*
X81270Y-43548D01*
X81267Y-43553D01*
X81267Y-43646D01*
X81302Y-43731D01*
X81368Y-43796D01*
X81453Y-43832D01*
X81546Y-43832D01*
X81631Y-43797D01*
X81696Y-43731D01*
X81732Y-43646D01*
X81732Y-43553D01*
X81697Y-43468D01*
X81631Y-43403D01*
X81546Y-43367D01*
X81453Y-43367D01*
X81448Y-43370D01*
X81318Y-43239D01*
X81334Y-43223D01*
X81394Y-43078D01*
X81394Y-42921D01*
X81334Y-42776D01*
X81223Y-42665D01*
X81099Y-42614D01*
X81900Y-42614D01*
X81776Y-42665D01*
X81665Y-42776D01*
X81605Y-42921D01*
X81605Y-43078D01*
X81665Y-43223D01*
X81776Y-43334D01*
X81921Y-43394D01*
X82066Y-43394D01*
X82220Y-43548D01*
X82217Y-43553D01*
X82217Y-43646D01*
X82252Y-43731D01*
X82318Y-43796D01*
X82403Y-43832D01*
X82496Y-43832D01*
X82581Y-43797D01*
X82646Y-43731D01*
X82682Y-43646D01*
X82682Y-43553D01*
X82647Y-43468D01*
X82581Y-43403D01*
X82496Y-43367D01*
X82403Y-43367D01*
X82398Y-43370D01*
X82293Y-43264D01*
X82334Y-43223D01*
X82394Y-43078D01*
X82394Y-42921D01*
X82334Y-42776D01*
X82223Y-42665D01*
X82099Y-42614D01*
X82900Y-42614D01*
X82776Y-42665D01*
X82665Y-42776D01*
X82605Y-42921D01*
X82605Y-43078D01*
X82665Y-43223D01*
X82776Y-43334D01*
X82874Y-43374D01*
X82874Y-43600D01*
X82883Y-43648D01*
X82910Y-43689D01*
X82951Y-43716D01*
X83000Y-43725D01*
X83147Y-43725D01*
X83170Y-43748D01*
X83167Y-43753D01*
X83167Y-43846D01*
X83202Y-43931D01*
X83268Y-43996D01*
X83353Y-44032D01*
X83446Y-44032D01*
X83531Y-43997D01*
X83596Y-43931D01*
X83632Y-43846D01*
X83632Y-43753D01*
X83597Y-43668D01*
X83531Y-43603D01*
X83446Y-43567D01*
X83353Y-43567D01*
X83348Y-43570D01*
X83289Y-43510D01*
X83248Y-43483D01*
X83200Y-43474D01*
X83125Y-43474D01*
X83125Y-43374D01*
X83223Y-43334D01*
X83334Y-43223D01*
X83394Y-43078D01*
X83394Y-42921D01*
X83334Y-42776D01*
X83223Y-42665D01*
X83099Y-42614D01*
X83900Y-42614D01*
X83776Y-42665D01*
X83665Y-42776D01*
X83605Y-42921D01*
X83605Y-43078D01*
X83665Y-43223D01*
X83776Y-43334D01*
X83874Y-43374D01*
X83874Y-43980D01*
X83818Y-44002D01*
X83753Y-44068D01*
X83717Y-44153D01*
X83717Y-44246D01*
X83752Y-44331D01*
X83818Y-44396D01*
X83903Y-44432D01*
X83996Y-44432D01*
X84081Y-44397D01*
X84146Y-44331D01*
X84182Y-44246D01*
X84182Y-44153D01*
X84147Y-44068D01*
X84125Y-44047D01*
X84125Y-43374D01*
X84223Y-43334D01*
X84334Y-43223D01*
X84394Y-43078D01*
X84394Y-42921D01*
X84334Y-42776D01*
X84223Y-42665D01*
X84099Y-42614D01*
X84900Y-42614D01*
X84776Y-42665D01*
X84665Y-42776D01*
X84605Y-42921D01*
X84605Y-43078D01*
X84665Y-43223D01*
X84776Y-43334D01*
X84874Y-43374D01*
X84874Y-44555D01*
X84706Y-44555D01*
X84671Y-44569D01*
X84644Y-44596D01*
X84630Y-44631D01*
X84630Y-44668D01*
X84630Y-45018D01*
X84644Y-45053D01*
X84671Y-45080D01*
X84706Y-45094D01*
X84743Y-45094D01*
X85293Y-45094D01*
X85328Y-45080D01*
X85355Y-45053D01*
X85369Y-45018D01*
X85369Y-44981D01*
X85369Y-44631D01*
X85355Y-44596D01*
X85328Y-44569D01*
X85293Y-44555D01*
X85256Y-44555D01*
X85125Y-44555D01*
X85125Y-43374D01*
X85223Y-43334D01*
X85334Y-43223D01*
X85385Y-43099D01*
X85385Y-51900D01*
M02*
