M48
;DRILL file {Pcbnew (2013-03-31 BZR 4008)-stable} date 21.10.2013 14:27:19
;FORMAT={-:-/ absolute / inch / decimal}
FMAT,2
INCH,TZ
T1C0.013
T2C0.014
T3C0.030
T4C0.040
%
G90
G05
M72
T1
X6.11Y-4.49
X6.2595Y-4.6989
X6.36Y-4.42
X6.37Y-4.59
X6.455Y-4.745
X6.4879Y-4.7758
X6.5614Y-4.3786
X6.66Y-4.38
X6.69Y-4.51
X6.72Y-4.9016
X6.74Y-4.37
X6.75Y-5.05
X6.855Y-4.41
X6.88Y-4.72
X6.88Y-4.82
X6.94Y-5.055
X6.99Y-4.82
X7.005Y-4.385
X7.0282Y-4.4458
X7.04Y-5.07
X7.05Y-5.14
X7.06Y-4.48
X7.0747Y-4.8133
X7.0837Y-4.76
X7.1Y-4.67
X7.1059Y-4.9601
X7.1306Y-4.7542
X7.1398Y-4.8015
X7.15Y-5.135
X7.2075Y-4.8376
X7.233Y-4.9655
X7.242Y-4.7257
X7.255Y-5.115
X7.2563Y-4.7974
X7.2733Y-4.3598
X7.2733Y-4.5412
X7.2914Y-4.7955
X7.3311Y-4.5614
X7.34Y-4.35
X7.345Y-5.11
X7.365Y-4.435
X7.385Y-4.515
X7.3979Y-4.9101
X7.4043Y-4.7598
X7.4125Y-4.8258
X7.415Y-4.605
X7.4191Y-4.6771
X7.42Y-4.5
X7.44Y-5.1
X7.45Y-4.37
X7.455Y-5.155
X7.4606Y-4.8379
X7.5245Y-4.9944
X7.55Y-4.395
X7.562Y-5.0308
X7.5882Y-4.9981
X7.6067Y-4.7722
X7.635Y-5.08
X7.66Y-4.9
X7.66Y-4.68
X7.685Y-4.985
X7.75Y-4.955
X7.825Y-4.915
X7.855Y-4.505
X7.935Y-4.4
X7.945Y-4.87
X8.0588Y-4.3588
X8.15Y-4.36
X8.15Y-4.84
X8.245Y-4.36
X8.34Y-4.38
X8.395Y-4.42
T2
X8.0383Y-4.5668
X8.0817Y-4.5668
T3
X7.88Y-4.68
X7.88Y-4.88
T4
X6.1Y-4.3
X6.1Y-5.2
X6.2Y-4.3
X6.2Y-5.2
X6.3Y-4.3
X6.3Y-4.9
X6.3Y-5.2
X6.4Y-4.3
X6.4Y-4.9
X6.4Y-5.2
X6.5Y-4.3
X6.5Y-4.9
X6.5Y-5.2
X6.6Y-4.3
X6.6Y-5.2
X6.7Y-4.3
X6.7Y-4.6
X6.7Y-5.2
X6.8Y-4.3
X6.8Y-4.6
X6.8Y-5.2
X6.9Y-4.3
X6.9Y-5.2
X7.Y-4.3
X7.Y-5.2
X7.1Y-4.3
X7.1Y-5.2
X7.2Y-4.3
X7.2Y-5.2
X7.3Y-4.3
X7.3Y-5.2
X7.4Y-4.3
X7.4Y-5.2
X7.5Y-4.3
X7.5Y-5.2
X7.6Y-4.3
X7.6Y-5.2
X7.7Y-4.3
X7.7Y-5.2
X7.8Y-4.3
X7.8Y-5.2
X7.9Y-4.3
X7.9Y-5.2
X8.Y-4.3
X8.Y-5.2
X8.1Y-4.3
X8.1Y-5.2
X8.2Y-4.3
X8.2Y-5.2
X8.3Y-4.3
X8.3Y-4.55
X8.3Y-4.65
X8.3Y-4.75
X8.3Y-4.85
X8.3Y-4.95
X8.3Y-5.2
X8.4Y-4.3
X8.4Y-4.55
X8.4Y-4.65
X8.4Y-4.75
X8.4Y-4.85
X8.4Y-4.95
X8.4Y-5.2
X8.5Y-4.3
X8.5Y-5.2
T0
M30
