G04 (created by PCBNEW (2013-03-31 BZR 4008)-stable) date 21.10.2013 14:27:09*
%MOIN*%
G04 Gerber Fmt 3.4, Leading zero omitted, Abs format*
%FSLAX34Y34*%
G01*
G70*
G90*
G04 APERTURE LIST*
%ADD10C,0.006*%
%ADD11R,0.0118X0.0276*%
%ADD12R,0.0256X0.0531*%
%ADD13R,0.055X0.035*%
%ADD14R,0.035X0.055*%
%ADD15R,0.045X0.025*%
%ADD16R,0.025X0.045*%
%ADD17R,0.06X0.06*%
%ADD18C,0.06*%
%ADD19R,0.0747X0.0747*%
%ADD20R,0.0747X0.0748*%
%ADD21R,0.0747X0.0707*%
%ADD22R,0.0629X0.0825*%
%ADD23R,0.053X0.0157*%
%ADD24R,0.0098X0.0315*%
%ADD25R,0.0099X0.0315*%
%ADD26R,0.0315X0.0098*%
%ADD27R,0.0315X0.0099*%
%ADD28R,0.0472X0.0472*%
%ADD29C,0.056*%
%ADD30C,0.0275591*%
%ADD31R,0.11811X0.11811*%
G04 APERTURE END LIST*
G54D10*
G54D11*
X64000Y-47815D03*
X64256Y-47815D03*
X64256Y-47185D03*
X64000Y-47185D03*
X63744Y-47185D03*
X63744Y-47815D03*
G54D12*
X63000Y-47972D03*
X63000Y-47028D03*
G54D13*
X85000Y-44825D03*
X85000Y-45575D03*
X62800Y-44625D03*
X62800Y-45375D03*
X63600Y-44625D03*
X63600Y-45375D03*
G54D14*
X80825Y-45000D03*
X81575Y-45000D03*
X79975Y-45000D03*
X79225Y-45000D03*
G54D13*
X77200Y-48775D03*
X77200Y-48025D03*
X77200Y-46625D03*
X77200Y-47375D03*
G54D14*
X65425Y-46600D03*
X66175Y-46600D03*
G54D13*
X85000Y-47375D03*
X85000Y-46625D03*
X64000Y-49825D03*
X64000Y-50575D03*
G54D14*
X76175Y-48200D03*
X75425Y-48200D03*
G54D13*
X65000Y-49825D03*
X65000Y-50575D03*
X62000Y-49825D03*
X62000Y-50575D03*
X63000Y-49825D03*
X63000Y-50575D03*
X68000Y-47225D03*
X68000Y-47975D03*
X67200Y-47225D03*
X67200Y-47975D03*
X66000Y-49825D03*
X66000Y-50575D03*
G54D15*
X69400Y-47300D03*
X69400Y-47900D03*
X69400Y-49100D03*
X69400Y-48500D03*
G54D16*
X71100Y-45200D03*
X71700Y-45200D03*
G54D15*
X75400Y-47500D03*
X75400Y-46900D03*
G54D16*
X71100Y-44600D03*
X71700Y-44600D03*
G54D15*
X74600Y-47900D03*
X74600Y-47300D03*
G54D17*
X84000Y-49500D03*
G54D18*
X83000Y-49500D03*
X84000Y-48500D03*
X83000Y-48500D03*
X84000Y-47500D03*
X83000Y-47500D03*
X84000Y-46500D03*
X83000Y-46500D03*
X84000Y-45500D03*
X83000Y-45500D03*
G54D17*
X65000Y-49000D03*
G54D18*
X64000Y-49000D03*
X63000Y-49000D03*
G54D17*
X68000Y-46000D03*
G54D18*
X67000Y-46000D03*
G54D17*
X61000Y-43000D03*
G54D18*
X62000Y-43000D03*
X71000Y-43000D03*
X64000Y-43000D03*
X73000Y-43000D03*
X66000Y-43000D03*
X75000Y-43000D03*
X68000Y-43000D03*
X77000Y-43000D03*
X70000Y-43000D03*
X79000Y-43000D03*
X72000Y-43000D03*
X81000Y-43000D03*
X74000Y-43000D03*
X83000Y-43000D03*
X76000Y-43000D03*
X85000Y-43000D03*
X78000Y-43000D03*
X80000Y-43000D03*
X82000Y-43000D03*
X84000Y-43000D03*
X63000Y-43000D03*
X65000Y-43000D03*
X67000Y-43000D03*
X69000Y-43000D03*
G54D17*
X61000Y-52000D03*
G54D18*
X62000Y-52000D03*
X71000Y-52000D03*
X64000Y-52000D03*
X73000Y-52000D03*
X66000Y-52000D03*
X75000Y-52000D03*
X68000Y-52000D03*
X77000Y-52000D03*
X70000Y-52000D03*
X79000Y-52000D03*
X72000Y-52000D03*
X81000Y-52000D03*
X74000Y-52000D03*
X83000Y-52000D03*
X76000Y-52000D03*
X85000Y-52000D03*
X78000Y-52000D03*
X80000Y-52000D03*
X82000Y-52000D03*
X84000Y-52000D03*
X63000Y-52000D03*
X65000Y-52000D03*
X67000Y-52000D03*
X69000Y-52000D03*
G54D19*
X61070Y-47028D03*
G54D20*
X61070Y-47972D03*
G54D21*
X61070Y-48996D03*
G54D22*
X62074Y-46280D03*
G54D23*
X62124Y-46989D03*
X62124Y-47245D03*
X62124Y-47500D03*
X62124Y-47755D03*
X62124Y-48011D03*
G54D22*
X62074Y-48720D03*
G54D21*
X61070Y-46004D03*
G54D24*
X73082Y-49113D03*
G54D25*
X72885Y-49113D03*
X72688Y-49113D03*
X72491Y-49113D03*
G54D24*
X72295Y-49113D03*
X72098Y-49113D03*
X71902Y-49113D03*
X71705Y-49113D03*
G54D25*
X71509Y-49113D03*
X71312Y-49113D03*
X71115Y-49113D03*
G54D24*
X70918Y-49113D03*
G54D26*
X70387Y-48582D03*
G54D27*
X70387Y-48385D03*
X70387Y-48188D03*
X70387Y-47991D03*
G54D26*
X70387Y-47795D03*
X70387Y-47598D03*
X70387Y-47402D03*
X70387Y-47205D03*
G54D27*
X70387Y-47009D03*
X70387Y-46812D03*
X70387Y-46615D03*
G54D26*
X70387Y-46418D03*
G54D24*
X73082Y-45887D03*
G54D25*
X72885Y-45887D03*
X72688Y-45887D03*
X72491Y-45887D03*
G54D24*
X72295Y-45887D03*
X72098Y-45887D03*
X71902Y-45887D03*
X71705Y-45887D03*
G54D25*
X71509Y-45887D03*
X71312Y-45887D03*
X71115Y-45887D03*
G54D24*
X70918Y-45887D03*
G54D26*
X73613Y-48582D03*
G54D27*
X73613Y-48385D03*
X73613Y-48188D03*
X73613Y-47991D03*
G54D26*
X73613Y-47795D03*
X73613Y-47598D03*
X73613Y-47402D03*
X73613Y-47205D03*
G54D27*
X73613Y-47009D03*
X73613Y-46812D03*
X73613Y-46615D03*
G54D26*
X73613Y-46418D03*
G54D28*
X85000Y-48187D03*
X85000Y-49013D03*
X65387Y-47400D03*
X66213Y-47400D03*
X64400Y-44587D03*
X64400Y-45413D03*
X62000Y-44587D03*
X62000Y-45413D03*
G54D29*
X78800Y-48800D03*
X78800Y-46800D03*
G54D30*
X80383Y-45667D03*
X80816Y-45667D03*
G54D31*
X80600Y-49211D03*
M02*
